<?xml version="1.0" encoding="UTF-8"?>
<!-- assembled fresh by botplotlib (a cyborg production) -->
<svg xmlns="http://www.w3.org/2000/svg" width="800" height="500" viewBox="0 0 800.0 500.0">
  <defs>
    <clipPath id="plot-clip">
      <rect x="79.4" y="40" width="580.6" height="393"/>
    </clipPath>
  </defs>
  <rect x="0" y="0" width="800" height="500" fill="#FFFFFF"/>
  <line x1="79.4" y1="421.877" x2="660" y2="421.877" stroke="#EEEEEE" stroke-width="1"/>
  <line x1="79.4" y1="347.726" x2="660" y2="347.726" stroke="#EEEEEE" stroke-width="1"/>
  <line x1="79.4" y1="273.575" x2="660" y2="273.575" stroke="#EEEEEE" stroke-width="1"/>
  <line x1="79.4" y1="199.425" x2="660" y2="199.425" stroke="#EEEEEE" stroke-width="1"/>
  <line x1="79.4" y1="125.274" x2="660" y2="125.274" stroke="#EEEEEE" stroke-width="1"/>
  <line x1="79.4" y1="51.1226" x2="660" y2="51.1226" stroke="#EEEEEE" stroke-width="1"/>
  <line x1="79.4" y1="433" x2="660" y2="433" stroke="#333333" stroke-width="1"/>
  <g clip-path="url(#plot-clip)">
    <rect x="91.012" y="51.1226" width="92.896" height="370.755" fill="#C4883A"/>
    <rect x="207.132" y="51.1226" width="92.896" height="370.755" fill="#4CAF50"/>
    <rect x="323.252" y="51.1226" width="92.896" height="370.755" fill="#4E79A7"/>
    <rect x="439.372" y="51.1226" width="92.896" height="370.755" fill="#E53935"/>
    <rect x="555.492" y="51.1226" width="92.896" height="370.755" fill="#C4883A"/>
  </g>
  <line x1="137.46" y1="433" x2="137.46" y2="438" stroke="#333333" stroke-width="1"/>
  <text x="137.46" y="451" font-family="Inter, Helvetica Neue, Arial, sans-serif" font-size="10" fill="#333333" text-anchor="middle">bottom bun</text>
  <line x1="253.58" y1="433" x2="253.58" y2="438" stroke="#333333" stroke-width="1"/>
  <text x="253.58" y="451" font-family="Inter, Helvetica Neue, Arial, sans-serif" font-size="10" fill="#333333" text-anchor="middle">lettuce</text>
  <line x1="369.7" y1="433" x2="369.7" y2="438" stroke="#333333" stroke-width="1"/>
  <text x="369.7" y="451" font-family="Inter, Helvetica Neue, Arial, sans-serif" font-size="10" fill="#333333" text-anchor="middle">bot</text>
  <line x1="485.82" y1="433" x2="485.82" y2="438" stroke="#333333" stroke-width="1"/>
  <text x="485.82" y="451" font-family="Inter, Helvetica Neue, Arial, sans-serif" font-size="10" fill="#333333" text-anchor="middle">tomato</text>
  <line x1="601.94" y1="433" x2="601.94" y2="438" stroke="#333333" stroke-width="1"/>
  <text x="601.94" y="451" font-family="Inter, Helvetica Neue, Arial, sans-serif" font-size="10" fill="#333333" text-anchor="middle">top bun</text>
  <line x1="74.4" y1="421.877" x2="79.4" y2="421.877" stroke="#333333" stroke-width="1"/>
  <text x="71.4" y="425.877" font-family="Inter, Helvetica Neue, Arial, sans-serif" font-size="10" fill="#333333" text-anchor="end">0</text>
  <line x1="74.4" y1="347.726" x2="79.4" y2="347.726" stroke="#333333" stroke-width="1"/>
  <text x="71.4" y="351.726" font-family="Inter, Helvetica Neue, Arial, sans-serif" font-size="10" fill="#333333" text-anchor="end">0.2</text>
  <line x1="74.4" y1="273.575" x2="79.4" y2="273.575" stroke="#333333" stroke-width="1"/>
  <text x="71.4" y="277.575" font-family="Inter, Helvetica Neue, Arial, sans-serif" font-size="10" fill="#333333" text-anchor="end">0.4</text>
  <line x1="74.4" y1="199.425" x2="79.4" y2="199.425" stroke="#333333" stroke-width="1"/>
  <text x="71.4" y="203.425" font-family="Inter, Helvetica Neue, Arial, sans-serif" font-size="10" fill="#333333" text-anchor="end">0.6</text>
  <line x1="74.4" y1="125.274" x2="79.4" y2="125.274" stroke="#333333" stroke-width="1"/>
  <text x="71.4" y="129.274" font-family="Inter, Helvetica Neue, Arial, sans-serif" font-size="10" fill="#333333" text-anchor="end">0.8</text>
  <line x1="74.4" y1="51.1226" x2="79.4" y2="51.1226" stroke="#333333" stroke-width="1"/>
  <text x="71.4" y="55.1226" font-family="Inter, Helvetica Neue, Arial, sans-serif" font-size="10" fill="#333333" text-anchor="end">1</text>
  <text x="369.7" y="475" font-family="Inter, Helvetica Neue, Arial, sans-serif" font-size="12" fill="#333333" text-anchor="middle">layer</text>
  <text x="14.4" y="236.5" font-family="Inter, Helvetica Neue, Arial, sans-serif" font-size="12" fill="#333333" text-anchor="middle" transform="rotate(-90,14.399999999999999,236.5)">size</text>
  <rect x="675" y="42" width="12" height="12" fill="#C4883A" rx="2"/>
  <text x="693" y="52" font-family="Inter, Helvetica Neue, Arial, sans-serif" font-size="10" fill="#333333" text-anchor="start">bottom bun</text>
  <rect x="675" y="64" width="12" height="12" fill="#4CAF50" rx="2"/>
  <text x="693" y="74" font-family="Inter, Helvetica Neue, Arial, sans-serif" font-size="10" fill="#333333" text-anchor="start">lettuce</text>
  <rect x="675" y="86" width="12" height="12" fill="#4E79A7" rx="2"/>
  <text x="693" y="96" font-family="Inter, Helvetica Neue, Arial, sans-serif" font-size="10" fill="#333333" text-anchor="start">bot</text>
  <rect x="675" y="108" width="12" height="12" fill="#E53935" rx="2"/>
  <text x="693" y="118" font-family="Inter, Helvetica Neue, Arial, sans-serif" font-size="10" fill="#333333" text-anchor="start">tomato</text>
  <rect x="675" y="130" width="12" height="12" fill="#C4883A" rx="2"/>
  <text x="693" y="140" font-family="Inter, Helvetica Neue, Arial, sans-serif" font-size="10" fill="#333333" text-anchor="start">top bun</text>
</svg>