<?xml version="1.0" encoding="UTF-8"?>
<!-- assembled fresh by botplotlib (a cyborg production) -->
<svg xmlns="http://www.w3.org/2000/svg" width="800" height="500" viewBox="0 0 800.0 500.0">
  <defs>
    <clipPath id="plot-clip">
      <rect x="79.4" y="40" width="580.6" height="393"/>
    </clipPath>
  </defs>
  <rect x="0" y="0" width="800" height="500" fill="#FFFFFF"/>
  <line x1="79.4" y1="421.877" x2="660" y2="421.877" stroke="#EEEEEE" stroke-width="1"/>
  <line x1="79.4" y1="347.726" x2="660" y2="347.726" stroke="#EEEEEE" stroke-width="1"/>
  <line x1="79.4" y1="273.575" x2="660" y2="273.575" stroke="#EEEEEE" stroke-width="1"/>
  <line x1="79.4" y1="199.425" x2="660" y2="199.425" stroke="#EEEEEE" stroke-width="1"/>
  <line x1="79.4" y1="125.274" x2="660" y2="125.274" stroke="#EEEEEE" stroke-width="1"/>
  <line x1="79.4" y1="51.1226" x2="660" y2="51.1226" stroke="#EEEEEE" stroke-width="1"/>
  <line x1="79.4" y1="433" x2="660" y2="433" stroke="#333333" stroke-width="1"/>
  <g clip-path="url(#plot-clip)">
    <rect x="91.012" y="51.1226" width="92.896" height="370.755" fill="#B07830"/>
    <rect x="207.132" y="51.1226" width="92.896" height="370.755" fill="#388E3C"/>
    <rect x="323.252" y="51.1226" width="92.896" height="370.755" fill="#4E79A7"/>
    <rect x="439.372" y="51.1226" width="92.896" height="370.755" fill="#E53935"/>
    <rect x="555.492" y="51.1226" width="92.896" height="370.755" fill="#B07830"/>
  </g>
  <!-- favicon on the bot bar -->
  <g transform="translate(342, -5) scale(0.875)">
    <rect x="6" y="44" width="52" height="12" rx="3" fill="#E8B95A" stroke="#B8832E" stroke-width="1.5"/>
    <line x1="6" y1="53" x2="58" y2="53" stroke="#A06820" stroke-width="1.5"/>
    <path d="M2,43 Q6,38 12,42 Q18,37 24,41 Q30,36 36,41 Q42,36 48,41 Q54,37 60,42 Q63,45 60,46 L4,46 Q1,45 2,43 Z" fill="#5DBB3A" stroke="#3D8C25" stroke-width="0.8"/>
    <rect x="8" y="40" width="48" height="5" rx="2.5" fill="#EE3333" stroke="#AA1111" stroke-width="0.8"/>
    <rect x="10" y="20" width="44" height="22" rx="5" fill="#7B8FF0" stroke="#5C6DD4" stroke-width="1.5"/>
    <rect x="14" y="22" width="36" height="18" rx="4" fill="#EEF0FF" stroke="#5C6DD4" stroke-width="1"/>
    <circle cx="25" cy="30" r="5.5" fill="white" stroke="#333" stroke-width="1.5"/>
    <circle cx="26.5" cy="28.5" r="2.8" fill="#2A2A4A"/>
    <circle cx="27.8" cy="27.5" r="1" fill="white"/>
    <circle cx="39" cy="29.5" r="5" fill="white" stroke="#333" stroke-width="1.5"/>
    <circle cx="40.5" cy="28" r="2.5" fill="#2A2A4A"/>
    <circle cx="41.5" cy="27.2" r="0.9" fill="white"/>
    <path d="M24,36 Q29,40 34,39.5 Q39,39 42,36" fill="none" stroke="#333" stroke-width="2" stroke-linecap="round"/>
    <path d="M42,36 Q43.5,34 44,32" fill="none" stroke="#333" stroke-width="1.5" stroke-linecap="round"/>
    <circle cx="18" cy="35" r="3" fill="#FF8888" opacity="0.35"/>
    <circle cx="46" cy="34.5" r="3" fill="#FF8888" opacity="0.35"/>
    <rect x="6" y="6" width="52" height="14" rx="3" fill="#E8B95A" stroke="#B8832E" stroke-width="1.5"/>
    <line x1="6" y1="9" x2="58" y2="9" stroke="#C49035" stroke-width="1"/>
    <line x1="32" y1="8" x2="32" y2="1" stroke="#5C6DD4" stroke-width="2" stroke-linecap="round"/>
    <circle cx="32" cy="0" r="3" fill="#FFD700" stroke="#E6A817" stroke-width="0.8"/>
    <ellipse cx="20" cy="12" rx="3.5" ry="1.5" fill="#F5E6C8" stroke="#D4B87A" stroke-width="0.4" transform="rotate(-15,20,12)"/>
    <ellipse cx="38" cy="11" rx="3.5" ry="1.5" fill="#F5E6C8" stroke="#D4B87A" stroke-width="0.4" transform="rotate(12,38,11)"/>
    <ellipse cx="50" cy="14" rx="3" ry="1.3" fill="#F5E6C8" stroke="#D4B87A" stroke-width="0.4" transform="rotate(-8,50,14)"/>
  </g>
  <line x1="137.46" y1="433" x2="137.46" y2="438" stroke="#333333" stroke-width="1"/>
  <text x="137.46" y="451" font-family="Inter, Helvetica Neue, Arial, sans-serif" font-size="10" fill="#333333" text-anchor="middle">bottom bun</text>
  <line x1="253.58" y1="433" x2="253.58" y2="438" stroke="#333333" stroke-width="1"/>
  <text x="253.58" y="451" font-family="Inter, Helvetica Neue, Arial, sans-serif" font-size="10" fill="#333333" text-anchor="middle">lettuce</text>
  <line x1="369.7" y1="433" x2="369.7" y2="438" stroke="#333333" stroke-width="1"/>
  <text x="369.7" y="451" font-family="Inter, Helvetica Neue, Arial, sans-serif" font-size="10" fill="#333333" text-anchor="middle">bot</text>
  <line x1="485.82" y1="433" x2="485.82" y2="438" stroke="#333333" stroke-width="1"/>
  <text x="485.82" y="451" font-family="Inter, Helvetica Neue, Arial, sans-serif" font-size="10" fill="#333333" text-anchor="middle">tomato</text>
  <line x1="601.94" y1="433" x2="601.94" y2="438" stroke="#333333" stroke-width="1"/>
  <text x="601.94" y="451" font-family="Inter, Helvetica Neue, Arial, sans-serif" font-size="10" fill="#333333" text-anchor="middle">top bun</text>
  <line x1="74.4" y1="421.877" x2="79.4" y2="421.877" stroke="#333333" stroke-width="1"/>
  <text x="71.4" y="425.877" font-family="Inter, Helvetica Neue, Arial, sans-serif" font-size="10" fill="#333333" text-anchor="end">0</text>
  <line x1="74.4" y1="347.726" x2="79.4" y2="347.726" stroke="#333333" stroke-width="1"/>
  <text x="71.4" y="351.726" font-family="Inter, Helvetica Neue, Arial, sans-serif" font-size="10" fill="#333333" text-anchor="end">0.2</text>
  <line x1="74.4" y1="273.575" x2="79.4" y2="273.575" stroke="#333333" stroke-width="1"/>
  <text x="71.4" y="277.575" font-family="Inter, Helvetica Neue, Arial, sans-serif" font-size="10" fill="#333333" text-anchor="end">0.4</text>
  <line x1="74.4" y1="199.425" x2="79.4" y2="199.425" stroke="#333333" stroke-width="1"/>
  <text x="71.4" y="203.425" font-family="Inter, Helvetica Neue, Arial, sans-serif" font-size="10" fill="#333333" text-anchor="end">0.6</text>
  <line x1="74.4" y1="125.274" x2="79.4" y2="125.274" stroke="#333333" stroke-width="1"/>
  <text x="71.4" y="129.274" font-family="Inter, Helvetica Neue, Arial, sans-serif" font-size="10" fill="#333333" text-anchor="end">0.8</text>
  <line x1="74.4" y1="51.1226" x2="79.4" y2="51.1226" stroke="#333333" stroke-width="1"/>
  <text x="71.4" y="55.1226" font-family="Inter, Helvetica Neue, Arial, sans-serif" font-size="10" fill="#333333" text-anchor="end">1</text>
  <text x="369.7" y="475" font-family="Inter, Helvetica Neue, Arial, sans-serif" font-size="12" fill="#333333" text-anchor="middle">layer</text>
  <text x="14.4" y="236.5" font-family="Inter, Helvetica Neue, Arial, sans-serif" font-size="12" fill="#333333" text-anchor="middle" transform="rotate(-90,14.399999999999999,236.5)">size</text>
  <rect x="675" y="42" width="12" height="12" fill="#B07830" rx="2"/>
  <text x="693" y="52" font-family="Inter, Helvetica Neue, Arial, sans-serif" font-size="10" fill="#333333" text-anchor="start">bottom bun</text>
  <rect x="675" y="64" width="12" height="12" fill="#388E3C" rx="2"/>
  <text x="693" y="74" font-family="Inter, Helvetica Neue, Arial, sans-serif" font-size="10" fill="#333333" text-anchor="start">lettuce</text>
  <rect x="675" y="86" width="12" height="12" fill="#4E79A7" rx="2"/>
  <text x="693" y="96" font-family="Inter, Helvetica Neue, Arial, sans-serif" font-size="10" fill="#333333" text-anchor="start">bot</text>
  <rect x="675" y="108" width="12" height="12" fill="#E53935" rx="2"/>
  <text x="693" y="118" font-family="Inter, Helvetica Neue, Arial, sans-serif" font-size="10" fill="#333333" text-anchor="start">tomato</text>
  <rect x="675" y="130" width="12" height="12" fill="#B07830" rx="2"/>
  <text x="693" y="140" font-family="Inter, Helvetica Neue, Arial, sans-serif" font-size="10" fill="#333333" text-anchor="start">top bun</text>
</svg>