<?xml version="1.0" encoding="UTF-8"?>
<svg xmlns="http://www.w3.org/2000/svg" width="800" height="500" viewBox="0 0 800.0 500.0">
  <defs>
    <clipPath id="plot-clip">
      <rect x="79.4" y="66" width="700.6" height="367"/>
    </clipPath>
  </defs>
  <rect x="0" y="0" width="800" height="500" fill="#FFFFFF"/>
  <line x1="79.4" y1="422.613" x2="780" y2="422.613" stroke="#EEEEEE" stroke-width="1"/>
  <line x1="79.4" y1="336.057" x2="780" y2="336.057" stroke="#EEEEEE" stroke-width="1"/>
  <line x1="79.4" y1="249.5" x2="780" y2="249.5" stroke="#EEEEEE" stroke-width="1"/>
  <line x1="79.4" y1="162.943" x2="780" y2="162.943" stroke="#EEEEEE" stroke-width="1"/>
  <line x1="79.4" y1="76.3868" x2="780" y2="76.3868" stroke="#EEEEEE" stroke-width="1"/>
  <line x1="79.4" y1="433" x2="780" y2="433" stroke="#333333" stroke-width="1"/>
  <g clip-path="url(#plot-clip)">
    <rect x="96.915" y="258.156" width="140.12" height="164.458" fill="#4E79A7"/>
    <rect x="272.065" y="197.566" width="140.12" height="225.047" fill="#4E79A7"/>
    <rect x="447.215" y="219.205" width="140.12" height="203.408" fill="#4E79A7"/>
    <rect x="622.365" y="158.616" width="140.12" height="263.998" fill="#4E79A7"/>
  </g>
  <line x1="166.975" y1="433" x2="166.975" y2="438" stroke="#333333" stroke-width="1"/>
  <text x="166.975" y="451" font-family="Inter, Helvetica Neue, Arial, sans-serif" font-size="10" fill="#333333" text-anchor="middle">Q1</text>
  <line x1="342.125" y1="433" x2="342.125" y2="438" stroke="#333333" stroke-width="1"/>
  <text x="342.125" y="451" font-family="Inter, Helvetica Neue, Arial, sans-serif" font-size="10" fill="#333333" text-anchor="middle">Q2</text>
  <line x1="517.275" y1="433" x2="517.275" y2="438" stroke="#333333" stroke-width="1"/>
  <text x="517.275" y="451" font-family="Inter, Helvetica Neue, Arial, sans-serif" font-size="10" fill="#333333" text-anchor="middle">Q3</text>
  <line x1="692.425" y1="433" x2="692.425" y2="438" stroke="#333333" stroke-width="1"/>
  <text x="692.425" y="451" font-family="Inter, Helvetica Neue, Arial, sans-serif" font-size="10" fill="#333333" text-anchor="middle">Q4</text>
  <line x1="74.4" y1="422.613" x2="79.4" y2="422.613" stroke="#333333" stroke-width="1"/>
  <text x="71.4" y="426.613" font-family="Inter, Helvetica Neue, Arial, sans-serif" font-size="10" fill="#333333" text-anchor="end">0</text>
  <line x1="74.4" y1="336.057" x2="79.4" y2="336.057" stroke="#333333" stroke-width="1"/>
  <text x="71.4" y="340.057" font-family="Inter, Helvetica Neue, Arial, sans-serif" font-size="10" fill="#333333" text-anchor="end">20000</text>
  <line x1="74.4" y1="249.5" x2="79.4" y2="249.5" stroke="#333333" stroke-width="1"/>
  <text x="71.4" y="253.5" font-family="Inter, Helvetica Neue, Arial, sans-serif" font-size="10" fill="#333333" text-anchor="end">40000</text>
  <line x1="74.4" y1="162.943" x2="79.4" y2="162.943" stroke="#333333" stroke-width="1"/>
  <text x="71.4" y="166.943" font-family="Inter, Helvetica Neue, Arial, sans-serif" font-size="10" fill="#333333" text-anchor="end">60000</text>
  <line x1="74.4" y1="76.3868" x2="79.4" y2="76.3868" stroke="#333333" stroke-width="1"/>
  <text x="71.4" y="80.3868" font-family="Inter, Helvetica Neue, Arial, sans-serif" font-size="10" fill="#333333" text-anchor="end">80000</text>
  <text x="429.7" y="56" font-family="Inter, Helvetica Neue, Arial, sans-serif" font-size="16" fill="#333333" text-anchor="middle">Quarterly Revenue</text>
  <text x="429.7" y="475" font-family="Inter, Helvetica Neue, Arial, sans-serif" font-size="12" fill="#333333" text-anchor="middle">quarter</text>
  <text x="14.4" y="249.5" font-family="Inter, Helvetica Neue, Arial, sans-serif" font-size="12" fill="#333333" text-anchor="middle" transform="rotate(-90,14.399999999999999,249.5)">Revenue ($)</text>
  <text x="166.975" y="343.718" font-family="Inter, Helvetica Neue, Arial, sans-serif" font-size="10" fill="#FFFFFF" text-anchor="middle">$38,000</text>
  <text x="342.125" y="313.423" font-family="Inter, Helvetica Neue, Arial, sans-serif" font-size="10" fill="#FFFFFF" text-anchor="middle">$52,000</text>
  <text x="517.275" y="324.243" font-family="Inter, Helvetica Neue, Arial, sans-serif" font-size="10" fill="#FFFFFF" text-anchor="middle">$47,000</text>
  <text x="692.425" y="293.948" font-family="Inter, Helvetica Neue, Arial, sans-serif" font-size="10" fill="#FFFFFF" text-anchor="middle">$61,000</text>
</svg>