<?xml version="1.0" encoding="UTF-8"?>
<!-- assembled fresh by botplotlib (a cyborg production) -->
<svg xmlns="http://www.w3.org/2000/svg" width="800" height="500" viewBox="0 0 800.0 500.0">
  <defs>
    <clipPath id="plot-clip">
      <rect x="50" y="78" width="610" height="365"/>
    </clipPath>
  </defs>
  <rect x="0" y="0" width="800" height="500" fill="#F2EDE4"/>
  <line x1="50" y1="432.67" x2="660" y2="432.67" stroke="#D8D2C6" stroke-width="1"/>
  <line x1="50" y1="363.802" x2="660" y2="363.802" stroke="#D8D2C6" stroke-width="1"/>
  <line x1="50" y1="294.934" x2="660" y2="294.934" stroke="#D8D2C6" stroke-width="1"/>
  <line x1="50" y1="226.066" x2="660" y2="226.066" stroke="#D8D2C6" stroke-width="1"/>
  <line x1="50" y1="157.198" x2="660" y2="157.198" stroke="#D8D2C6" stroke-width="1"/>
  <line x1="50" y1="88.3302" x2="660" y2="88.3302" stroke="#D8D2C6" stroke-width="1"/>
  <line x1="50" y1="443" x2="660" y2="443" stroke="#CCCCCC" stroke-width="1"/>
  <g clip-path="url(#plot-clip)">
    <polyline points="105.629,212.292 143.994,170.972 182.358,164.085 220.723,219.179 259.088,212.292 297.453,157.198 335.818,143.425 374.182,129.651 412.547,150.311 450.912,122.764 489.277,115.877 527.642,205.406 566.006,212.292 604.371,239.84 642.736,157.198" fill="none" stroke="#388EC1" stroke-width="2.5" stroke-linejoin="round" stroke-linecap="round"/>
    <polyline points="105.629,363.802 143.994,329.368 182.358,384.462 220.723,405.123 259.088,377.575 297.453,377.575 335.818,356.915 374.182,384.462 412.547,425.783 450.912,308.708 489.277,425.783 527.642,363.802 566.006,363.802 604.371,288.047 642.736,412.009" fill="none" stroke="#8C1B2B" stroke-width="2.5" stroke-linejoin="round" stroke-linecap="round"/>
  </g>
  <line x1="67.2642" y1="443" x2="67.2642" y2="448" stroke="#CCCCCC" stroke-width="1"/>
  <text x="67.2642" y="461" font-family="Georgia, Times New Roman, serif" font-size="11" fill="#333333" text-anchor="middle">2010</text>
  <line x1="259.088" y1="443" x2="259.088" y2="448" stroke="#CCCCCC" stroke-width="1"/>
  <text x="259.088" y="461" font-family="Georgia, Times New Roman, serif" font-size="11" fill="#333333" text-anchor="middle">2015</text>
  <line x1="450.912" y1="443" x2="450.912" y2="448" stroke="#CCCCCC" stroke-width="1"/>
  <text x="450.912" y="461" font-family="Georgia, Times New Roman, serif" font-size="11" fill="#333333" text-anchor="middle">2020</text>
  <line x1="642.736" y1="443" x2="642.736" y2="448" stroke="#CCCCCC" stroke-width="1"/>
  <text x="642.736" y="461" font-family="Georgia, Times New Roman, serif" font-size="11" fill="#333333" text-anchor="middle">2025</text>
  <text x="42" y="436.67" font-family="Georgia, Times New Roman, serif" font-size="11" fill="#333333" text-anchor="end">30</text>
  <text x="42" y="367.802" font-family="Georgia, Times New Roman, serif" font-size="11" fill="#333333" text-anchor="end">40</text>
  <text x="42" y="298.934" font-family="Georgia, Times New Roman, serif" font-size="11" fill="#333333" text-anchor="end">50</text>
  <text x="42" y="230.066" font-family="Georgia, Times New Roman, serif" font-size="11" fill="#333333" text-anchor="end">60</text>
  <text x="42" y="161.198" font-family="Georgia, Times New Roman, serif" font-size="11" fill="#333333" text-anchor="end">70</text>
  <text x="42" y="92.3302" font-family="Georgia, Times New Roman, serif" font-size="11" fill="#333333" text-anchor="end">80</text>
  <text x="50" y="52" font-family="Georgia, Times New Roman, serif" font-size="22" fill="#333333" text-anchor="start" font-weight="bold">Nathan's Hot Dog Eating Contest</text>
  <text x="355" y="480" font-family="Georgia, Times New Roman, serif" font-size="12" fill="#333333" text-anchor="middle">Year</text>
  <text x="50" y="74" font-family="Georgia, Times New Roman, serif" font-size="12" fill="#333333" text-anchor="start">Hot Dogs Eaten</text>
  <rect x="675" y="80" width="12" height="12" fill="#388EC1" rx="2"/>
  <text x="693" y="90" font-family="Georgia, Times New Roman, serif" font-size="11" fill="#333333" text-anchor="start">men</text>
  <rect x="675" y="102" width="12" height="12" fill="#8C1B2B" rx="2"/>
  <text x="693" y="112" font-family="Georgia, Times New Roman, serif" font-size="11" fill="#333333" text-anchor="start">women</text>
</svg>