<?xml version="1.0" encoding="UTF-8"?>
<!-- assembled fresh by botplotlib (a cyborg production) -->
<svg xmlns="http://www.w3.org/2000/svg" width="800" height="500" viewBox="0 0 800.0 500.0">
  <defs>
    <clipPath id="plot-clip">
      <rect x="50" y="78" width="730" height="365"/>
    </clipPath>
  </defs>
  <rect x="0" y="0" width="800" height="500" fill="#F2EDE4"/>
  <line x1="50" y1="432.67" x2="780" y2="432.67" stroke="#D8D2C6" stroke-width="1"/>
  <line x1="50" y1="346.585" x2="780" y2="346.585" stroke="#D8D2C6" stroke-width="1"/>
  <line x1="50" y1="260.5" x2="780" y2="260.5" stroke="#D8D2C6" stroke-width="1"/>
  <line x1="50" y1="174.415" x2="780" y2="174.415" stroke="#D8D2C6" stroke-width="1"/>
  <line x1="50" y1="88.3302" x2="780" y2="88.3302" stroke="#D8D2C6" stroke-width="1"/>
  <line x1="50" y1="443" x2="780" y2="443" stroke="#CCCCCC" stroke-width="1"/>
  <g clip-path="url(#plot-clip)">
    <rect x="59.125" y="148.59" width="73" height="284.08" fill="#388EC1"/>
    <rect x="150.375" y="139.981" width="73" height="292.689" fill="#388EC1"/>
    <rect x="241.625" y="135.677" width="73" height="296.993" fill="#388EC1"/>
    <rect x="332.875" y="131.373" width="73" height="301.297" fill="#388EC1"/>
    <rect x="424.125" y="122.764" width="73" height="309.906" fill="#388EC1"/>
    <rect x="515.375" y="114.156" width="73" height="318.514" fill="#388EC1"/>
    <rect x="606.625" y="109.851" width="73" height="322.818" fill="#388EC1"/>
    <rect x="697.875" y="105.547" width="73" height="327.123" fill="#388EC1"/>
  </g>
  <line x1="95.625" y1="443" x2="95.625" y2="448" stroke="#CCCCCC" stroke-width="1"/>
  <text x="95.625" y="461" font-family="Georgia, Times New Roman, serif" font-size="11" fill="#333333" text-anchor="middle">2007</text>
  <line x1="186.875" y1="443" x2="186.875" y2="448" stroke="#CCCCCC" stroke-width="1"/>
  <text x="186.875" y="461" font-family="Georgia, Times New Roman, serif" font-size="11" fill="#333333" text-anchor="middle">2009</text>
  <line x1="278.125" y1="443" x2="278.125" y2="448" stroke="#CCCCCC" stroke-width="1"/>
  <text x="278.125" y="461" font-family="Georgia, Times New Roman, serif" font-size="11" fill="#333333" text-anchor="middle">2013</text>
  <line x1="369.375" y1="443" x2="369.375" y2="448" stroke="#CCCCCC" stroke-width="1"/>
  <text x="369.375" y="461" font-family="Georgia, Times New Roman, serif" font-size="11" fill="#333333" text-anchor="middle">2016</text>
  <line x1="460.625" y1="443" x2="460.625" y2="448" stroke="#CCCCCC" stroke-width="1"/>
  <text x="460.625" y="461" font-family="Georgia, Times New Roman, serif" font-size="11" fill="#333333" text-anchor="middle">2017</text>
  <line x1="551.875" y1="443" x2="551.875" y2="448" stroke="#CCCCCC" stroke-width="1"/>
  <text x="551.875" y="461" font-family="Georgia, Times New Roman, serif" font-size="11" fill="#333333" text-anchor="middle">2018</text>
  <line x1="643.125" y1="443" x2="643.125" y2="448" stroke="#CCCCCC" stroke-width="1"/>
  <text x="643.125" y="461" font-family="Georgia, Times New Roman, serif" font-size="11" fill="#333333" text-anchor="middle">2020</text>
  <line x1="734.375" y1="443" x2="734.375" y2="448" stroke="#CCCCCC" stroke-width="1"/>
  <text x="734.375" y="461" font-family="Georgia, Times New Roman, serif" font-size="11" fill="#333333" text-anchor="middle">2021</text>
  <text x="42" y="436.67" font-family="Georgia, Times New Roman, serif" font-size="11" fill="#333333" text-anchor="end">0</text>
  <text x="42" y="350.585" font-family="Georgia, Times New Roman, serif" font-size="11" fill="#333333" text-anchor="end">20</text>
  <text x="42" y="264.5" font-family="Georgia, Times New Roman, serif" font-size="11" fill="#333333" text-anchor="end">40</text>
  <text x="42" y="178.415" font-family="Georgia, Times New Roman, serif" font-size="11" fill="#333333" text-anchor="end">60</text>
  <text x="42" y="92.3302" font-family="Georgia, Times New Roman, serif" font-size="11" fill="#333333" text-anchor="end">80</text>
  <text x="50" y="52" font-family="Georgia, Times New Roman, serif" font-size="22" fill="#333333" text-anchor="start" font-weight="bold">Joey Chestnut: The Climb to 76</text>
  <text x="415" y="480" font-family="Georgia, Times New Roman, serif" font-size="12" fill="#333333" text-anchor="middle">year</text>
  <text x="50" y="74" font-family="Georgia, Times New Roman, serif" font-size="12" fill="#333333" text-anchor="start">Hot Dogs in 10 Min</text>
  <text x="95.625" y="294.296" font-family="Georgia, Times New Roman, serif" font-size="11" fill="#FFFFFF" text-anchor="middle">66</text>
  <text x="186.875" y="289.992" font-family="Georgia, Times New Roman, serif" font-size="11" fill="#FFFFFF" text-anchor="middle">68</text>
  <text x="278.125" y="287.84" font-family="Georgia, Times New Roman, serif" font-size="11" fill="#FFFFFF" text-anchor="middle">69</text>
  <text x="369.375" y="285.688" font-family="Georgia, Times New Roman, serif" font-size="11" fill="#FFFFFF" text-anchor="middle">70</text>
  <text x="460.625" y="281.384" font-family="Georgia, Times New Roman, serif" font-size="11" fill="#FFFFFF" text-anchor="middle">72</text>
  <text x="551.875" y="277.079" font-family="Georgia, Times New Roman, serif" font-size="11" fill="#FFFFFF" text-anchor="middle">74</text>
  <text x="643.125" y="274.927" font-family="Georgia, Times New Roman, serif" font-size="11" fill="#FFFFFF" text-anchor="middle">75</text>
  <text x="734.375" y="272.775" font-family="Georgia, Times New Roman, serif" font-size="11" fill="#FFFFFF" text-anchor="middle">76</text>
</svg>