<?xml version="1.0" encoding="UTF-8"?>
<svg xmlns="http://www.w3.org/2000/svg" width="800" height="500" viewBox="0 0 800.0 500.0">
  <defs>
    <clipPath id="plot-clip">
      <rect x="50" y="78" width="610" height="365"/>
    </clipPath>
  </defs>
  <rect x="0" y="0" width="800" height="500" fill="#F2EDE4"/>
  <line x1="50" y1="432.67" x2="660" y2="432.67" stroke="#D8D2C6" stroke-width="1"/>
  <line x1="50" y1="375.28" x2="660" y2="375.28" stroke="#D8D2C6" stroke-width="1"/>
  <line x1="50" y1="317.89" x2="660" y2="317.89" stroke="#D8D2C6" stroke-width="1"/>
  <line x1="50" y1="260.5" x2="660" y2="260.5" stroke="#D8D2C6" stroke-width="1"/>
  <line x1="50" y1="203.11" x2="660" y2="203.11" stroke="#D8D2C6" stroke-width="1"/>
  <line x1="50" y1="145.72" x2="660" y2="145.72" stroke="#D8D2C6" stroke-width="1"/>
  <line x1="50" y1="88.3302" x2="660" y2="88.3302" stroke="#D8D2C6" stroke-width="1"/>
  <line x1="50" y1="443" x2="660" y2="443" stroke="#CCCCCC" stroke-width="1"/>
  <g clip-path="url(#plot-clip)">
    <polyline points="115.22,432.67 163.176,398.236 211.132,375.28 259.088,386.758 307.044,340.846 355,294.934 402.956,260.5 450.912,226.066 498.868,249.022 546.824,203.11 594.78,145.72 642.736,88.3302" fill="none" stroke="#388EC1" stroke-width="2.5" stroke-linejoin="round" stroke-linecap="round"/>
    <polyline points="115.22,317.89 163.176,329.368 211.132,306.412 259.088,294.934 307.044,283.456 355,294.934 402.956,271.978 450.912,260.5 498.868,249.022 546.824,260.5 594.78,237.544 642.736,226.066" fill="none" stroke="#8C1B2B" stroke-width="2.5" stroke-linejoin="round" stroke-linecap="round"/>
  </g>
  <line x1="67.2642" y1="443" x2="67.2642" y2="448" stroke="#CCCCCC" stroke-width="1"/>
  <text x="67.2642" y="461" font-family="Georgia, Times New Roman, serif" font-size="11" fill="#333333" text-anchor="middle">0</text>
  <line x1="163.176" y1="443" x2="163.176" y2="448" stroke="#CCCCCC" stroke-width="1"/>
  <text x="163.176" y="461" font-family="Georgia, Times New Roman, serif" font-size="11" fill="#333333" text-anchor="middle">2</text>
  <line x1="259.088" y1="443" x2="259.088" y2="448" stroke="#CCCCCC" stroke-width="1"/>
  <text x="259.088" y="461" font-family="Georgia, Times New Roman, serif" font-size="11" fill="#333333" text-anchor="middle">4</text>
  <line x1="355" y1="443" x2="355" y2="448" stroke="#CCCCCC" stroke-width="1"/>
  <text x="355" y="461" font-family="Georgia, Times New Roman, serif" font-size="11" fill="#333333" text-anchor="middle">6</text>
  <line x1="450.912" y1="443" x2="450.912" y2="448" stroke="#CCCCCC" stroke-width="1"/>
  <text x="450.912" y="461" font-family="Georgia, Times New Roman, serif" font-size="11" fill="#333333" text-anchor="middle">8</text>
  <line x1="546.824" y1="443" x2="546.824" y2="448" stroke="#CCCCCC" stroke-width="1"/>
  <text x="546.824" y="461" font-family="Georgia, Times New Roman, serif" font-size="11" fill="#333333" text-anchor="middle">10</text>
  <line x1="642.736" y1="443" x2="642.736" y2="448" stroke="#CCCCCC" stroke-width="1"/>
  <text x="642.736" y="461" font-family="Georgia, Times New Roman, serif" font-size="11" fill="#333333" text-anchor="middle">12</text>
  <text x="42" y="436.67" font-family="Georgia, Times New Roman, serif" font-size="11" fill="#333333" text-anchor="end">10</text>
  <text x="42" y="379.28" font-family="Georgia, Times New Roman, serif" font-size="11" fill="#333333" text-anchor="end">15</text>
  <text x="42" y="321.89" font-family="Georgia, Times New Roman, serif" font-size="11" fill="#333333" text-anchor="end">20</text>
  <text x="42" y="264.5" font-family="Georgia, Times New Roman, serif" font-size="11" fill="#333333" text-anchor="end">25</text>
  <text x="42" y="207.11" font-family="Georgia, Times New Roman, serif" font-size="11" fill="#333333" text-anchor="end">30</text>
  <text x="42" y="149.72" font-family="Georgia, Times New Roman, serif" font-size="11" fill="#333333" text-anchor="end">35</text>
  <text x="42" y="92.3302" font-family="Georgia, Times New Roman, serif" font-size="11" fill="#333333" text-anchor="end">40</text>
  <text x="50" y="52" font-family="Georgia, Times New Roman, serif" font-size="22" fill="#333333" text-anchor="start" font-weight="bold">Revenue by Segment</text>
  <text x="355" y="480" font-family="Georgia, Times New Roman, serif" font-size="12" fill="#333333" text-anchor="middle">Month</text>
  <text x="50" y="74" font-family="Georgia, Times New Roman, serif" font-size="12" fill="#333333" text-anchor="start">Revenue ($M)</text>
  <rect x="675" y="80" width="12" height="12" fill="#388EC1" rx="2"/>
  <text x="693" y="90" font-family="Georgia, Times New Roman, serif" font-size="11" fill="#333333" text-anchor="start">SaaS</text>
  <rect x="675" y="102" width="12" height="12" fill="#8C1B2B" rx="2"/>
  <text x="693" y="112" font-family="Georgia, Times New Roman, serif" font-size="11" fill="#333333" text-anchor="start">Hardware</text>
</svg>