<?xml version="1.0" encoding="UTF-8"?>
<svg xmlns="http://www.w3.org/2000/svg" width="800" height="500" viewBox="0 0 800.0 500.0">
  <defs>
    <clipPath id="plot-clip">
      <rect x="77" y="66" width="703" height="367"/>
    </clipPath>
  </defs>
  <rect x="0" y="0" width="800" height="500" fill="#FFFFFF"/>
  <line x1="77" y1="422.613" x2="780" y2="422.613" stroke="#EEEEEE" stroke-width="1"/>
  <line x1="77" y1="364.909" x2="780" y2="364.909" stroke="#EEEEEE" stroke-width="1"/>
  <line x1="77" y1="307.204" x2="780" y2="307.204" stroke="#EEEEEE" stroke-width="1"/>
  <line x1="77" y1="249.5" x2="780" y2="249.5" stroke="#EEEEEE" stroke-width="1"/>
  <line x1="77" y1="191.796" x2="780" y2="191.796" stroke="#EEEEEE" stroke-width="1"/>
  <line x1="77" y1="134.091" x2="780" y2="134.091" stroke="#EEEEEE" stroke-width="1"/>
  <line x1="77" y1="76.3868" x2="780" y2="76.3868" stroke="#EEEEEE" stroke-width="1"/>
  <line x1="77" y1="433" x2="780" y2="433" stroke="#333333" stroke-width="1"/>
  <g clip-path="url(#plot-clip)">
    <rect x="94.575" y="76.3868" width="140.6" height="346.226" fill="#4E79A7"/>
    <rect x="270.325" y="134.091" width="140.6" height="288.522" fill="#4E79A7"/>
    <rect x="446.075" y="214.877" width="140.6" height="207.736" fill="#4E79A7"/>
    <rect x="621.825" y="307.204" width="140.6" height="115.409" fill="#4E79A7"/>
  </g>
  <line x1="164.875" y1="433" x2="164.875" y2="438" stroke="#333333" stroke-width="1"/>
  <text x="164.875" y="451" font-family="Inter, Helvetica Neue, Arial, sans-serif" font-size="10" fill="#333333" text-anchor="middle">Python</text>
  <line x1="340.625" y1="433" x2="340.625" y2="438" stroke="#333333" stroke-width="1"/>
  <text x="340.625" y="451" font-family="Inter, Helvetica Neue, Arial, sans-serif" font-size="10" fill="#333333" text-anchor="middle">JavaScript</text>
  <line x1="516.375" y1="433" x2="516.375" y2="438" stroke="#333333" stroke-width="1"/>
  <text x="516.375" y="451" font-family="Inter, Helvetica Neue, Arial, sans-serif" font-size="10" fill="#333333" text-anchor="middle">TypeScript</text>
  <line x1="692.125" y1="433" x2="692.125" y2="438" stroke="#333333" stroke-width="1"/>
  <text x="692.125" y="451" font-family="Inter, Helvetica Neue, Arial, sans-serif" font-size="10" fill="#333333" text-anchor="middle">Rust</text>
  <line x1="72" y1="422.613" x2="77" y2="422.613" stroke="#333333" stroke-width="1"/>
  <text x="69" y="426.613" font-family="Inter, Helvetica Neue, Arial, sans-serif" font-size="10" fill="#333333" text-anchor="end">0</text>
  <line x1="72" y1="364.909" x2="77" y2="364.909" stroke="#333333" stroke-width="1"/>
  <text x="69" y="368.909" font-family="Inter, Helvetica Neue, Arial, sans-serif" font-size="10" fill="#333333" text-anchor="end">5</text>
  <line x1="72" y1="307.204" x2="77" y2="307.204" stroke="#333333" stroke-width="1"/>
  <text x="69" y="311.204" font-family="Inter, Helvetica Neue, Arial, sans-serif" font-size="10" fill="#333333" text-anchor="end">10</text>
  <line x1="72" y1="249.5" x2="77" y2="249.5" stroke="#333333" stroke-width="1"/>
  <text x="69" y="253.5" font-family="Inter, Helvetica Neue, Arial, sans-serif" font-size="10" fill="#333333" text-anchor="end">15</text>
  <line x1="72" y1="191.796" x2="77" y2="191.796" stroke="#333333" stroke-width="1"/>
  <text x="69" y="195.796" font-family="Inter, Helvetica Neue, Arial, sans-serif" font-size="10" fill="#333333" text-anchor="end">20</text>
  <line x1="72" y1="134.091" x2="77" y2="134.091" stroke="#333333" stroke-width="1"/>
  <text x="69" y="138.091" font-family="Inter, Helvetica Neue, Arial, sans-serif" font-size="10" fill="#333333" text-anchor="end">25</text>
  <line x1="72" y1="76.3868" x2="77" y2="76.3868" stroke="#333333" stroke-width="1"/>
  <text x="69" y="80.3868" font-family="Inter, Helvetica Neue, Arial, sans-serif" font-size="10" fill="#333333" text-anchor="end">30</text>
  <text x="428.5" y="56" font-family="Inter, Helvetica Neue, Arial, sans-serif" font-size="16" fill="#333333" text-anchor="middle">Same Data, Row-Oriented Format</text>
  <text x="428.5" y="475" font-family="Inter, Helvetica Neue, Arial, sans-serif" font-size="12" fill="#333333" text-anchor="middle">Language</text>
  <text x="12" y="249.5" font-family="Inter, Helvetica Neue, Arial, sans-serif" font-size="12" fill="#333333" text-anchor="middle" transform="rotate(-90,12,249.5)">Popularity (%)</text>
</svg>