<?xml version="1.0" encoding="UTF-8"?>
<!-- assembled fresh by botplotlib (a cyborg production) -->
<svg xmlns="http://www.w3.org/2000/svg" width="800" height="500" viewBox="0 0 800.0 500.0">
  <defs>
    <clipPath id="plot-clip">
      <rect x="50" y="78" width="730" height="365"/>
    </clipPath>
  </defs>
  <rect x="0" y="0" width="800" height="500" fill="#F2EDE4"/>
  <line x1="50" y1="432.67" x2="780" y2="432.67" stroke="#D8D2C6" stroke-width="1"/>
  <line x1="50" y1="346.585" x2="780" y2="346.585" stroke="#D8D2C6" stroke-width="1"/>
  <line x1="50" y1="260.5" x2="780" y2="260.5" stroke="#D8D2C6" stroke-width="1"/>
  <line x1="50" y1="174.415" x2="780" y2="174.415" stroke="#D8D2C6" stroke-width="1"/>
  <line x1="50" y1="88.3302" x2="780" y2="88.3302" stroke="#D8D2C6" stroke-width="1"/>
  <line x1="50" y1="443" x2="780" y2="443" stroke="#CCCCCC" stroke-width="1"/>
  <g clip-path="url(#plot-clip)">
    <rect x="68.25" y="269.108" width="146" height="163.561" fill="#388EC1"/>
    <rect x="250.75" y="208.849" width="146" height="223.821" fill="#388EC1"/>
    <rect x="433.25" y="230.37" width="146" height="202.3" fill="#388EC1"/>
    <rect x="615.75" y="170.111" width="146" height="262.559" fill="#388EC1"/>
  </g>
  <line x1="141.25" y1="443" x2="141.25" y2="448" stroke="#CCCCCC" stroke-width="1"/>
  <text x="141.25" y="461" font-family="Georgia, Times New Roman, serif" font-size="11" fill="#333333" text-anchor="middle">Q1</text>
  <line x1="323.75" y1="443" x2="323.75" y2="448" stroke="#CCCCCC" stroke-width="1"/>
  <text x="323.75" y="461" font-family="Georgia, Times New Roman, serif" font-size="11" fill="#333333" text-anchor="middle">Q2</text>
  <line x1="506.25" y1="443" x2="506.25" y2="448" stroke="#CCCCCC" stroke-width="1"/>
  <text x="506.25" y="461" font-family="Georgia, Times New Roman, serif" font-size="11" fill="#333333" text-anchor="middle">Q3</text>
  <line x1="688.75" y1="443" x2="688.75" y2="448" stroke="#CCCCCC" stroke-width="1"/>
  <text x="688.75" y="461" font-family="Georgia, Times New Roman, serif" font-size="11" fill="#333333" text-anchor="middle">Q4</text>
  <text x="42" y="436.67" font-family="Georgia, Times New Roman, serif" font-size="11" fill="#333333" text-anchor="end">0</text>
  <text x="42" y="350.585" font-family="Georgia, Times New Roman, serif" font-size="11" fill="#333333" text-anchor="end">20000</text>
  <text x="42" y="264.5" font-family="Georgia, Times New Roman, serif" font-size="11" fill="#333333" text-anchor="end">40000</text>
  <text x="42" y="178.415" font-family="Georgia, Times New Roman, serif" font-size="11" fill="#333333" text-anchor="end">60000</text>
  <text x="42" y="92.3302" font-family="Georgia, Times New Roman, serif" font-size="11" fill="#333333" text-anchor="end">80000</text>
  <text x="50" y="52" font-family="Georgia, Times New Roman, serif" font-size="22" fill="#333333" text-anchor="start" font-weight="bold">Quarterly Revenue</text>
  <text x="415" y="480" font-family="Georgia, Times New Roman, serif" font-size="12" fill="#333333" text-anchor="middle">quarter</text>
  <text x="50" y="74" font-family="Georgia, Times New Roman, serif" font-size="12" fill="#333333" text-anchor="start">Revenue ($)</text>
  <text x="141.25" y="354.556" font-family="Georgia, Times New Roman, serif" font-size="11" fill="#FFFFFF" text-anchor="middle">$38,000</text>
  <text x="323.75" y="324.426" font-family="Georgia, Times New Roman, serif" font-size="11" fill="#FFFFFF" text-anchor="middle">$52,000</text>
  <text x="506.25" y="335.187" font-family="Georgia, Times New Roman, serif" font-size="11" fill="#FFFFFF" text-anchor="middle">$47,000</text>
  <text x="688.75" y="305.057" font-family="Georgia, Times New Roman, serif" font-size="11" fill="#FFFFFF" text-anchor="middle">$61,000</text>
</svg>