<?xml version="1.0" encoding="UTF-8"?>
<svg xmlns="http://www.w3.org/2000/svg" width="800" height="500" viewBox="0 0 800.0 500.0">
  <defs>
    <clipPath id="plot-clip">
      <rect x="77" y="66" width="703" height="367"/>
    </clipPath>
  </defs>
  <rect x="0" y="0" width="800" height="500" fill="#FFFFFF"/>
  <line x1="77" y1="433" x2="780" y2="433" stroke="#EEEEEE" stroke-width="1"/>
  <line x1="77" y1="371.833" x2="780" y2="371.833" stroke="#EEEEEE" stroke-width="1"/>
  <line x1="77" y1="310.667" x2="780" y2="310.667" stroke="#EEEEEE" stroke-width="1"/>
  <line x1="77" y1="249.5" x2="780" y2="249.5" stroke="#EEEEEE" stroke-width="1"/>
  <line x1="77" y1="188.333" x2="780" y2="188.333" stroke="#EEEEEE" stroke-width="1"/>
  <line x1="77" y1="127.167" x2="780" y2="127.167" stroke="#EEEEEE" stroke-width="1"/>
  <line x1="77" y1="66" x2="780" y2="66" stroke="#EEEEEE" stroke-width="1"/>
  <line x1="77" y1="433" x2="780" y2="433" stroke="#333333" stroke-width="1"/>
  <g clip-path="url(#plot-clip)">
    <rect x="94.575" y="66" width="140.6" height="367" fill="#4E79A7"/>
    <rect x="270.325" y="127.167" width="140.6" height="305.833" fill="#4E79A7"/>
    <rect x="446.075" y="212.8" width="140.6" height="220.2" fill="#4E79A7"/>
    <rect x="621.825" y="310.667" width="140.6" height="122.333" fill="#4E79A7"/>
  </g>
  <line x1="164.875" y1="433" x2="164.875" y2="438" stroke="#333333" stroke-width="1"/>
  <text x="164.875" y="451" font-family="Inter, Helvetica Neue, Arial, sans-serif" font-size="10" fill="#333333" text-anchor="middle">Python</text>
  <line x1="340.625" y1="433" x2="340.625" y2="438" stroke="#333333" stroke-width="1"/>
  <text x="340.625" y="451" font-family="Inter, Helvetica Neue, Arial, sans-serif" font-size="10" fill="#333333" text-anchor="middle">JavaScript</text>
  <line x1="516.375" y1="433" x2="516.375" y2="438" stroke="#333333" stroke-width="1"/>
  <text x="516.375" y="451" font-family="Inter, Helvetica Neue, Arial, sans-serif" font-size="10" fill="#333333" text-anchor="middle">TypeScript</text>
  <line x1="692.125" y1="433" x2="692.125" y2="438" stroke="#333333" stroke-width="1"/>
  <text x="692.125" y="451" font-family="Inter, Helvetica Neue, Arial, sans-serif" font-size="10" fill="#333333" text-anchor="middle">Rust</text>
  <line x1="72" y1="433" x2="77" y2="433" stroke="#333333" stroke-width="1"/>
  <text x="69" y="437" font-family="Inter, Helvetica Neue, Arial, sans-serif" font-size="10" fill="#333333" text-anchor="end">0</text>
  <line x1="72" y1="371.833" x2="77" y2="371.833" stroke="#333333" stroke-width="1"/>
  <text x="69" y="375.833" font-family="Inter, Helvetica Neue, Arial, sans-serif" font-size="10" fill="#333333" text-anchor="end">5</text>
  <line x1="72" y1="310.667" x2="77" y2="310.667" stroke="#333333" stroke-width="1"/>
  <text x="69" y="314.667" font-family="Inter, Helvetica Neue, Arial, sans-serif" font-size="10" fill="#333333" text-anchor="end">10</text>
  <line x1="72" y1="249.5" x2="77" y2="249.5" stroke="#333333" stroke-width="1"/>
  <text x="69" y="253.5" font-family="Inter, Helvetica Neue, Arial, sans-serif" font-size="10" fill="#333333" text-anchor="end">15</text>
  <line x1="72" y1="188.333" x2="77" y2="188.333" stroke="#333333" stroke-width="1"/>
  <text x="69" y="192.333" font-family="Inter, Helvetica Neue, Arial, sans-serif" font-size="10" fill="#333333" text-anchor="end">20</text>
  <line x1="72" y1="127.167" x2="77" y2="127.167" stroke="#333333" stroke-width="1"/>
  <text x="69" y="131.167" font-family="Inter, Helvetica Neue, Arial, sans-serif" font-size="10" fill="#333333" text-anchor="end">25</text>
  <line x1="72" y1="66" x2="77" y2="66" stroke="#333333" stroke-width="1"/>
  <text x="69" y="70" font-family="Inter, Helvetica Neue, Arial, sans-serif" font-size="10" fill="#333333" text-anchor="end">30</text>
  <text x="428.5" y="56" font-family="Inter, Helvetica Neue, Arial, sans-serif" font-size="16" fill="#333333" text-anchor="middle">Same Data, Row-Oriented Format</text>
  <text x="428.5" y="475" font-family="Inter, Helvetica Neue, Arial, sans-serif" font-size="12" fill="#333333" text-anchor="middle">Language</text>
  <text x="12" y="249.5" font-family="Inter, Helvetica Neue, Arial, sans-serif" font-size="12" fill="#333333" text-anchor="middle" transform="rotate(-90,12,249.5)">Popularity (%)</text>
</svg>