<?xml version="1.0" encoding="UTF-8"?>
<svg xmlns="http://www.w3.org/2000/svg" width="800" height="500" viewBox="0 0 800.0 500.0">
  <defs>
    <clipPath id="plot-clip">
      <rect x="77" y="66" width="703" height="367"/>
    </clipPath>
  </defs>
  <rect x="0" y="0" width="800" height="500" fill="#FFFFFF"/>
  <line x1="77" y1="422.613" x2="780" y2="422.613" stroke="#EEEEEE" stroke-width="1"/>
  <line x1="77" y1="336.057" x2="780" y2="336.057" stroke="#EEEEEE" stroke-width="1"/>
  <line x1="77" y1="249.5" x2="780" y2="249.5" stroke="#EEEEEE" stroke-width="1"/>
  <line x1="77" y1="162.943" x2="780" y2="162.943" stroke="#EEEEEE" stroke-width="1"/>
  <line x1="77" y1="76.3868" x2="780" y2="76.3868" stroke="#EEEEEE" stroke-width="1"/>
  <line x1="77" y1="433" x2="780" y2="433" stroke="#333333" stroke-width="1"/>
  <g clip-path="url(#plot-clip)">
    <rect x="94.575" y="258.156" width="140.6" height="164.458" fill="#4E79A7"/>
    <rect x="270.325" y="197.566" width="140.6" height="225.047" fill="#4E79A7"/>
    <rect x="446.075" y="219.205" width="140.6" height="203.408" fill="#4E79A7"/>
    <rect x="621.825" y="158.616" width="140.6" height="263.998" fill="#4E79A7"/>
  </g>
  <line x1="164.875" y1="433" x2="164.875" y2="438" stroke="#333333" stroke-width="1"/>
  <text x="164.875" y="451" font-family="Inter, Helvetica Neue, Arial, sans-serif" font-size="10" fill="#333333" text-anchor="middle">Q1</text>
  <line x1="340.625" y1="433" x2="340.625" y2="438" stroke="#333333" stroke-width="1"/>
  <text x="340.625" y="451" font-family="Inter, Helvetica Neue, Arial, sans-serif" font-size="10" fill="#333333" text-anchor="middle">Q2</text>
  <line x1="516.375" y1="433" x2="516.375" y2="438" stroke="#333333" stroke-width="1"/>
  <text x="516.375" y="451" font-family="Inter, Helvetica Neue, Arial, sans-serif" font-size="10" fill="#333333" text-anchor="middle">Q3</text>
  <line x1="692.125" y1="433" x2="692.125" y2="438" stroke="#333333" stroke-width="1"/>
  <text x="692.125" y="451" font-family="Inter, Helvetica Neue, Arial, sans-serif" font-size="10" fill="#333333" text-anchor="middle">Q4</text>
  <line x1="72" y1="422.613" x2="77" y2="422.613" stroke="#333333" stroke-width="1"/>
  <text x="69" y="426.613" font-family="Inter, Helvetica Neue, Arial, sans-serif" font-size="10" fill="#333333" text-anchor="end">0</text>
  <line x1="72" y1="336.057" x2="77" y2="336.057" stroke="#333333" stroke-width="1"/>
  <text x="69" y="340.057" font-family="Inter, Helvetica Neue, Arial, sans-serif" font-size="10" fill="#333333" text-anchor="end">20000</text>
  <line x1="72" y1="249.5" x2="77" y2="249.5" stroke="#333333" stroke-width="1"/>
  <text x="69" y="253.5" font-family="Inter, Helvetica Neue, Arial, sans-serif" font-size="10" fill="#333333" text-anchor="end">40000</text>
  <line x1="72" y1="162.943" x2="77" y2="162.943" stroke="#333333" stroke-width="1"/>
  <text x="69" y="166.943" font-family="Inter, Helvetica Neue, Arial, sans-serif" font-size="10" fill="#333333" text-anchor="end">60000</text>
  <line x1="72" y1="76.3868" x2="77" y2="76.3868" stroke="#333333" stroke-width="1"/>
  <text x="69" y="80.3868" font-family="Inter, Helvetica Neue, Arial, sans-serif" font-size="10" fill="#333333" text-anchor="end">80000</text>
  <text x="428.5" y="56" font-family="Inter, Helvetica Neue, Arial, sans-serif" font-size="16" fill="#333333" text-anchor="middle">Quarterly Revenue</text>
  <text x="428.5" y="475" font-family="Inter, Helvetica Neue, Arial, sans-serif" font-size="12" fill="#333333" text-anchor="middle">quarter</text>
  <text x="12" y="249.5" font-family="Inter, Helvetica Neue, Arial, sans-serif" font-size="12" fill="#333333" text-anchor="middle" transform="rotate(-90,12,249.5)">Revenue ($)</text>
  <text x="164.875" y="343.718" font-family="Inter, Helvetica Neue, Arial, sans-serif" font-size="10" fill="#FFFFFF" text-anchor="middle">$38,000</text>
  <text x="340.625" y="313.423" font-family="Inter, Helvetica Neue, Arial, sans-serif" font-size="10" fill="#FFFFFF" text-anchor="middle">$52,000</text>
  <text x="516.375" y="324.243" font-family="Inter, Helvetica Neue, Arial, sans-serif" font-size="10" fill="#FFFFFF" text-anchor="middle">$47,000</text>
  <text x="692.125" y="293.948" font-family="Inter, Helvetica Neue, Arial, sans-serif" font-size="10" fill="#FFFFFF" text-anchor="middle">$61,000</text>
</svg>