<?xml version="1.0" encoding="UTF-8"?>
<svg xmlns="http://www.w3.org/2000/svg" width="800" height="500" viewBox="0 0 800.0 500.0">
  <defs>
    <clipPath id="plot-clip">
      <rect x="77" y="66" width="703" height="367"/>
    </clipPath>
  </defs>
  <rect x="0" y="0" width="800" height="500" fill="#FFFFFF"/>
  <line x1="77" y1="422.613" x2="780" y2="422.613" stroke="#EEEEEE" stroke-width="1"/>
  <line x1="77" y1="353.368" x2="780" y2="353.368" stroke="#EEEEEE" stroke-width="1"/>
  <line x1="77" y1="284.123" x2="780" y2="284.123" stroke="#EEEEEE" stroke-width="1"/>
  <line x1="77" y1="214.877" x2="780" y2="214.877" stroke="#EEEEEE" stroke-width="1"/>
  <line x1="77" y1="145.632" x2="780" y2="145.632" stroke="#EEEEEE" stroke-width="1"/>
  <line x1="77" y1="76.3868" x2="780" y2="76.3868" stroke="#EEEEEE" stroke-width="1"/>
  <line x1="77" y1="433" x2="780" y2="433" stroke="#333333" stroke-width="1"/>
  <g clip-path="url(#plot-clip)">
    <circle cx="96.8962" cy="422.613" r="4" fill="#4E79A7"/>
    <circle cx="262.698" cy="284.123" r="4" fill="#4E79A7"/>
    <circle cx="428.5" cy="353.368" r="4" fill="#4E79A7"/>
    <circle cx="594.302" cy="76.3868" r="4" fill="#4E79A7"/>
    <circle cx="760.104" cy="214.877" r="4" fill="#4E79A7"/>
  </g>
  <line x1="96.8962" y1="433" x2="96.8962" y2="438" stroke="#333333" stroke-width="1"/>
  <text x="96.8962" y="451" font-family="Inter, Helvetica Neue, Arial, sans-serif" font-size="10" fill="#333333" text-anchor="middle">1</text>
  <line x1="262.698" y1="433" x2="262.698" y2="438" stroke="#333333" stroke-width="1"/>
  <text x="262.698" y="451" font-family="Inter, Helvetica Neue, Arial, sans-serif" font-size="10" fill="#333333" text-anchor="middle">2</text>
  <line x1="428.5" y1="433" x2="428.5" y2="438" stroke="#333333" stroke-width="1"/>
  <text x="428.5" y="451" font-family="Inter, Helvetica Neue, Arial, sans-serif" font-size="10" fill="#333333" text-anchor="middle">3</text>
  <line x1="594.302" y1="433" x2="594.302" y2="438" stroke="#333333" stroke-width="1"/>
  <text x="594.302" y="451" font-family="Inter, Helvetica Neue, Arial, sans-serif" font-size="10" fill="#333333" text-anchor="middle">4</text>
  <line x1="760.104" y1="433" x2="760.104" y2="438" stroke="#333333" stroke-width="1"/>
  <text x="760.104" y="451" font-family="Inter, Helvetica Neue, Arial, sans-serif" font-size="10" fill="#333333" text-anchor="middle">5</text>
  <line x1="72" y1="422.613" x2="77" y2="422.613" stroke="#333333" stroke-width="1"/>
  <text x="69" y="426.613" font-family="Inter, Helvetica Neue, Arial, sans-serif" font-size="10" fill="#333333" text-anchor="end">2</text>
  <line x1="72" y1="353.368" x2="77" y2="353.368" stroke="#333333" stroke-width="1"/>
  <text x="69" y="357.368" font-family="Inter, Helvetica Neue, Arial, sans-serif" font-size="10" fill="#333333" text-anchor="end">3</text>
  <line x1="72" y1="284.123" x2="77" y2="284.123" stroke="#333333" stroke-width="1"/>
  <text x="69" y="288.123" font-family="Inter, Helvetica Neue, Arial, sans-serif" font-size="10" fill="#333333" text-anchor="end">4</text>
  <line x1="72" y1="214.877" x2="77" y2="214.877" stroke="#333333" stroke-width="1"/>
  <text x="69" y="218.877" font-family="Inter, Helvetica Neue, Arial, sans-serif" font-size="10" fill="#333333" text-anchor="end">5</text>
  <line x1="72" y1="145.632" x2="77" y2="145.632" stroke="#333333" stroke-width="1"/>
  <text x="69" y="149.632" font-family="Inter, Helvetica Neue, Arial, sans-serif" font-size="10" fill="#333333" text-anchor="end">6</text>
  <line x1="72" y1="76.3868" x2="77" y2="76.3868" stroke="#333333" stroke-width="1"/>
  <text x="69" y="80.3868" font-family="Inter, Helvetica Neue, Arial, sans-serif" font-size="10" fill="#333333" text-anchor="end">7</text>
  <text x="428.5" y="56" font-family="Inter, Helvetica Neue, Arial, sans-serif" font-size="16" fill="#333333" text-anchor="middle">Five Points</text>
  <text x="428.5" y="475" font-family="Inter, Helvetica Neue, Arial, sans-serif" font-size="12" fill="#333333" text-anchor="middle">x</text>
  <text x="12" y="249.5" font-family="Inter, Helvetica Neue, Arial, sans-serif" font-size="12" fill="#333333" text-anchor="middle" transform="rotate(-90,12,249.5)">y</text>
</svg>