<?xml version="1.0" encoding="UTF-8"?>
<svg xmlns="http://www.w3.org/2000/svg" width="800" height="500" viewBox="0 0 800.0 500.0">
  <defs>
    <clipPath id="plot-clip">
      <rect x="77" y="66" width="583" height="367"/>
    </clipPath>
  </defs>
  <rect x="0" y="0" width="800" height="500" fill="#FFFFFF"/>
  <line x1="77" y1="433" x2="660" y2="433" stroke="#EEEEEE" stroke-width="1"/>
  <line x1="77" y1="359.6" x2="660" y2="359.6" stroke="#EEEEEE" stroke-width="1"/>
  <line x1="77" y1="286.2" x2="660" y2="286.2" stroke="#EEEEEE" stroke-width="1"/>
  <line x1="77" y1="212.8" x2="660" y2="212.8" stroke="#EEEEEE" stroke-width="1"/>
  <line x1="77" y1="139.4" x2="660" y2="139.4" stroke="#EEEEEE" stroke-width="1"/>
  <line x1="77" y1="66" x2="660" y2="66" stroke="#EEEEEE" stroke-width="1"/>
  <line x1="77" y1="433" x2="660" y2="433" stroke="#333333" stroke-width="1"/>
  <g clip-path="url(#plot-clip)">
    <circle cx="77" cy="66" r="4" fill="#4E79A7"/>
    <circle cx="222.75" cy="139.4" r="4" fill="#C56A00"/>
    <circle cx="368.5" cy="249.5" r="4" fill="#C56A00"/>
    <circle cx="514.25" cy="359.6" r="4" fill="#4E79A7"/>
    <circle cx="660" cy="433" r="4" fill="#E15759"/>
  </g>
  <line x1="77" y1="433" x2="77" y2="438" stroke="#333333" stroke-width="1"/>
  <text x="77" y="451" font-family="Inter, Helvetica Neue, Arial, sans-serif" font-size="10" fill="#333333" text-anchor="middle">2.5</text>
  <line x1="222.75" y1="433" x2="222.75" y2="438" stroke="#333333" stroke-width="1"/>
  <text x="222.75" y="451" font-family="Inter, Helvetica Neue, Arial, sans-serif" font-size="10" fill="#333333" text-anchor="middle">3</text>
  <line x1="368.5" y1="433" x2="368.5" y2="438" stroke="#333333" stroke-width="1"/>
  <text x="368.5" y="451" font-family="Inter, Helvetica Neue, Arial, sans-serif" font-size="10" fill="#333333" text-anchor="middle">3.5</text>
  <line x1="514.25" y1="433" x2="514.25" y2="438" stroke="#333333" stroke-width="1"/>
  <text x="514.25" y="451" font-family="Inter, Helvetica Neue, Arial, sans-serif" font-size="10" fill="#333333" text-anchor="middle">4</text>
  <line x1="660" y1="433" x2="660" y2="438" stroke="#333333" stroke-width="1"/>
  <text x="660" y="451" font-family="Inter, Helvetica Neue, Arial, sans-serif" font-size="10" fill="#333333" text-anchor="middle">4.5</text>
  <line x1="72" y1="433" x2="77" y2="433" stroke="#333333" stroke-width="1"/>
  <text x="69" y="437" font-family="Inter, Helvetica Neue, Arial, sans-serif" font-size="10" fill="#333333" text-anchor="end">20</text>
  <line x1="72" y1="359.6" x2="77" y2="359.6" stroke="#333333" stroke-width="1"/>
  <text x="69" y="363.6" font-family="Inter, Helvetica Neue, Arial, sans-serif" font-size="10" fill="#333333" text-anchor="end">22</text>
  <line x1="72" y1="286.2" x2="77" y2="286.2" stroke="#333333" stroke-width="1"/>
  <text x="69" y="290.2" font-family="Inter, Helvetica Neue, Arial, sans-serif" font-size="10" fill="#333333" text-anchor="end">24</text>
  <line x1="72" y1="212.8" x2="77" y2="212.8" stroke="#333333" stroke-width="1"/>
  <text x="69" y="216.8" font-family="Inter, Helvetica Neue, Arial, sans-serif" font-size="10" fill="#333333" text-anchor="end">26</text>
  <line x1="72" y1="139.4" x2="77" y2="139.4" stroke="#333333" stroke-width="1"/>
  <text x="69" y="143.4" font-family="Inter, Helvetica Neue, Arial, sans-serif" font-size="10" fill="#333333" text-anchor="end">28</text>
  <line x1="72" y1="66" x2="77" y2="66" stroke="#333333" stroke-width="1"/>
  <text x="69" y="70" font-family="Inter, Helvetica Neue, Arial, sans-serif" font-size="10" fill="#333333" text-anchor="end">30</text>
  <text x="368.5" y="56" font-family="Inter, Helvetica Neue, Arial, sans-serif" font-size="16" fill="#333333" text-anchor="middle">Fuel Efficiency by Weight</text>
  <text x="368.5" y="475" font-family="Inter, Helvetica Neue, Arial, sans-serif" font-size="12" fill="#333333" text-anchor="middle">Weight (1000 lbs)</text>
  <text x="12" y="249.5" font-family="Inter, Helvetica Neue, Arial, sans-serif" font-size="12" fill="#333333" text-anchor="middle" transform="rotate(-90,12,249.5)">Miles per Gallon</text>
  <rect x="675" y="68" width="12" height="12" fill="#4E79A7" rx="2"/>
  <text x="693" y="78" font-family="Inter, Helvetica Neue, Arial, sans-serif" font-size="10" fill="#333333" text-anchor="start">US</text>
  <rect x="675" y="90" width="12" height="12" fill="#C56A00" rx="2"/>
  <text x="693" y="100" font-family="Inter, Helvetica Neue, Arial, sans-serif" font-size="10" fill="#333333" text-anchor="start">EU</text>
  <rect x="675" y="112" width="12" height="12" fill="#E15759" rx="2"/>
  <text x="693" y="122" font-family="Inter, Helvetica Neue, Arial, sans-serif" font-size="10" fill="#333333" text-anchor="start">JP</text>
</svg>