<?xml version="1.0" encoding="UTF-8"?>
<svg xmlns="http://www.w3.org/2000/svg" width="800" height="500" viewBox="0 0 800.0 500.0">
  <defs>
    <clipPath id="plot-clip">
      <rect x="77" y="66" width="583" height="367"/>
    </clipPath>
  </defs>
  <rect x="0" y="0" width="800" height="500" fill="#FFFFFF"/>
  <line x1="77" y1="422.613" x2="660" y2="422.613" stroke="#EEEEEE" stroke-width="1"/>
  <line x1="77" y1="353.368" x2="660" y2="353.368" stroke="#EEEEEE" stroke-width="1"/>
  <line x1="77" y1="284.123" x2="660" y2="284.123" stroke="#EEEEEE" stroke-width="1"/>
  <line x1="77" y1="214.877" x2="660" y2="214.877" stroke="#EEEEEE" stroke-width="1"/>
  <line x1="77" y1="145.632" x2="660" y2="145.632" stroke="#EEEEEE" stroke-width="1"/>
  <line x1="77" y1="76.3868" x2="660" y2="76.3868" stroke="#EEEEEE" stroke-width="1"/>
  <line x1="77" y1="433" x2="660" y2="433" stroke="#333333" stroke-width="1"/>
  <g clip-path="url(#plot-clip)">
    <circle cx="93.5" cy="76.3868" r="4" fill="#4E79A7"/>
    <circle cx="231" cy="145.632" r="4" fill="#C56A00"/>
    <circle cx="368.5" cy="249.5" r="4" fill="#C56A00"/>
    <circle cx="506" cy="353.368" r="4" fill="#4E79A7"/>
    <circle cx="643.5" cy="422.613" r="4" fill="#E15759"/>
  </g>
  <line x1="93.5" y1="433" x2="93.5" y2="438" stroke="#333333" stroke-width="1"/>
  <text x="93.5" y="451" font-family="Inter, Helvetica Neue, Arial, sans-serif" font-size="10" fill="#333333" text-anchor="middle">2.5</text>
  <line x1="231" y1="433" x2="231" y2="438" stroke="#333333" stroke-width="1"/>
  <text x="231" y="451" font-family="Inter, Helvetica Neue, Arial, sans-serif" font-size="10" fill="#333333" text-anchor="middle">3</text>
  <line x1="368.5" y1="433" x2="368.5" y2="438" stroke="#333333" stroke-width="1"/>
  <text x="368.5" y="451" font-family="Inter, Helvetica Neue, Arial, sans-serif" font-size="10" fill="#333333" text-anchor="middle">3.5</text>
  <line x1="506" y1="433" x2="506" y2="438" stroke="#333333" stroke-width="1"/>
  <text x="506" y="451" font-family="Inter, Helvetica Neue, Arial, sans-serif" font-size="10" fill="#333333" text-anchor="middle">4</text>
  <line x1="643.5" y1="433" x2="643.5" y2="438" stroke="#333333" stroke-width="1"/>
  <text x="643.5" y="451" font-family="Inter, Helvetica Neue, Arial, sans-serif" font-size="10" fill="#333333" text-anchor="middle">4.5</text>
  <line x1="72" y1="422.613" x2="77" y2="422.613" stroke="#333333" stroke-width="1"/>
  <text x="69" y="426.613" font-family="Inter, Helvetica Neue, Arial, sans-serif" font-size="10" fill="#333333" text-anchor="end">20</text>
  <line x1="72" y1="353.368" x2="77" y2="353.368" stroke="#333333" stroke-width="1"/>
  <text x="69" y="357.368" font-family="Inter, Helvetica Neue, Arial, sans-serif" font-size="10" fill="#333333" text-anchor="end">22</text>
  <line x1="72" y1="284.123" x2="77" y2="284.123" stroke="#333333" stroke-width="1"/>
  <text x="69" y="288.123" font-family="Inter, Helvetica Neue, Arial, sans-serif" font-size="10" fill="#333333" text-anchor="end">24</text>
  <line x1="72" y1="214.877" x2="77" y2="214.877" stroke="#333333" stroke-width="1"/>
  <text x="69" y="218.877" font-family="Inter, Helvetica Neue, Arial, sans-serif" font-size="10" fill="#333333" text-anchor="end">26</text>
  <line x1="72" y1="145.632" x2="77" y2="145.632" stroke="#333333" stroke-width="1"/>
  <text x="69" y="149.632" font-family="Inter, Helvetica Neue, Arial, sans-serif" font-size="10" fill="#333333" text-anchor="end">28</text>
  <line x1="72" y1="76.3868" x2="77" y2="76.3868" stroke="#333333" stroke-width="1"/>
  <text x="69" y="80.3868" font-family="Inter, Helvetica Neue, Arial, sans-serif" font-size="10" fill="#333333" text-anchor="end">30</text>
  <text x="368.5" y="56" font-family="Inter, Helvetica Neue, Arial, sans-serif" font-size="16" fill="#333333" text-anchor="middle">Fuel Efficiency by Weight</text>
  <text x="368.5" y="475" font-family="Inter, Helvetica Neue, Arial, sans-serif" font-size="12" fill="#333333" text-anchor="middle">Weight (1000 lbs)</text>
  <text x="12" y="249.5" font-family="Inter, Helvetica Neue, Arial, sans-serif" font-size="12" fill="#333333" text-anchor="middle" transform="rotate(-90,12,249.5)">Miles per Gallon</text>
  <rect x="675" y="68" width="12" height="12" fill="#4E79A7" rx="2"/>
  <text x="693" y="78" font-family="Inter, Helvetica Neue, Arial, sans-serif" font-size="10" fill="#333333" text-anchor="start">US</text>
  <rect x="675" y="90" width="12" height="12" fill="#C56A00" rx="2"/>
  <text x="693" y="100" font-family="Inter, Helvetica Neue, Arial, sans-serif" font-size="10" fill="#333333" text-anchor="start">EU</text>
  <rect x="675" y="112" width="12" height="12" fill="#E15759" rx="2"/>
  <text x="693" y="122" font-family="Inter, Helvetica Neue, Arial, sans-serif" font-size="10" fill="#333333" text-anchor="start">JP</text>
</svg>