<?xml version="1.0" encoding="UTF-8"?>
<svg xmlns="http://www.w3.org/2000/svg" width="800" height="500" viewBox="0 0 800 500">
  <defs>
    <clipPath id="plot-clip">
      <rect x="60" y="68" width="720" height="382"/>
    </clipPath>
  </defs>
  <rect x="0" y="0" width="800" height="500" fill="#FFFFFF"/>
  <line x1="60" y1="450" x2="780" y2="450" stroke="#EEEEEE" stroke-width="1"/>
  <line x1="60" y1="386.333" x2="780" y2="386.333" stroke="#EEEEEE" stroke-width="1"/>
  <line x1="60" y1="322.667" x2="780" y2="322.667" stroke="#EEEEEE" stroke-width="1"/>
  <line x1="60" y1="259" x2="780" y2="259" stroke="#EEEEEE" stroke-width="1"/>
  <line x1="60" y1="195.333" x2="780" y2="195.333" stroke="#EEEEEE" stroke-width="1"/>
  <line x1="60" y1="131.667" x2="780" y2="131.667" stroke="#EEEEEE" stroke-width="1"/>
  <line x1="60" y1="68" x2="780" y2="68" stroke="#EEEEEE" stroke-width="1"/>
  <line x1="60" y1="450" x2="780" y2="450" stroke="#333333" stroke-width="1"/>
  <g clip-path="url(#plot-clip)">
    <polyline points="60,373.6 240,399.067 420,316.3 600,239.9 780,118.933" fill="none" stroke="#4E79A7" stroke-width="2.5" stroke-linejoin="round" stroke-linecap="round"/>
  </g>
  <line x1="60" y1="450" x2="60" y2="455" stroke="#333333" stroke-width="1"/>
  <text x="60" y="468" font-family="Inter, Helvetica Neue, Arial, sans-serif" font-size="11" fill="#333333" text-anchor="middle">2020</text>
  <line x1="240" y1="450" x2="240" y2="455" stroke="#333333" stroke-width="1"/>
  <text x="240" y="468" font-family="Inter, Helvetica Neue, Arial, sans-serif" font-size="11" fill="#333333" text-anchor="middle">2021</text>
  <line x1="420" y1="450" x2="420" y2="455" stroke="#333333" stroke-width="1"/>
  <text x="420" y="468" font-family="Inter, Helvetica Neue, Arial, sans-serif" font-size="11" fill="#333333" text-anchor="middle">2022</text>
  <line x1="600" y1="450" x2="600" y2="455" stroke="#333333" stroke-width="1"/>
  <text x="600" y="468" font-family="Inter, Helvetica Neue, Arial, sans-serif" font-size="11" fill="#333333" text-anchor="middle">2023</text>
  <line x1="780" y1="450" x2="780" y2="455" stroke="#333333" stroke-width="1"/>
  <text x="780" y="468" font-family="Inter, Helvetica Neue, Arial, sans-serif" font-size="11" fill="#333333" text-anchor="middle">2024</text>
  <line x1="55" y1="450" x2="60" y2="450" stroke="#333333" stroke-width="1"/>
  <text x="52" y="454" font-family="Inter, Helvetica Neue, Arial, sans-serif" font-size="11" fill="#333333" text-anchor="end">3</text>
  <line x1="55" y1="386.333" x2="60" y2="386.333" stroke="#333333" stroke-width="1"/>
  <text x="52" y="390.333" font-family="Inter, Helvetica Neue, Arial, sans-serif" font-size="11" fill="#333333" text-anchor="end">4</text>
  <line x1="55" y1="322.667" x2="60" y2="322.667" stroke="#333333" stroke-width="1"/>
  <text x="52" y="326.667" font-family="Inter, Helvetica Neue, Arial, sans-serif" font-size="11" fill="#333333" text-anchor="end">5</text>
  <line x1="55" y1="259" x2="60" y2="259" stroke="#333333" stroke-width="1"/>
  <text x="52" y="263" font-family="Inter, Helvetica Neue, Arial, sans-serif" font-size="11" fill="#333333" text-anchor="end">6</text>
  <line x1="55" y1="195.333" x2="60" y2="195.333" stroke="#333333" stroke-width="1"/>
  <text x="52" y="199.333" font-family="Inter, Helvetica Neue, Arial, sans-serif" font-size="11" fill="#333333" text-anchor="end">7</text>
  <line x1="55" y1="131.667" x2="60" y2="131.667" stroke="#333333" stroke-width="1"/>
  <text x="52" y="135.667" font-family="Inter, Helvetica Neue, Arial, sans-serif" font-size="11" fill="#333333" text-anchor="end">8</text>
  <line x1="55" y1="68" x2="60" y2="68" stroke="#333333" stroke-width="1"/>
  <text x="52" y="72" font-family="Inter, Helvetica Neue, Arial, sans-serif" font-size="11" fill="#333333" text-anchor="end">9</text>
  <text x="420" y="58" font-family="Inter, Helvetica Neue, Arial, sans-serif" font-size="18" fill="#333333" text-anchor="middle">Revenue Growth</text>
</svg>