<?xml version="1.0" encoding="UTF-8"?>
<svg xmlns="http://www.w3.org/2000/svg" width="800" height="500" viewBox="0 0 800 500">
  <defs>
    <clipPath id="plot-clip">
      <rect x="60" y="80" width="720" height="360"/>
    </clipPath>
  </defs>
  <rect x="0" y="0" width="800" height="500" fill="#FFFFFF"/>
  <line x1="60" y1="440" x2="780" y2="440" stroke="#EEEEEE" stroke-width="1"/>
  <line x1="60" y1="368" x2="780" y2="368" stroke="#EEEEEE" stroke-width="1"/>
  <line x1="60" y1="296" x2="780" y2="296" stroke="#EEEEEE" stroke-width="1"/>
  <line x1="60" y1="224" x2="780" y2="224" stroke="#EEEEEE" stroke-width="1"/>
  <line x1="60" y1="152" x2="780" y2="152" stroke="#EEEEEE" stroke-width="1"/>
  <line x1="60" y1="80" x2="780" y2="80" stroke="#EEEEEE" stroke-width="1"/>
  <line x1="60" y1="440" x2="780" y2="440" stroke="#333333" stroke-width="1"/>
  <g clip-path="url(#plot-clip)">
    <polyline points="60,404 420,296 780,116" fill="none" stroke="#4E79A7" stroke-width="2.5" stroke-linejoin="round" stroke-linecap="round"/>
  </g>
  <line x1="60" y1="440" x2="60" y2="445" stroke="#333333" stroke-width="1"/>
  <text x="60" y="458" font-family="Inter, Helvetica Neue, Arial, sans-serif" font-size="12" fill="#333333" text-anchor="middle">1</text>
  <line x1="240" y1="440" x2="240" y2="445" stroke="#333333" stroke-width="1"/>
  <text x="240" y="458" font-family="Inter, Helvetica Neue, Arial, sans-serif" font-size="12" fill="#333333" text-anchor="middle">1.5</text>
  <line x1="420" y1="440" x2="420" y2="445" stroke="#333333" stroke-width="1"/>
  <text x="420" y="458" font-family="Inter, Helvetica Neue, Arial, sans-serif" font-size="12" fill="#333333" text-anchor="middle">2</text>
  <line x1="600" y1="440" x2="600" y2="445" stroke="#333333" stroke-width="1"/>
  <text x="600" y="458" font-family="Inter, Helvetica Neue, Arial, sans-serif" font-size="12" fill="#333333" text-anchor="middle">2.5</text>
  <line x1="780" y1="440" x2="780" y2="445" stroke="#333333" stroke-width="1"/>
  <text x="780" y="458" font-family="Inter, Helvetica Neue, Arial, sans-serif" font-size="12" fill="#333333" text-anchor="middle">3</text>
  <line x1="55" y1="440" x2="60" y2="440" stroke="#333333" stroke-width="1"/>
  <text x="52" y="444" font-family="Inter, Helvetica Neue, Arial, sans-serif" font-size="12" fill="#333333" text-anchor="end">0</text>
  <line x1="55" y1="368" x2="60" y2="368" stroke="#333333" stroke-width="1"/>
  <text x="52" y="372" font-family="Inter, Helvetica Neue, Arial, sans-serif" font-size="12" fill="#333333" text-anchor="end">2</text>
  <line x1="55" y1="296" x2="60" y2="296" stroke="#333333" stroke-width="1"/>
  <text x="52" y="300" font-family="Inter, Helvetica Neue, Arial, sans-serif" font-size="12" fill="#333333" text-anchor="end">4</text>
  <line x1="55" y1="224" x2="60" y2="224" stroke="#333333" stroke-width="1"/>
  <text x="52" y="228" font-family="Inter, Helvetica Neue, Arial, sans-serif" font-size="12" fill="#333333" text-anchor="end">6</text>
  <line x1="55" y1="152" x2="60" y2="152" stroke="#333333" stroke-width="1"/>
  <text x="52" y="156" font-family="Inter, Helvetica Neue, Arial, sans-serif" font-size="12" fill="#333333" text-anchor="end">8</text>
  <line x1="55" y1="80" x2="60" y2="80" stroke="#333333" stroke-width="1"/>
  <text x="52" y="84" font-family="Inter, Helvetica Neue, Arial, sans-serif" font-size="12" fill="#333333" text-anchor="end">10</text>
  <text x="420" y="70" font-family="Inter, Helvetica Neue, Arial, sans-serif" font-size="20" fill="#333333" text-anchor="middle">Squares</text>
</svg>