<?xml version="1.0" encoding="UTF-8"?>
<svg xmlns="http://www.w3.org/2000/svg" width="800" height="500" viewBox="0 0 800 500">
  <defs>
    <clipPath id="plot-clip">
      <rect x="60" y="80" width="720" height="360"/>
    </clipPath>
  </defs>
  <rect x="0" y="0" width="800" height="500" fill="#FFFFFF"/>
  <line x1="60" y1="429.811" x2="780" y2="429.811" stroke="#EEEEEE" stroke-width="1"/>
  <line x1="60" y1="361.887" x2="780" y2="361.887" stroke="#EEEEEE" stroke-width="1"/>
  <line x1="60" y1="293.962" x2="780" y2="293.962" stroke="#EEEEEE" stroke-width="1"/>
  <line x1="60" y1="226.038" x2="780" y2="226.038" stroke="#EEEEEE" stroke-width="1"/>
  <line x1="60" y1="158.113" x2="780" y2="158.113" stroke="#EEEEEE" stroke-width="1"/>
  <line x1="60" y1="90.1887" x2="780" y2="90.1887" stroke="#EEEEEE" stroke-width="1"/>
  <line x1="60" y1="440" x2="780" y2="440" stroke="#333333" stroke-width="1"/>
  <g clip-path="url(#plot-clip)">
    <polyline points="80.3774,395.849 420,293.962 759.623,124.151" fill="none" stroke="#4E79A7" stroke-width="2.5" stroke-linejoin="round" stroke-linecap="round"/>
  </g>
  <line x1="80.3774" y1="440" x2="80.3774" y2="445" stroke="#333333" stroke-width="1"/>
  <text x="80.3774" y="458" font-family="Inter, Helvetica Neue, Arial, sans-serif" font-size="12" fill="#333333" text-anchor="middle">1</text>
  <line x1="250.189" y1="440" x2="250.189" y2="445" stroke="#333333" stroke-width="1"/>
  <text x="250.189" y="458" font-family="Inter, Helvetica Neue, Arial, sans-serif" font-size="12" fill="#333333" text-anchor="middle">1.5</text>
  <line x1="420" y1="440" x2="420" y2="445" stroke="#333333" stroke-width="1"/>
  <text x="420" y="458" font-family="Inter, Helvetica Neue, Arial, sans-serif" font-size="12" fill="#333333" text-anchor="middle">2</text>
  <line x1="589.811" y1="440" x2="589.811" y2="445" stroke="#333333" stroke-width="1"/>
  <text x="589.811" y="458" font-family="Inter, Helvetica Neue, Arial, sans-serif" font-size="12" fill="#333333" text-anchor="middle">2.5</text>
  <line x1="759.623" y1="440" x2="759.623" y2="445" stroke="#333333" stroke-width="1"/>
  <text x="759.623" y="458" font-family="Inter, Helvetica Neue, Arial, sans-serif" font-size="12" fill="#333333" text-anchor="middle">3</text>
  <line x1="55" y1="429.811" x2="60" y2="429.811" stroke="#333333" stroke-width="1"/>
  <text x="52" y="433.811" font-family="Inter, Helvetica Neue, Arial, sans-serif" font-size="12" fill="#333333" text-anchor="end">0</text>
  <line x1="55" y1="361.887" x2="60" y2="361.887" stroke="#333333" stroke-width="1"/>
  <text x="52" y="365.887" font-family="Inter, Helvetica Neue, Arial, sans-serif" font-size="12" fill="#333333" text-anchor="end">2</text>
  <line x1="55" y1="293.962" x2="60" y2="293.962" stroke="#333333" stroke-width="1"/>
  <text x="52" y="297.962" font-family="Inter, Helvetica Neue, Arial, sans-serif" font-size="12" fill="#333333" text-anchor="end">4</text>
  <line x1="55" y1="226.038" x2="60" y2="226.038" stroke="#333333" stroke-width="1"/>
  <text x="52" y="230.038" font-family="Inter, Helvetica Neue, Arial, sans-serif" font-size="12" fill="#333333" text-anchor="end">6</text>
  <line x1="55" y1="158.113" x2="60" y2="158.113" stroke="#333333" stroke-width="1"/>
  <text x="52" y="162.113" font-family="Inter, Helvetica Neue, Arial, sans-serif" font-size="12" fill="#333333" text-anchor="end">8</text>
  <line x1="55" y1="90.1887" x2="60" y2="90.1887" stroke="#333333" stroke-width="1"/>
  <text x="52" y="94.1887" font-family="Inter, Helvetica Neue, Arial, sans-serif" font-size="12" fill="#333333" text-anchor="end">10</text>
  <text x="420" y="70" font-family="Inter, Helvetica Neue, Arial, sans-serif" font-size="20" fill="#333333" text-anchor="middle">Squares</text>
</svg>