<?xml version="1.0" encoding="UTF-8"?>
<!-- assembled fresh by botplotlib (a cyborg production) -->
<svg xmlns="http://www.w3.org/2000/svg" width="800" height="500" viewBox="0 0 800 500">
  <defs>
    <clipPath id="plot-clip">
      <rect x="55" y="89" width="720" height="356"/>
    </clipPath>
  </defs>
  <rect x="0" y="0" width="800" height="500" fill="#FFFFFF"/>
  <line x1="55" y1="434.925" x2="775" y2="434.925" stroke="#EEEEEE" stroke-width="1"/>
  <line x1="55" y1="367.755" x2="775" y2="367.755" stroke="#EEEEEE" stroke-width="1"/>
  <line x1="55" y1="300.585" x2="775" y2="300.585" stroke="#EEEEEE" stroke-width="1"/>
  <line x1="55" y1="233.415" x2="775" y2="233.415" stroke="#EEEEEE" stroke-width="1"/>
  <line x1="55" y1="166.245" x2="775" y2="166.245" stroke="#EEEEEE" stroke-width="1"/>
  <line x1="55" y1="99.0755" x2="775" y2="99.0755" stroke="#EEEEEE" stroke-width="1"/>
  <line x1="55" y1="445" x2="775" y2="445" stroke="#CCCCCC" stroke-width="1"/>
  <g clip-path="url(#plot-clip)">
    <polyline points="75.3774,401.34 415,300.585 754.623,132.66" fill="none" stroke="#4E79A7" stroke-width="3" stroke-linejoin="round" stroke-linecap="round"/>
  </g>
  <line x1="75.3774" y1="445" x2="75.3774" y2="450" stroke="#CCCCCC" stroke-width="1"/>
  <text x="75.3774" y="463" font-family="Inter, Helvetica Neue, Arial, sans-serif" font-size="13" fill="#222222" text-anchor="middle">1</text>
  <line x1="245.189" y1="445" x2="245.189" y2="450" stroke="#CCCCCC" stroke-width="1"/>
  <text x="245.189" y="463" font-family="Inter, Helvetica Neue, Arial, sans-serif" font-size="13" fill="#222222" text-anchor="middle">1.5</text>
  <line x1="415" y1="445" x2="415" y2="450" stroke="#CCCCCC" stroke-width="1"/>
  <text x="415" y="463" font-family="Inter, Helvetica Neue, Arial, sans-serif" font-size="13" fill="#222222" text-anchor="middle">2</text>
  <line x1="584.811" y1="445" x2="584.811" y2="450" stroke="#CCCCCC" stroke-width="1"/>
  <text x="584.811" y="463" font-family="Inter, Helvetica Neue, Arial, sans-serif" font-size="13" fill="#222222" text-anchor="middle">2.5</text>
  <line x1="754.623" y1="445" x2="754.623" y2="450" stroke="#CCCCCC" stroke-width="1"/>
  <text x="754.623" y="463" font-family="Inter, Helvetica Neue, Arial, sans-serif" font-size="13" fill="#222222" text-anchor="middle">3</text>
  <line x1="50" y1="434.925" x2="55" y2="434.925" stroke="#CCCCCC" stroke-width="1"/>
  <text x="47" y="438.925" font-family="Inter, Helvetica Neue, Arial, sans-serif" font-size="13" fill="#222222" text-anchor="end">0</text>
  <line x1="50" y1="367.755" x2="55" y2="367.755" stroke="#CCCCCC" stroke-width="1"/>
  <text x="47" y="371.755" font-family="Inter, Helvetica Neue, Arial, sans-serif" font-size="13" fill="#222222" text-anchor="end">2</text>
  <line x1="50" y1="300.585" x2="55" y2="300.585" stroke="#CCCCCC" stroke-width="1"/>
  <text x="47" y="304.585" font-family="Inter, Helvetica Neue, Arial, sans-serif" font-size="13" fill="#222222" text-anchor="end">4</text>
  <line x1="50" y1="233.415" x2="55" y2="233.415" stroke="#CCCCCC" stroke-width="1"/>
  <text x="47" y="237.415" font-family="Inter, Helvetica Neue, Arial, sans-serif" font-size="13" fill="#222222" text-anchor="end">6</text>
  <line x1="50" y1="166.245" x2="55" y2="166.245" stroke="#CCCCCC" stroke-width="1"/>
  <text x="47" y="170.245" font-family="Inter, Helvetica Neue, Arial, sans-serif" font-size="13" fill="#222222" text-anchor="end">8</text>
  <line x1="50" y1="99.0755" x2="55" y2="99.0755" stroke="#CCCCCC" stroke-width="1"/>
  <text x="47" y="103.075" font-family="Inter, Helvetica Neue, Arial, sans-serif" font-size="13" fill="#222222" text-anchor="end">10</text>
  <text x="55" y="79" font-family="Inter, Helvetica Neue, Arial, sans-serif" font-size="24" fill="#222222" text-anchor="start" font-weight="bold">Squares</text>
</svg>