<?xml version="1.0" encoding="UTF-8"?>
<svg xmlns="http://www.w3.org/2000/svg" width="800" height="500" viewBox="0 0 800 500">
  <defs>
    <clipPath id="plot-clip">
      <rect x="60" y="68" width="720" height="382"/>
    </clipPath>
  </defs>
  <rect x="0" y="0" width="800" height="500" fill="#FFFFFF"/>
  <line x1="60" y1="439.189" x2="780" y2="439.189" stroke="#EEEEEE" stroke-width="1"/>
  <line x1="60" y1="379.126" x2="780" y2="379.126" stroke="#EEEEEE" stroke-width="1"/>
  <line x1="60" y1="319.063" x2="780" y2="319.063" stroke="#EEEEEE" stroke-width="1"/>
  <line x1="60" y1="259" x2="780" y2="259" stroke="#EEEEEE" stroke-width="1"/>
  <line x1="60" y1="198.937" x2="780" y2="198.937" stroke="#EEEEEE" stroke-width="1"/>
  <line x1="60" y1="138.874" x2="780" y2="138.874" stroke="#EEEEEE" stroke-width="1"/>
  <line x1="60" y1="78.8113" x2="780" y2="78.8113" stroke="#EEEEEE" stroke-width="1"/>
  <line x1="60" y1="450" x2="780" y2="450" stroke="#333333" stroke-width="1"/>
  <g clip-path="url(#plot-clip)">
    <polyline points="80.3774,367.113 250.189,391.138 420,313.057 589.811,240.981 759.623,126.862" fill="none" stroke="#4E79A7" stroke-width="2.5" stroke-linejoin="round" stroke-linecap="round"/>
  </g>
  <line x1="80.3774" y1="450" x2="80.3774" y2="455" stroke="#333333" stroke-width="1"/>
  <text x="80.3774" y="468" font-family="Inter, Helvetica Neue, Arial, sans-serif" font-size="11" fill="#333333" text-anchor="middle">2020</text>
  <line x1="250.189" y1="450" x2="250.189" y2="455" stroke="#333333" stroke-width="1"/>
  <text x="250.189" y="468" font-family="Inter, Helvetica Neue, Arial, sans-serif" font-size="11" fill="#333333" text-anchor="middle">2021</text>
  <line x1="420" y1="450" x2="420" y2="455" stroke="#333333" stroke-width="1"/>
  <text x="420" y="468" font-family="Inter, Helvetica Neue, Arial, sans-serif" font-size="11" fill="#333333" text-anchor="middle">2022</text>
  <line x1="589.811" y1="450" x2="589.811" y2="455" stroke="#333333" stroke-width="1"/>
  <text x="589.811" y="468" font-family="Inter, Helvetica Neue, Arial, sans-serif" font-size="11" fill="#333333" text-anchor="middle">2023</text>
  <line x1="759.623" y1="450" x2="759.623" y2="455" stroke="#333333" stroke-width="1"/>
  <text x="759.623" y="468" font-family="Inter, Helvetica Neue, Arial, sans-serif" font-size="11" fill="#333333" text-anchor="middle">2024</text>
  <line x1="55" y1="439.189" x2="60" y2="439.189" stroke="#333333" stroke-width="1"/>
  <text x="52" y="443.189" font-family="Inter, Helvetica Neue, Arial, sans-serif" font-size="11" fill="#333333" text-anchor="end">3</text>
  <line x1="55" y1="379.126" x2="60" y2="379.126" stroke="#333333" stroke-width="1"/>
  <text x="52" y="383.126" font-family="Inter, Helvetica Neue, Arial, sans-serif" font-size="11" fill="#333333" text-anchor="end">4</text>
  <line x1="55" y1="319.063" x2="60" y2="319.063" stroke="#333333" stroke-width="1"/>
  <text x="52" y="323.063" font-family="Inter, Helvetica Neue, Arial, sans-serif" font-size="11" fill="#333333" text-anchor="end">5</text>
  <line x1="55" y1="259" x2="60" y2="259" stroke="#333333" stroke-width="1"/>
  <text x="52" y="263" font-family="Inter, Helvetica Neue, Arial, sans-serif" font-size="11" fill="#333333" text-anchor="end">6</text>
  <line x1="55" y1="198.937" x2="60" y2="198.937" stroke="#333333" stroke-width="1"/>
  <text x="52" y="202.937" font-family="Inter, Helvetica Neue, Arial, sans-serif" font-size="11" fill="#333333" text-anchor="end">7</text>
  <line x1="55" y1="138.874" x2="60" y2="138.874" stroke="#333333" stroke-width="1"/>
  <text x="52" y="142.874" font-family="Inter, Helvetica Neue, Arial, sans-serif" font-size="11" fill="#333333" text-anchor="end">8</text>
  <line x1="55" y1="78.8113" x2="60" y2="78.8113" stroke="#333333" stroke-width="1"/>
  <text x="52" y="82.8113" font-family="Inter, Helvetica Neue, Arial, sans-serif" font-size="11" fill="#333333" text-anchor="end">9</text>
  <text x="420" y="58" font-family="Inter, Helvetica Neue, Arial, sans-serif" font-size="18" fill="#333333" text-anchor="middle">Revenue Growth</text>
</svg>