<?xml version="1.0" encoding="UTF-8"?>
<!-- assembled fresh by botplotlib (a cyborg production) -->
<svg xmlns="http://www.w3.org/2000/svg" width="800" height="500" viewBox="0 0 800 500">
  <defs>
    <clipPath id="plot-clip">
      <rect x="79.4" y="66" width="700.6" height="367"/>
    </clipPath>
  </defs>
  <rect x="0" y="0" width="800" height="500" fill="#FFFFFF"/>
  <line x1="79.4" y1="422.613" x2="780" y2="422.613" stroke="#EEEEEE" stroke-width="1"/>
  <line x1="79.4" y1="353.368" x2="780" y2="353.368" stroke="#EEEEEE" stroke-width="1"/>
  <line x1="79.4" y1="284.123" x2="780" y2="284.123" stroke="#EEEEEE" stroke-width="1"/>
  <line x1="79.4" y1="214.877" x2="780" y2="214.877" stroke="#EEEEEE" stroke-width="1"/>
  <line x1="79.4" y1="145.632" x2="780" y2="145.632" stroke="#EEEEEE" stroke-width="1"/>
  <line x1="79.4" y1="76.3868" x2="780" y2="76.3868" stroke="#EEEEEE" stroke-width="1"/>
  <line x1="79.4" y1="433" x2="780" y2="433" stroke="#333333" stroke-width="1"/>
  <g clip-path="url(#plot-clip)">
    <circle cx="99.2283" cy="408.764" r="4" fill="#4E79A7"/>
    <circle cx="264.464" cy="367.217" r="4" fill="#4E79A7"/>
    <circle cx="429.7" cy="297.972" r="4" fill="#4E79A7"/>
    <circle cx="594.936" cy="201.028" r="4" fill="#4E79A7"/>
    <circle cx="760.172" cy="76.3868" r="4" fill="#4E79A7"/>
  </g>
  <line x1="99.2283" y1="433" x2="99.2283" y2="438" stroke="#333333" stroke-width="1"/>
  <text x="99.2283" y="451" font-family="Inter, Helvetica Neue, Arial, sans-serif" font-size="10" fill="#333333" text-anchor="middle">1</text>
  <line x1="264.464" y1="433" x2="264.464" y2="438" stroke="#333333" stroke-width="1"/>
  <text x="264.464" y="451" font-family="Inter, Helvetica Neue, Arial, sans-serif" font-size="10" fill="#333333" text-anchor="middle">2</text>
  <line x1="429.7" y1="433" x2="429.7" y2="438" stroke="#333333" stroke-width="1"/>
  <text x="429.7" y="451" font-family="Inter, Helvetica Neue, Arial, sans-serif" font-size="10" fill="#333333" text-anchor="middle">3</text>
  <line x1="594.936" y1="433" x2="594.936" y2="438" stroke="#333333" stroke-width="1"/>
  <text x="594.936" y="451" font-family="Inter, Helvetica Neue, Arial, sans-serif" font-size="10" fill="#333333" text-anchor="middle">4</text>
  <line x1="760.172" y1="433" x2="760.172" y2="438" stroke="#333333" stroke-width="1"/>
  <text x="760.172" y="451" font-family="Inter, Helvetica Neue, Arial, sans-serif" font-size="10" fill="#333333" text-anchor="middle">5</text>
  <line x1="74.4" y1="422.613" x2="79.4" y2="422.613" stroke="#333333" stroke-width="1"/>
  <text x="71.4" y="426.613" font-family="Inter, Helvetica Neue, Arial, sans-serif" font-size="10" fill="#333333" text-anchor="end">0</text>
  <line x1="74.4" y1="353.368" x2="79.4" y2="353.368" stroke="#333333" stroke-width="1"/>
  <text x="71.4" y="357.368" font-family="Inter, Helvetica Neue, Arial, sans-serif" font-size="10" fill="#333333" text-anchor="end">5</text>
  <line x1="74.4" y1="284.123" x2="79.4" y2="284.123" stroke="#333333" stroke-width="1"/>
  <text x="71.4" y="288.123" font-family="Inter, Helvetica Neue, Arial, sans-serif" font-size="10" fill="#333333" text-anchor="end">10</text>
  <line x1="74.4" y1="214.877" x2="79.4" y2="214.877" stroke="#333333" stroke-width="1"/>
  <text x="71.4" y="218.877" font-family="Inter, Helvetica Neue, Arial, sans-serif" font-size="10" fill="#333333" text-anchor="end">15</text>
  <line x1="74.4" y1="145.632" x2="79.4" y2="145.632" stroke="#333333" stroke-width="1"/>
  <text x="71.4" y="149.632" font-family="Inter, Helvetica Neue, Arial, sans-serif" font-size="10" fill="#333333" text-anchor="end">20</text>
  <line x1="74.4" y1="76.3868" x2="79.4" y2="76.3868" stroke="#333333" stroke-width="1"/>
  <text x="71.4" y="80.3868" font-family="Inter, Helvetica Neue, Arial, sans-serif" font-size="10" fill="#333333" text-anchor="end">25</text>
  <text x="429.7" y="56" font-family="Inter, Helvetica Neue, Arial, sans-serif" font-size="16" fill="#333333" text-anchor="middle">Perfect Squares</text>
  <text x="429.7" y="475" font-family="Inter, Helvetica Neue, Arial, sans-serif" font-size="12" fill="#333333" text-anchor="middle">n</text>
  <text x="14.4" y="249.5" font-family="Inter, Helvetica Neue, Arial, sans-serif" font-size="12" fill="#333333" text-anchor="middle" transform="rotate(-90,14.399999999999999,249.5)">n squared</text>
</svg>