<?xml version="1.0" encoding="UTF-8"?>
<svg xmlns="http://www.w3.org/2000/svg" width="800" height="500" viewBox="0 0 800 500">
  <defs>
    <clipPath id="plot-clip">
      <rect x="60" y="66" width="720" height="384"/>
    </clipPath>
  </defs>
  <rect x="0" y="0" width="800" height="500" fill="#FFFFFF"/>
  <line x1="60" y1="439.132" x2="780" y2="439.132" stroke="#EEEEEE" stroke-width="1"/>
  <line x1="60" y1="378.755" x2="780" y2="378.755" stroke="#EEEEEE" stroke-width="1"/>
  <line x1="60" y1="318.377" x2="780" y2="318.377" stroke="#EEEEEE" stroke-width="1"/>
  <line x1="60" y1="258" x2="780" y2="258" stroke="#EEEEEE" stroke-width="1"/>
  <line x1="60" y1="197.623" x2="780" y2="197.623" stroke="#EEEEEE" stroke-width="1"/>
  <line x1="60" y1="137.245" x2="780" y2="137.245" stroke="#EEEEEE" stroke-width="1"/>
  <line x1="60" y1="76.8679" x2="780" y2="76.8679" stroke="#EEEEEE" stroke-width="1"/>
  <line x1="60" y1="450" x2="780" y2="450" stroke="#333333" stroke-width="1"/>
  <g clip-path="url(#plot-clip)">
    <polyline points="80.3774,378.755 216.226,348.566 352.075,318.377 487.925,288.189 623.774,258 759.623,227.811" fill="none" stroke="#4E79A7" stroke-width="2" stroke-linejoin="round" stroke-linecap="round"/>
    <circle cx="80.3774" cy="366.679" r="4" fill="#4E79A7"/>
    <circle cx="216.226" cy="390.83" r="4" fill="#4E79A7"/>
    <circle cx="352.075" cy="312.34" r="4" fill="#4E79A7"/>
    <circle cx="487.925" cy="239.887" r="4" fill="#4E79A7"/>
    <circle cx="623.774" cy="197.623" r="4" fill="#4E79A7"/>
    <circle cx="759.623" cy="125.17" r="4" fill="#4E79A7"/>
  </g>
  <line x1="80.3774" y1="450" x2="80.3774" y2="455" stroke="#333333" stroke-width="1"/>
  <text x="80.3774" y="468" font-family="Inter, Helvetica Neue, Arial, sans-serif" font-size="10" fill="#333333" text-anchor="middle">2019</text>
  <line x1="216.226" y1="450" x2="216.226" y2="455" stroke="#333333" stroke-width="1"/>
  <text x="216.226" y="468" font-family="Inter, Helvetica Neue, Arial, sans-serif" font-size="10" fill="#333333" text-anchor="middle">2020</text>
  <line x1="352.075" y1="450" x2="352.075" y2="455" stroke="#333333" stroke-width="1"/>
  <text x="352.075" y="468" font-family="Inter, Helvetica Neue, Arial, sans-serif" font-size="10" fill="#333333" text-anchor="middle">2021</text>
  <line x1="487.925" y1="450" x2="487.925" y2="455" stroke="#333333" stroke-width="1"/>
  <text x="487.925" y="468" font-family="Inter, Helvetica Neue, Arial, sans-serif" font-size="10" fill="#333333" text-anchor="middle">2022</text>
  <line x1="623.774" y1="450" x2="623.774" y2="455" stroke="#333333" stroke-width="1"/>
  <text x="623.774" y="468" font-family="Inter, Helvetica Neue, Arial, sans-serif" font-size="10" fill="#333333" text-anchor="middle">2023</text>
  <line x1="759.623" y1="450" x2="759.623" y2="455" stroke="#333333" stroke-width="1"/>
  <text x="759.623" y="468" font-family="Inter, Helvetica Neue, Arial, sans-serif" font-size="10" fill="#333333" text-anchor="middle">2024</text>
  <line x1="55" y1="439.132" x2="60" y2="439.132" stroke="#333333" stroke-width="1"/>
  <text x="52" y="443.132" font-family="Inter, Helvetica Neue, Arial, sans-serif" font-size="10" fill="#333333" text-anchor="end">3</text>
  <line x1="55" y1="378.755" x2="60" y2="378.755" stroke="#333333" stroke-width="1"/>
  <text x="52" y="382.755" font-family="Inter, Helvetica Neue, Arial, sans-serif" font-size="10" fill="#333333" text-anchor="end">4</text>
  <line x1="55" y1="318.377" x2="60" y2="318.377" stroke="#333333" stroke-width="1"/>
  <text x="52" y="322.377" font-family="Inter, Helvetica Neue, Arial, sans-serif" font-size="10" fill="#333333" text-anchor="end">5</text>
  <line x1="55" y1="258" x2="60" y2="258" stroke="#333333" stroke-width="1"/>
  <text x="52" y="262" font-family="Inter, Helvetica Neue, Arial, sans-serif" font-size="10" fill="#333333" text-anchor="end">6</text>
  <line x1="55" y1="197.623" x2="60" y2="197.623" stroke="#333333" stroke-width="1"/>
  <text x="52" y="201.623" font-family="Inter, Helvetica Neue, Arial, sans-serif" font-size="10" fill="#333333" text-anchor="end">7</text>
  <line x1="55" y1="137.245" x2="60" y2="137.245" stroke="#333333" stroke-width="1"/>
  <text x="52" y="141.245" font-family="Inter, Helvetica Neue, Arial, sans-serif" font-size="10" fill="#333333" text-anchor="end">8</text>
  <line x1="55" y1="76.8679" x2="60" y2="76.8679" stroke="#333333" stroke-width="1"/>
  <text x="52" y="80.8679" font-family="Inter, Helvetica Neue, Arial, sans-serif" font-size="10" fill="#333333" text-anchor="end">9</text>
  <text x="420" y="56" font-family="Inter, Helvetica Neue, Arial, sans-serif" font-size="16" fill="#333333" text-anchor="middle">Actual vs Forecast Revenue ($B)</text>
</svg>