<?xml version="1.0" encoding="UTF-8"?>
<svg xmlns="http://www.w3.org/2000/svg" width="800" height="500" viewBox="0 0 800.0 500.0">
  <defs>
    <clipPath id="plot-clip">
      <rect x="77" y="66" width="583" height="367"/>
    </clipPath>
  </defs>
  <rect x="0" y="0" width="800" height="500" fill="#FFFFFF"/>
  <line x1="77" y1="433" x2="660" y2="433" stroke="#EEEEEE" stroke-width="1"/>
  <line x1="77" y1="371.833" x2="660" y2="371.833" stroke="#EEEEEE" stroke-width="1"/>
  <line x1="77" y1="310.667" x2="660" y2="310.667" stroke="#EEEEEE" stroke-width="1"/>
  <line x1="77" y1="249.5" x2="660" y2="249.5" stroke="#EEEEEE" stroke-width="1"/>
  <line x1="77" y1="188.333" x2="660" y2="188.333" stroke="#EEEEEE" stroke-width="1"/>
  <line x1="77" y1="127.167" x2="660" y2="127.167" stroke="#EEEEEE" stroke-width="1"/>
  <line x1="77" y1="66" x2="660" y2="66" stroke="#EEEEEE" stroke-width="1"/>
  <line x1="77" y1="433" x2="660" y2="433" stroke="#333333" stroke-width="1"/>
  <g clip-path="url(#plot-clip)">
    <polyline points="125.583,433 174.167,396.3 222.75,371.833 271.333,384.067 319.917,335.133 368.5,286.2 417.083,249.5 465.667,212.8 514.25,237.267 562.833,188.333 611.417,127.167 660,66" fill="none" stroke="#4E79A7" stroke-width="2" stroke-linejoin="round" stroke-linecap="round"/>
    <polyline points="125.583,310.667 174.167,322.9 222.75,298.433 271.333,286.2 319.917,273.967 368.5,286.2 417.083,261.733 465.667,249.5 514.25,237.267 562.833,249.5 611.417,225.033 660,212.8" fill="none" stroke="#C56A00" stroke-width="2" stroke-linejoin="round" stroke-linecap="round"/>
  </g>
  <line x1="77" y1="433" x2="77" y2="438" stroke="#333333" stroke-width="1"/>
  <text x="77" y="451" font-family="Inter, Helvetica Neue, Arial, sans-serif" font-size="10" fill="#333333" text-anchor="middle">0</text>
  <line x1="174.167" y1="433" x2="174.167" y2="438" stroke="#333333" stroke-width="1"/>
  <text x="174.167" y="451" font-family="Inter, Helvetica Neue, Arial, sans-serif" font-size="10" fill="#333333" text-anchor="middle">2</text>
  <line x1="271.333" y1="433" x2="271.333" y2="438" stroke="#333333" stroke-width="1"/>
  <text x="271.333" y="451" font-family="Inter, Helvetica Neue, Arial, sans-serif" font-size="10" fill="#333333" text-anchor="middle">4</text>
  <line x1="368.5" y1="433" x2="368.5" y2="438" stroke="#333333" stroke-width="1"/>
  <text x="368.5" y="451" font-family="Inter, Helvetica Neue, Arial, sans-serif" font-size="10" fill="#333333" text-anchor="middle">6</text>
  <line x1="465.667" y1="433" x2="465.667" y2="438" stroke="#333333" stroke-width="1"/>
  <text x="465.667" y="451" font-family="Inter, Helvetica Neue, Arial, sans-serif" font-size="10" fill="#333333" text-anchor="middle">8</text>
  <line x1="562.833" y1="433" x2="562.833" y2="438" stroke="#333333" stroke-width="1"/>
  <text x="562.833" y="451" font-family="Inter, Helvetica Neue, Arial, sans-serif" font-size="10" fill="#333333" text-anchor="middle">10</text>
  <line x1="660" y1="433" x2="660" y2="438" stroke="#333333" stroke-width="1"/>
  <text x="660" y="451" font-family="Inter, Helvetica Neue, Arial, sans-serif" font-size="10" fill="#333333" text-anchor="middle">12</text>
  <line x1="72" y1="433" x2="77" y2="433" stroke="#333333" stroke-width="1"/>
  <text x="69" y="437" font-family="Inter, Helvetica Neue, Arial, sans-serif" font-size="10" fill="#333333" text-anchor="end">10</text>
  <line x1="72" y1="371.833" x2="77" y2="371.833" stroke="#333333" stroke-width="1"/>
  <text x="69" y="375.833" font-family="Inter, Helvetica Neue, Arial, sans-serif" font-size="10" fill="#333333" text-anchor="end">15</text>
  <line x1="72" y1="310.667" x2="77" y2="310.667" stroke="#333333" stroke-width="1"/>
  <text x="69" y="314.667" font-family="Inter, Helvetica Neue, Arial, sans-serif" font-size="10" fill="#333333" text-anchor="end">20</text>
  <line x1="72" y1="249.5" x2="77" y2="249.5" stroke="#333333" stroke-width="1"/>
  <text x="69" y="253.5" font-family="Inter, Helvetica Neue, Arial, sans-serif" font-size="10" fill="#333333" text-anchor="end">25</text>
  <line x1="72" y1="188.333" x2="77" y2="188.333" stroke="#333333" stroke-width="1"/>
  <text x="69" y="192.333" font-family="Inter, Helvetica Neue, Arial, sans-serif" font-size="10" fill="#333333" text-anchor="end">30</text>
  <line x1="72" y1="127.167" x2="77" y2="127.167" stroke="#333333" stroke-width="1"/>
  <text x="69" y="131.167" font-family="Inter, Helvetica Neue, Arial, sans-serif" font-size="10" fill="#333333" text-anchor="end">35</text>
  <line x1="72" y1="66" x2="77" y2="66" stroke="#333333" stroke-width="1"/>
  <text x="69" y="70" font-family="Inter, Helvetica Neue, Arial, sans-serif" font-size="10" fill="#333333" text-anchor="end">40</text>
  <text x="368.5" y="56" font-family="Inter, Helvetica Neue, Arial, sans-serif" font-size="16" fill="#333333" text-anchor="middle">Revenue by Segment</text>
  <text x="368.5" y="475" font-family="Inter, Helvetica Neue, Arial, sans-serif" font-size="12" fill="#333333" text-anchor="middle">Month</text>
  <text x="12" y="249.5" font-family="Inter, Helvetica Neue, Arial, sans-serif" font-size="12" fill="#333333" text-anchor="middle" transform="rotate(-90,12,249.5)">Revenue ($M)</text>
  <rect x="675" y="68" width="12" height="12" fill="#4E79A7" rx="2"/>
  <text x="693" y="78" font-family="Inter, Helvetica Neue, Arial, sans-serif" font-size="10" fill="#333333" text-anchor="start">SaaS</text>
  <rect x="675" y="90" width="12" height="12" fill="#C56A00" rx="2"/>
  <text x="693" y="100" font-family="Inter, Helvetica Neue, Arial, sans-serif" font-size="10" fill="#333333" text-anchor="start">Hardware</text>
</svg>