<?xml version="1.0" encoding="UTF-8"?>
<svg xmlns="http://www.w3.org/2000/svg" width="800" height="500" viewBox="0 0 800 500">
  <defs>
    <clipPath id="plot-clip">
      <rect x="60" y="66" width="720" height="384"/>
    </clipPath>
  </defs>
  <rect x="0" y="0" width="800" height="500" fill="#FFFFFF"/>
  <line x1="60" y1="450" x2="780" y2="450" stroke="#EEEEEE" stroke-width="1"/>
  <line x1="60" y1="386" x2="780" y2="386" stroke="#EEEEEE" stroke-width="1"/>
  <line x1="60" y1="322" x2="780" y2="322" stroke="#EEEEEE" stroke-width="1"/>
  <line x1="60" y1="258" x2="780" y2="258" stroke="#EEEEEE" stroke-width="1"/>
  <line x1="60" y1="194" x2="780" y2="194" stroke="#EEEEEE" stroke-width="1"/>
  <line x1="60" y1="130" x2="780" y2="130" stroke="#EEEEEE" stroke-width="1"/>
  <line x1="60" y1="66" x2="780" y2="66" stroke="#EEEEEE" stroke-width="1"/>
  <line x1="60" y1="450" x2="780" y2="450" stroke="#333333" stroke-width="1"/>
  <g clip-path="url(#plot-clip)">
    <polyline points="60,386 204,354 348,322 492,290 636,258 780,226" fill="none" stroke="#4E79A7" stroke-width="2" stroke-linejoin="round" stroke-linecap="round"/>
    <circle cx="60" cy="373.2" r="4" fill="#4E79A7"/>
    <circle cx="204" cy="398.8" r="4" fill="#4E79A7"/>
    <circle cx="348" cy="315.6" r="4" fill="#4E79A7"/>
    <circle cx="492" cy="238.8" r="4" fill="#4E79A7"/>
    <circle cx="636" cy="194" r="4" fill="#4E79A7"/>
    <circle cx="780" cy="117.2" r="4" fill="#4E79A7"/>
  </g>
  <line x1="60" y1="450" x2="60" y2="455" stroke="#333333" stroke-width="1"/>
  <text x="60" y="468" font-family="Inter, Helvetica Neue, Arial, sans-serif" font-size="10" fill="#333333" text-anchor="middle">2019</text>
  <line x1="204" y1="450" x2="204" y2="455" stroke="#333333" stroke-width="1"/>
  <text x="204" y="468" font-family="Inter, Helvetica Neue, Arial, sans-serif" font-size="10" fill="#333333" text-anchor="middle">2020</text>
  <line x1="348" y1="450" x2="348" y2="455" stroke="#333333" stroke-width="1"/>
  <text x="348" y="468" font-family="Inter, Helvetica Neue, Arial, sans-serif" font-size="10" fill="#333333" text-anchor="middle">2021</text>
  <line x1="492" y1="450" x2="492" y2="455" stroke="#333333" stroke-width="1"/>
  <text x="492" y="468" font-family="Inter, Helvetica Neue, Arial, sans-serif" font-size="10" fill="#333333" text-anchor="middle">2022</text>
  <line x1="636" y1="450" x2="636" y2="455" stroke="#333333" stroke-width="1"/>
  <text x="636" y="468" font-family="Inter, Helvetica Neue, Arial, sans-serif" font-size="10" fill="#333333" text-anchor="middle">2023</text>
  <line x1="780" y1="450" x2="780" y2="455" stroke="#333333" stroke-width="1"/>
  <text x="780" y="468" font-family="Inter, Helvetica Neue, Arial, sans-serif" font-size="10" fill="#333333" text-anchor="middle">2024</text>
  <line x1="55" y1="450" x2="60" y2="450" stroke="#333333" stroke-width="1"/>
  <text x="52" y="454" font-family="Inter, Helvetica Neue, Arial, sans-serif" font-size="10" fill="#333333" text-anchor="end">3</text>
  <line x1="55" y1="386" x2="60" y2="386" stroke="#333333" stroke-width="1"/>
  <text x="52" y="390" font-family="Inter, Helvetica Neue, Arial, sans-serif" font-size="10" fill="#333333" text-anchor="end">4</text>
  <line x1="55" y1="322" x2="60" y2="322" stroke="#333333" stroke-width="1"/>
  <text x="52" y="326" font-family="Inter, Helvetica Neue, Arial, sans-serif" font-size="10" fill="#333333" text-anchor="end">5</text>
  <line x1="55" y1="258" x2="60" y2="258" stroke="#333333" stroke-width="1"/>
  <text x="52" y="262" font-family="Inter, Helvetica Neue, Arial, sans-serif" font-size="10" fill="#333333" text-anchor="end">6</text>
  <line x1="55" y1="194" x2="60" y2="194" stroke="#333333" stroke-width="1"/>
  <text x="52" y="198" font-family="Inter, Helvetica Neue, Arial, sans-serif" font-size="10" fill="#333333" text-anchor="end">7</text>
  <line x1="55" y1="130" x2="60" y2="130" stroke="#333333" stroke-width="1"/>
  <text x="52" y="134" font-family="Inter, Helvetica Neue, Arial, sans-serif" font-size="10" fill="#333333" text-anchor="end">8</text>
  <line x1="55" y1="66" x2="60" y2="66" stroke="#333333" stroke-width="1"/>
  <text x="52" y="70" font-family="Inter, Helvetica Neue, Arial, sans-serif" font-size="10" fill="#333333" text-anchor="end">9</text>
  <text x="420" y="56" font-family="Inter, Helvetica Neue, Arial, sans-serif" font-size="16" fill="#333333" text-anchor="middle">Actual vs Forecast Revenue ($B)</text>
</svg>