<?xml version="1.0" encoding="UTF-8"?>
<!-- assembled fresh by botplotlib (a cyborg production) -->
<svg xmlns="http://www.w3.org/2000/svg" width="800" height="500" viewBox="0 0 800.0 500.0">
  <defs>
    <clipPath id="plot-clip">
      <rect x="79.4" y="66" width="700.6" height="384"/>
    </clipPath>
  </defs>
  <rect x="0" y="0" width="800" height="500" fill="#FFFFFF"/>
  <line x1="79.4" y1="439.132" x2="780" y2="439.132" stroke="#EEEEEE" stroke-width="1"/>
  <line x1="79.4" y1="378.755" x2="780" y2="378.755" stroke="#EEEEEE" stroke-width="1"/>
  <line x1="79.4" y1="318.377" x2="780" y2="318.377" stroke="#EEEEEE" stroke-width="1"/>
  <line x1="79.4" y1="258" x2="780" y2="258" stroke="#EEEEEE" stroke-width="1"/>
  <line x1="79.4" y1="197.623" x2="780" y2="197.623" stroke="#EEEEEE" stroke-width="1"/>
  <line x1="79.4" y1="137.245" x2="780" y2="137.245" stroke="#EEEEEE" stroke-width="1"/>
  <line x1="79.4" y1="76.8679" x2="780" y2="76.8679" stroke="#EEEEEE" stroke-width="1"/>
  <line x1="79.4" y1="450" x2="780" y2="450" stroke="#333333" stroke-width="1"/>
  <g clip-path="url(#plot-clip)">
    <rect x="91.0767" y="137.245" width="93.4133" height="301.887" fill="#4E79A7"/>
    <rect x="207.843" y="137.245" width="93.4133" height="120.755" fill="#C56A00"/>
    <rect x="324.61" y="76.8679" width="93.4133" height="181.132" fill="#4E79A7"/>
    <rect x="441.377" y="76.8679" width="93.4133" height="90.566" fill="#C56A00"/>
    <rect x="558.143" y="167.434" width="93.4133" height="27.1698" fill="#C56A00"/>
    <rect x="674.91" y="131.208" width="93.4133" height="63.3962" fill="#4E79A7"/>
    <polyline points="184.49,137.245 207.843,137.245" fill="none" stroke="#EEEEEE" stroke-width="1" stroke-linejoin="round" stroke-linecap="round"/>
    <polyline points="301.257,258 324.61,258" fill="none" stroke="#EEEEEE" stroke-width="1" stroke-linejoin="round" stroke-linecap="round"/>
    <polyline points="418.023,76.8679 441.377,76.8679" fill="none" stroke="#EEEEEE" stroke-width="1" stroke-linejoin="round" stroke-linecap="round"/>
    <polyline points="534.79,167.434 558.143,167.434" fill="none" stroke="#EEEEEE" stroke-width="1" stroke-linejoin="round" stroke-linecap="round"/>
    <polyline points="651.557,194.604 674.91,194.604" fill="none" stroke="#EEEEEE" stroke-width="1" stroke-linejoin="round" stroke-linecap="round"/>
  </g>
  <line x1="137.783" y1="450" x2="137.783" y2="455" stroke="#333333" stroke-width="1"/>
  <text x="137.783" y="468" font-family="Inter, Helvetica Neue, Arial, sans-serif" font-size="10" fill="#333333" text-anchor="middle">Revenue</text>
  <line x1="254.55" y1="450" x2="254.55" y2="455" stroke="#333333" stroke-width="1"/>
  <text x="254.55" y="468" font-family="Inter, Helvetica Neue, Arial, sans-serif" font-size="10" fill="#333333" text-anchor="middle">COGS</text>
  <line x1="371.317" y1="450" x2="371.317" y2="455" stroke="#333333" stroke-width="1"/>
  <text x="371.317" y="468" font-family="Inter, Helvetica Neue, Arial, sans-serif" font-size="10" fill="#333333" text-anchor="middle">Gross Profit</text>
  <line x1="488.083" y1="450" x2="488.083" y2="455" stroke="#333333" stroke-width="1"/>
  <text x="488.083" y="468" font-family="Inter, Helvetica Neue, Arial, sans-serif" font-size="10" fill="#333333" text-anchor="middle">OpEx</text>
  <line x1="604.85" y1="450" x2="604.85" y2="455" stroke="#333333" stroke-width="1"/>
  <text x="604.85" y="468" font-family="Inter, Helvetica Neue, Arial, sans-serif" font-size="10" fill="#333333" text-anchor="middle">Tax</text>
  <line x1="721.617" y1="450" x2="721.617" y2="455" stroke="#333333" stroke-width="1"/>
  <text x="721.617" y="468" font-family="Inter, Helvetica Neue, Arial, sans-serif" font-size="10" fill="#333333" text-anchor="middle">Net Income</text>
  <line x1="74.4" y1="439.132" x2="79.4" y2="439.132" stroke="#333333" stroke-width="1"/>
  <text x="71.4" y="443.132" font-family="Inter, Helvetica Neue, Arial, sans-serif" font-size="10" fill="#333333" text-anchor="end">0</text>
  <line x1="74.4" y1="378.755" x2="79.4" y2="378.755" stroke="#333333" stroke-width="1"/>
  <text x="71.4" y="382.755" font-family="Inter, Helvetica Neue, Arial, sans-serif" font-size="10" fill="#333333" text-anchor="end">100</text>
  <line x1="74.4" y1="318.377" x2="79.4" y2="318.377" stroke="#333333" stroke-width="1"/>
  <text x="71.4" y="322.377" font-family="Inter, Helvetica Neue, Arial, sans-serif" font-size="10" fill="#333333" text-anchor="end">200</text>
  <line x1="74.4" y1="258" x2="79.4" y2="258" stroke="#333333" stroke-width="1"/>
  <text x="71.4" y="262" font-family="Inter, Helvetica Neue, Arial, sans-serif" font-size="10" fill="#333333" text-anchor="end">300</text>
  <line x1="74.4" y1="197.623" x2="79.4" y2="197.623" stroke="#333333" stroke-width="1"/>
  <text x="71.4" y="201.623" font-family="Inter, Helvetica Neue, Arial, sans-serif" font-size="10" fill="#333333" text-anchor="end">400</text>
  <line x1="74.4" y1="137.245" x2="79.4" y2="137.245" stroke="#333333" stroke-width="1"/>
  <text x="71.4" y="141.245" font-family="Inter, Helvetica Neue, Arial, sans-serif" font-size="10" fill="#333333" text-anchor="end">500</text>
  <line x1="74.4" y1="76.8679" x2="79.4" y2="76.8679" stroke="#333333" stroke-width="1"/>
  <text x="71.4" y="80.8679" font-family="Inter, Helvetica Neue, Arial, sans-serif" font-size="10" fill="#333333" text-anchor="end">600</text>
  <text x="429.7" y="56" font-family="Inter, Helvetica Neue, Arial, sans-serif" font-size="16" fill="#333333" text-anchor="middle">Income Statement Waterfall</text>
  <text x="14.4" y="258" font-family="Inter, Helvetica Neue, Arial, sans-serif" font-size="12" fill="#333333" text-anchor="middle" transform="rotate(-90,14.399999999999999,258.0)">Amount ($K)</text>
</svg>