<?xml version="1.0" encoding="UTF-8"?>
<svg xmlns="http://www.w3.org/2000/svg" width="800" height="500" viewBox="0 0 800.0 500.0">
  <defs>
    <clipPath id="plot-clip">
      <rect x="77" y="66" width="703" height="367"/>
    </clipPath>
  </defs>
  <rect x="0" y="0" width="800" height="500" fill="#FFFFFF"/>
  <line x1="77" y1="422.613" x2="780" y2="422.613" stroke="#EEEEEE" stroke-width="1"/>
  <line x1="77" y1="364.909" x2="780" y2="364.909" stroke="#EEEEEE" stroke-width="1"/>
  <line x1="77" y1="307.204" x2="780" y2="307.204" stroke="#EEEEEE" stroke-width="1"/>
  <line x1="77" y1="249.5" x2="780" y2="249.5" stroke="#EEEEEE" stroke-width="1"/>
  <line x1="77" y1="191.796" x2="780" y2="191.796" stroke="#EEEEEE" stroke-width="1"/>
  <line x1="77" y1="134.091" x2="780" y2="134.091" stroke="#EEEEEE" stroke-width="1"/>
  <line x1="77" y1="76.3868" x2="780" y2="76.3868" stroke="#EEEEEE" stroke-width="1"/>
  <line x1="77" y1="433" x2="780" y2="433" stroke="#333333" stroke-width="1"/>
  <g clip-path="url(#plot-clip)">
    <rect x="88.7167" y="134.091" width="93.7333" height="288.522" fill="#4E79A7"/>
    <rect x="205.883" y="134.091" width="93.7333" height="115.409" fill="#C56A00"/>
    <rect x="323.05" y="76.3868" width="93.7333" height="173.113" fill="#4E79A7"/>
    <rect x="440.217" y="76.3868" width="93.7333" height="86.5566" fill="#C56A00"/>
    <rect x="557.383" y="162.943" width="93.7333" height="25.967" fill="#C56A00"/>
    <rect x="674.55" y="128.321" width="93.7333" height="60.5896" fill="#4E79A7"/>
    <polyline points="182.45,134.091 205.883,134.091" fill="none" stroke="#EEEEEE" stroke-width="1" stroke-linejoin="round" stroke-linecap="round"/>
    <polyline points="299.617,249.5 323.05,249.5" fill="none" stroke="#EEEEEE" stroke-width="1" stroke-linejoin="round" stroke-linecap="round"/>
    <polyline points="416.783,76.3868 440.217,76.3868" fill="none" stroke="#EEEEEE" stroke-width="1" stroke-linejoin="round" stroke-linecap="round"/>
    <polyline points="533.95,162.943 557.383,162.943" fill="none" stroke="#EEEEEE" stroke-width="1" stroke-linejoin="round" stroke-linecap="round"/>
    <polyline points="651.117,188.91 674.55,188.91" fill="none" stroke="#EEEEEE" stroke-width="1" stroke-linejoin="round" stroke-linecap="round"/>
  </g>
  <line x1="135.583" y1="433" x2="135.583" y2="438" stroke="#333333" stroke-width="1"/>
  <text x="135.583" y="451" font-family="Inter, Helvetica Neue, Arial, sans-serif" font-size="10" fill="#333333" text-anchor="middle">Revenue</text>
  <line x1="252.75" y1="433" x2="252.75" y2="438" stroke="#333333" stroke-width="1"/>
  <text x="252.75" y="451" font-family="Inter, Helvetica Neue, Arial, sans-serif" font-size="10" fill="#333333" text-anchor="middle">COGS</text>
  <line x1="369.917" y1="433" x2="369.917" y2="438" stroke="#333333" stroke-width="1"/>
  <text x="369.917" y="451" font-family="Inter, Helvetica Neue, Arial, sans-serif" font-size="10" fill="#333333" text-anchor="middle">Gross Profit</text>
  <line x1="487.083" y1="433" x2="487.083" y2="438" stroke="#333333" stroke-width="1"/>
  <text x="487.083" y="451" font-family="Inter, Helvetica Neue, Arial, sans-serif" font-size="10" fill="#333333" text-anchor="middle">OpEx</text>
  <line x1="604.25" y1="433" x2="604.25" y2="438" stroke="#333333" stroke-width="1"/>
  <text x="604.25" y="451" font-family="Inter, Helvetica Neue, Arial, sans-serif" font-size="10" fill="#333333" text-anchor="middle">Tax</text>
  <line x1="721.417" y1="433" x2="721.417" y2="438" stroke="#333333" stroke-width="1"/>
  <text x="721.417" y="451" font-family="Inter, Helvetica Neue, Arial, sans-serif" font-size="10" fill="#333333" text-anchor="middle">Net Income</text>
  <line x1="72" y1="422.613" x2="77" y2="422.613" stroke="#333333" stroke-width="1"/>
  <text x="69" y="426.613" font-family="Inter, Helvetica Neue, Arial, sans-serif" font-size="10" fill="#333333" text-anchor="end">0</text>
  <line x1="72" y1="364.909" x2="77" y2="364.909" stroke="#333333" stroke-width="1"/>
  <text x="69" y="368.909" font-family="Inter, Helvetica Neue, Arial, sans-serif" font-size="10" fill="#333333" text-anchor="end">100</text>
  <line x1="72" y1="307.204" x2="77" y2="307.204" stroke="#333333" stroke-width="1"/>
  <text x="69" y="311.204" font-family="Inter, Helvetica Neue, Arial, sans-serif" font-size="10" fill="#333333" text-anchor="end">200</text>
  <line x1="72" y1="249.5" x2="77" y2="249.5" stroke="#333333" stroke-width="1"/>
  <text x="69" y="253.5" font-family="Inter, Helvetica Neue, Arial, sans-serif" font-size="10" fill="#333333" text-anchor="end">300</text>
  <line x1="72" y1="191.796" x2="77" y2="191.796" stroke="#333333" stroke-width="1"/>
  <text x="69" y="195.796" font-family="Inter, Helvetica Neue, Arial, sans-serif" font-size="10" fill="#333333" text-anchor="end">400</text>
  <line x1="72" y1="134.091" x2="77" y2="134.091" stroke="#333333" stroke-width="1"/>
  <text x="69" y="138.091" font-family="Inter, Helvetica Neue, Arial, sans-serif" font-size="10" fill="#333333" text-anchor="end">500</text>
  <line x1="72" y1="76.3868" x2="77" y2="76.3868" stroke="#333333" stroke-width="1"/>
  <text x="69" y="80.3868" font-family="Inter, Helvetica Neue, Arial, sans-serif" font-size="10" fill="#333333" text-anchor="end">600</text>
  <text x="428.5" y="56" font-family="Inter, Helvetica Neue, Arial, sans-serif" font-size="16" fill="#333333" text-anchor="middle">Income Statement Waterfall</text>
  <text x="428.5" y="475" font-family="Inter, Helvetica Neue, Arial, sans-serif" font-size="12" fill="#333333" text-anchor="middle"></text>
  <text x="12" y="249.5" font-family="Inter, Helvetica Neue, Arial, sans-serif" font-size="12" fill="#333333" text-anchor="middle" transform="rotate(-90,12,249.5)">Amount ($K)</text>
</svg>