<?xml version="1.0" encoding="UTF-8"?>
<svg xmlns="http://www.w3.org/2000/svg" width="800" height="500" viewBox="0 0 800.0 500.0">
  <defs>
    <clipPath id="plot-clip">
      <rect x="77" y="66" width="703" height="384"/>
    </clipPath>
  </defs>
  <rect x="0" y="0" width="800" height="500" fill="#FFFFFF"/>
  <line x1="77" y1="439.132" x2="780" y2="439.132" stroke="#EEEEEE" stroke-width="1"/>
  <line x1="77" y1="378.755" x2="780" y2="378.755" stroke="#EEEEEE" stroke-width="1"/>
  <line x1="77" y1="318.377" x2="780" y2="318.377" stroke="#EEEEEE" stroke-width="1"/>
  <line x1="77" y1="258" x2="780" y2="258" stroke="#EEEEEE" stroke-width="1"/>
  <line x1="77" y1="197.623" x2="780" y2="197.623" stroke="#EEEEEE" stroke-width="1"/>
  <line x1="77" y1="137.245" x2="780" y2="137.245" stroke="#EEEEEE" stroke-width="1"/>
  <line x1="77" y1="76.8679" x2="780" y2="76.8679" stroke="#EEEEEE" stroke-width="1"/>
  <line x1="77" y1="450" x2="780" y2="450" stroke="#333333" stroke-width="1"/>
  <g clip-path="url(#plot-clip)">
    <rect x="88.7167" y="137.245" width="93.7333" height="301.887" fill="#4E79A7"/>
    <rect x="205.883" y="137.245" width="93.7333" height="120.755" fill="#C56A00"/>
    <rect x="323.05" y="76.8679" width="93.7333" height="181.132" fill="#4E79A7"/>
    <rect x="440.217" y="76.8679" width="93.7333" height="90.566" fill="#C56A00"/>
    <rect x="557.383" y="167.434" width="93.7333" height="27.1698" fill="#C56A00"/>
    <rect x="674.55" y="131.208" width="93.7333" height="63.3962" fill="#4E79A7"/>
    <polyline points="182.45,137.245 205.883,137.245" fill="none" stroke="#EEEEEE" stroke-width="1" stroke-linejoin="round" stroke-linecap="round"/>
    <polyline points="299.617,258 323.05,258" fill="none" stroke="#EEEEEE" stroke-width="1" stroke-linejoin="round" stroke-linecap="round"/>
    <polyline points="416.783,76.8679 440.217,76.8679" fill="none" stroke="#EEEEEE" stroke-width="1" stroke-linejoin="round" stroke-linecap="round"/>
    <polyline points="533.95,167.434 557.383,167.434" fill="none" stroke="#EEEEEE" stroke-width="1" stroke-linejoin="round" stroke-linecap="round"/>
    <polyline points="651.117,194.604 674.55,194.604" fill="none" stroke="#EEEEEE" stroke-width="1" stroke-linejoin="round" stroke-linecap="round"/>
  </g>
  <line x1="135.583" y1="450" x2="135.583" y2="455" stroke="#333333" stroke-width="1"/>
  <text x="135.583" y="468" font-family="Inter, Helvetica Neue, Arial, sans-serif" font-size="10" fill="#333333" text-anchor="middle">Revenue</text>
  <line x1="252.75" y1="450" x2="252.75" y2="455" stroke="#333333" stroke-width="1"/>
  <text x="252.75" y="468" font-family="Inter, Helvetica Neue, Arial, sans-serif" font-size="10" fill="#333333" text-anchor="middle">COGS</text>
  <line x1="369.917" y1="450" x2="369.917" y2="455" stroke="#333333" stroke-width="1"/>
  <text x="369.917" y="468" font-family="Inter, Helvetica Neue, Arial, sans-serif" font-size="10" fill="#333333" text-anchor="middle">Gross Profit</text>
  <line x1="487.083" y1="450" x2="487.083" y2="455" stroke="#333333" stroke-width="1"/>
  <text x="487.083" y="468" font-family="Inter, Helvetica Neue, Arial, sans-serif" font-size="10" fill="#333333" text-anchor="middle">OpEx</text>
  <line x1="604.25" y1="450" x2="604.25" y2="455" stroke="#333333" stroke-width="1"/>
  <text x="604.25" y="468" font-family="Inter, Helvetica Neue, Arial, sans-serif" font-size="10" fill="#333333" text-anchor="middle">Tax</text>
  <line x1="721.417" y1="450" x2="721.417" y2="455" stroke="#333333" stroke-width="1"/>
  <text x="721.417" y="468" font-family="Inter, Helvetica Neue, Arial, sans-serif" font-size="10" fill="#333333" text-anchor="middle">Net Income</text>
  <line x1="72" y1="439.132" x2="77" y2="439.132" stroke="#333333" stroke-width="1"/>
  <text x="69" y="443.132" font-family="Inter, Helvetica Neue, Arial, sans-serif" font-size="10" fill="#333333" text-anchor="end">0</text>
  <line x1="72" y1="378.755" x2="77" y2="378.755" stroke="#333333" stroke-width="1"/>
  <text x="69" y="382.755" font-family="Inter, Helvetica Neue, Arial, sans-serif" font-size="10" fill="#333333" text-anchor="end">100</text>
  <line x1="72" y1="318.377" x2="77" y2="318.377" stroke="#333333" stroke-width="1"/>
  <text x="69" y="322.377" font-family="Inter, Helvetica Neue, Arial, sans-serif" font-size="10" fill="#333333" text-anchor="end">200</text>
  <line x1="72" y1="258" x2="77" y2="258" stroke="#333333" stroke-width="1"/>
  <text x="69" y="262" font-family="Inter, Helvetica Neue, Arial, sans-serif" font-size="10" fill="#333333" text-anchor="end">300</text>
  <line x1="72" y1="197.623" x2="77" y2="197.623" stroke="#333333" stroke-width="1"/>
  <text x="69" y="201.623" font-family="Inter, Helvetica Neue, Arial, sans-serif" font-size="10" fill="#333333" text-anchor="end">400</text>
  <line x1="72" y1="137.245" x2="77" y2="137.245" stroke="#333333" stroke-width="1"/>
  <text x="69" y="141.245" font-family="Inter, Helvetica Neue, Arial, sans-serif" font-size="10" fill="#333333" text-anchor="end">500</text>
  <line x1="72" y1="76.8679" x2="77" y2="76.8679" stroke="#333333" stroke-width="1"/>
  <text x="69" y="80.8679" font-family="Inter, Helvetica Neue, Arial, sans-serif" font-size="10" fill="#333333" text-anchor="end">600</text>
  <text x="428.5" y="56" font-family="Inter, Helvetica Neue, Arial, sans-serif" font-size="16" fill="#333333" text-anchor="middle">Income Statement Waterfall</text>
  <text x="12" y="258" font-family="Inter, Helvetica Neue, Arial, sans-serif" font-size="12" fill="#333333" text-anchor="middle" transform="rotate(-90,12,258.0)">Amount ($K)</text>
</svg>