<?xml version="1.0" encoding="UTF-8"?>
<svg xmlns="http://www.w3.org/2000/svg" width="800" height="500" viewBox="0 0 800 500">
  <defs>
    <clipPath id="plot-clip">
      <rect x="77" y="66" width="703" height="367"/>
    </clipPath>
  </defs>
  <rect x="0" y="0" width="800" height="500" fill="#FFFFFF"/>
  <line x1="77" y1="433" x2="780" y2="433" stroke="#EEEEEE" stroke-width="1"/>
  <line x1="77" y1="341.25" x2="780" y2="341.25" stroke="#EEEEEE" stroke-width="1"/>
  <line x1="77" y1="249.5" x2="780" y2="249.5" stroke="#EEEEEE" stroke-width="1"/>
  <line x1="77" y1="157.75" x2="780" y2="157.75" stroke="#EEEEEE" stroke-width="1"/>
  <line x1="77" y1="66" x2="780" y2="66" stroke="#EEEEEE" stroke-width="1"/>
  <line x1="77" y1="433" x2="780" y2="433" stroke="#333333" stroke-width="1"/>
  <g clip-path="url(#plot-clip)">
    <circle cx="77" cy="396.3" r="4" fill="#4E79A7"/>
    <circle cx="252.75" cy="359.6" r="4" fill="#4E79A7"/>
    <circle cx="428.5" cy="304.55" r="4" fill="#4E79A7"/>
    <circle cx="604.25" cy="231.15" r="4" fill="#4E79A7"/>
    <circle cx="780" cy="139.4" r="4" fill="#4E79A7"/>
  </g>
  <line x1="77" y1="433" x2="77" y2="438" stroke="#333333" stroke-width="1"/>
  <text x="77" y="451" font-family="Inter, Helvetica Neue, Arial, sans-serif" font-size="10" fill="#333333" text-anchor="middle">1</text>
  <line x1="252.75" y1="433" x2="252.75" y2="438" stroke="#333333" stroke-width="1"/>
  <text x="252.75" y="451" font-family="Inter, Helvetica Neue, Arial, sans-serif" font-size="10" fill="#333333" text-anchor="middle">2</text>
  <line x1="428.5" y1="433" x2="428.5" y2="438" stroke="#333333" stroke-width="1"/>
  <text x="428.5" y="451" font-family="Inter, Helvetica Neue, Arial, sans-serif" font-size="10" fill="#333333" text-anchor="middle">3</text>
  <line x1="604.25" y1="433" x2="604.25" y2="438" stroke="#333333" stroke-width="1"/>
  <text x="604.25" y="451" font-family="Inter, Helvetica Neue, Arial, sans-serif" font-size="10" fill="#333333" text-anchor="middle">4</text>
  <line x1="780" y1="433" x2="780" y2="438" stroke="#333333" stroke-width="1"/>
  <text x="780" y="451" font-family="Inter, Helvetica Neue, Arial, sans-serif" font-size="10" fill="#333333" text-anchor="middle">5</text>
  <line x1="72" y1="433" x2="77" y2="433" stroke="#333333" stroke-width="1"/>
  <text x="69" y="437" font-family="Inter, Helvetica Neue, Arial, sans-serif" font-size="10" fill="#333333" text-anchor="end">0</text>
  <line x1="72" y1="341.25" x2="77" y2="341.25" stroke="#333333" stroke-width="1"/>
  <text x="69" y="345.25" font-family="Inter, Helvetica Neue, Arial, sans-serif" font-size="10" fill="#333333" text-anchor="end">5</text>
  <line x1="72" y1="249.5" x2="77" y2="249.5" stroke="#333333" stroke-width="1"/>
  <text x="69" y="253.5" font-family="Inter, Helvetica Neue, Arial, sans-serif" font-size="10" fill="#333333" text-anchor="end">10</text>
  <line x1="72" y1="157.75" x2="77" y2="157.75" stroke="#333333" stroke-width="1"/>
  <text x="69" y="161.75" font-family="Inter, Helvetica Neue, Arial, sans-serif" font-size="10" fill="#333333" text-anchor="end">15</text>
  <line x1="72" y1="66" x2="77" y2="66" stroke="#333333" stroke-width="1"/>
  <text x="69" y="70" font-family="Inter, Helvetica Neue, Arial, sans-serif" font-size="10" fill="#333333" text-anchor="end">20</text>
  <text x="428.5" y="56" font-family="Inter, Helvetica Neue, Arial, sans-serif" font-size="16" fill="#333333" text-anchor="middle">Growth Over Time</text>
  <text x="428.5" y="475" font-family="Inter, Helvetica Neue, Arial, sans-serif" font-size="12" fill="#333333" text-anchor="middle">Year</text>
  <text x="12" y="249.5" font-family="Inter, Helvetica Neue, Arial, sans-serif" font-size="12" fill="#333333" text-anchor="middle" transform="rotate(-90,12,249.5)">Value</text>
</svg>