<?xml version="1.0" encoding="UTF-8"?>
<svg xmlns="http://www.w3.org/2000/svg" width="800" height="500" viewBox="0 0 800.0 500.0">
  <defs>
    <clipPath id="plot-clip">
      <rect x="79.4" y="66" width="700.6" height="367"/>
    </clipPath>
  </defs>
  <rect x="0" y="0" width="800" height="500" fill="#FFFFFF"/>
  <line x1="79.4" y1="422.613" x2="780" y2="422.613" stroke="#E0E0E0" stroke-width="1"/>
  <line x1="79.4" y1="353.368" x2="780" y2="353.368" stroke="#E0E0E0" stroke-width="1"/>
  <line x1="79.4" y1="284.123" x2="780" y2="284.123" stroke="#E0E0E0" stroke-width="1"/>
  <line x1="79.4" y1="214.877" x2="780" y2="214.877" stroke="#E0E0E0" stroke-width="1"/>
  <line x1="79.4" y1="145.632" x2="780" y2="145.632" stroke="#E0E0E0" stroke-width="1"/>
  <line x1="79.4" y1="76.3868" x2="780" y2="76.3868" stroke="#E0E0E0" stroke-width="1"/>
  <line x1="79.4" y1="433" x2="780" y2="433" stroke="#2D2D2D" stroke-width="0.75"/>
  <line x1="79.4" y1="66" x2="79.4" y2="433" stroke="#2D2D2D" stroke-width="0.75"/>
  <g clip-path="url(#plot-clip)">
    <polyline points="99.2283,422.613 264.464,284.123 429.7,353.368 594.936,76.3868 760.172,214.877" fill="none" stroke="#2B5B8A" stroke-width="1.8" stroke-linejoin="round" stroke-linecap="round"/>
  </g>
  <line x1="99.2283" y1="433" x2="99.2283" y2="438" stroke="#2D2D2D" stroke-width="0.75"/>
  <text x="99.2283" y="451" font-family="Georgia, Times New Roman, serif" font-size="10" fill="#2D2D2D" text-anchor="middle">1</text>
  <line x1="264.464" y1="433" x2="264.464" y2="438" stroke="#2D2D2D" stroke-width="0.75"/>
  <text x="264.464" y="451" font-family="Georgia, Times New Roman, serif" font-size="10" fill="#2D2D2D" text-anchor="middle">2</text>
  <line x1="429.7" y1="433" x2="429.7" y2="438" stroke="#2D2D2D" stroke-width="0.75"/>
  <text x="429.7" y="451" font-family="Georgia, Times New Roman, serif" font-size="10" fill="#2D2D2D" text-anchor="middle">3</text>
  <line x1="594.936" y1="433" x2="594.936" y2="438" stroke="#2D2D2D" stroke-width="0.75"/>
  <text x="594.936" y="451" font-family="Georgia, Times New Roman, serif" font-size="10" fill="#2D2D2D" text-anchor="middle">4</text>
  <line x1="760.172" y1="433" x2="760.172" y2="438" stroke="#2D2D2D" stroke-width="0.75"/>
  <text x="760.172" y="451" font-family="Georgia, Times New Roman, serif" font-size="10" fill="#2D2D2D" text-anchor="middle">5</text>
  <line x1="74.4" y1="422.613" x2="79.4" y2="422.613" stroke="#2D2D2D" stroke-width="0.75"/>
  <text x="71.4" y="426.613" font-family="Georgia, Times New Roman, serif" font-size="10" fill="#2D2D2D" text-anchor="end">2</text>
  <line x1="74.4" y1="353.368" x2="79.4" y2="353.368" stroke="#2D2D2D" stroke-width="0.75"/>
  <text x="71.4" y="357.368" font-family="Georgia, Times New Roman, serif" font-size="10" fill="#2D2D2D" text-anchor="end">3</text>
  <line x1="74.4" y1="284.123" x2="79.4" y2="284.123" stroke="#2D2D2D" stroke-width="0.75"/>
  <text x="71.4" y="288.123" font-family="Georgia, Times New Roman, serif" font-size="10" fill="#2D2D2D" text-anchor="end">4</text>
  <line x1="74.4" y1="214.877" x2="79.4" y2="214.877" stroke="#2D2D2D" stroke-width="0.75"/>
  <text x="71.4" y="218.877" font-family="Georgia, Times New Roman, serif" font-size="10" fill="#2D2D2D" text-anchor="end">5</text>
  <line x1="74.4" y1="145.632" x2="79.4" y2="145.632" stroke="#2D2D2D" stroke-width="0.75"/>
  <text x="71.4" y="149.632" font-family="Georgia, Times New Roman, serif" font-size="10" fill="#2D2D2D" text-anchor="end">6</text>
  <line x1="74.4" y1="76.3868" x2="79.4" y2="76.3868" stroke="#2D2D2D" stroke-width="0.75"/>
  <text x="71.4" y="80.3868" font-family="Georgia, Times New Roman, serif" font-size="10" fill="#2D2D2D" text-anchor="end">7</text>
  <text x="429.7" y="56" font-family="Georgia, Times New Roman, serif" font-size="16" fill="#2D2D2D" text-anchor="middle">Pdf Theme</text>
  <text x="429.7" y="475" font-family="Georgia, Times New Roman, serif" font-size="12" fill="#2D2D2D" text-anchor="middle">x</text>
  <text x="14.4" y="249.5" font-family="Georgia, Times New Roman, serif" font-size="12" fill="#2D2D2D" text-anchor="middle" transform="rotate(-90,14.399999999999999,249.5)">y</text>
</svg>