<?xml version="1.0" encoding="UTF-8"?>
<svg xmlns="http://www.w3.org/2000/svg" width="800" height="500" viewBox="0 0 800.0 500.0">
  <defs>
    <clipPath id="plot-clip">
      <rect x="77" y="66" width="583" height="367"/>
    </clipPath>
  </defs>
  <rect x="0" y="0" width="800" height="500" fill="#FFFFFF"/>
  <line x1="77" y1="422.613" x2="660" y2="422.613" stroke="#DDDDDD" stroke-width="1"/>
  <line x1="77" y1="336.057" x2="660" y2="336.057" stroke="#DDDDDD" stroke-width="1"/>
  <line x1="77" y1="249.5" x2="660" y2="249.5" stroke="#DDDDDD" stroke-width="1"/>
  <line x1="77" y1="162.943" x2="660" y2="162.943" stroke="#DDDDDD" stroke-width="1"/>
  <line x1="77" y1="76.3868" x2="660" y2="76.3868" stroke="#DDDDDD" stroke-width="1"/>
  <line x1="77" y1="433" x2="660" y2="433" stroke="#000000" stroke-width="0.75"/>
  <line x1="77" y1="66" x2="77" y2="433" stroke="#000000" stroke-width="0.75"/>
  <g clip-path="url(#plot-clip)">
    <polyline points="93.5,249.5 100.375,232.218 107.25,215.108 114.125,198.342 121,182.087 127.875,166.505 134.75,151.753 141.625,137.977 148.5,125.316 155.375,113.896 162.25,103.83 169.125,95.2202 176,88.1517 182.875,82.6954 189.75,78.9056 196.625,76.8204 203.5,76.4606 210.375,77.8297 217.25,80.9141 224.125,85.683 231,92.0886 237.875,100.067 244.75,109.539 251.625,120.409 258.5,132.568 265.375,145.897 272.25,160.26 279.125,175.515 286,191.509 292.875,208.083 299.75,225.07 306.625,242.302 313.5,259.605 320.375,276.808 327.25,293.738 334.125,310.225 341,326.106 347.875,341.222 354.75,355.421 361.625,368.561 368.5,380.513 375.375,391.155 382.25,400.381 389.125,408.1 396,414.235 402.875,418.723 409.75,421.521 416.625,422.6 423.5,421.949 430.375,419.576 437.25,415.502 444.125,409.771 451,402.438 457.875,393.576 464.75,383.276 471.625,371.638 478.5,358.781 485.375,344.831 492.25,329.929 499.125,314.223 506,297.871 512.875,281.035 519.75,263.884" fill="none" stroke="#000000" stroke-width="1.5" stroke-linejoin="round" stroke-linecap="round"/>
    <polyline points="93.5,76.3868 100.375,77.2516 107.25,79.8375 114.125,84.1186 121,90.0522 127.875,97.5789 134.75,106.624 141.625,117.096 148.5,128.891 155.375,141.891 162.25,155.967 169.125,170.977 176,186.771 182.875,203.192 189.75,220.076 196.625,237.254 203.5,254.555 210.375,271.805 217.25,288.832 224.125,305.466 231,321.541 237.875,336.896 244.75,351.377 251.625,364.841 258.5,377.153 265.375,388.189 272.25,397.839 279.125,406.007 286,412.611 292.875,417.586 299.75,420.881 306.625,422.463 313.5,422.318 320.375,420.446 327.25,416.866 334.125,411.613 341,404.741 347.875,396.317 354.75,386.427 361.625,375.168 368.5,362.654 375.375,349.01 382.25,334.371 389.125,318.884 396,302.703 402.875,285.992 409.75,268.915 416.625,251.645 423.5,234.353 430.375,217.212 437.25,200.394 444.125,184.067 451,168.394 457.875,153.53 464.75,139.626 471.625,126.82 478.5,115.239 485.375,105 492.25,96.2049 499.125,88.9412 506,83.2818 512.875,79.2832 519.75,76.9854" fill="none" stroke="#333333" stroke-width="1.5" stroke-linejoin="round" stroke-linecap="round"/>
  </g>
  <line x1="93.5" y1="433" x2="93.5" y2="438" stroke="#000000" stroke-width="0.75"/>
  <text x="93.5" y="451" font-family="Georgia, Times New Roman, serif" font-size="10" fill="#000000" text-anchor="middle">0</text>
  <line x1="231" y1="433" x2="231" y2="438" stroke="#000000" stroke-width="0.75"/>
  <text x="231" y="451" font-family="Georgia, Times New Roman, serif" font-size="10" fill="#000000" text-anchor="middle">2</text>
  <line x1="368.5" y1="433" x2="368.5" y2="438" stroke="#000000" stroke-width="0.75"/>
  <text x="368.5" y="451" font-family="Georgia, Times New Roman, serif" font-size="10" fill="#000000" text-anchor="middle">4</text>
  <line x1="506" y1="433" x2="506" y2="438" stroke="#000000" stroke-width="0.75"/>
  <text x="506" y="451" font-family="Georgia, Times New Roman, serif" font-size="10" fill="#000000" text-anchor="middle">6</text>
  <line x1="643.5" y1="433" x2="643.5" y2="438" stroke="#000000" stroke-width="0.75"/>
  <text x="643.5" y="451" font-family="Georgia, Times New Roman, serif" font-size="10" fill="#000000" text-anchor="middle">8</text>
  <line x1="72" y1="422.613" x2="77" y2="422.613" stroke="#000000" stroke-width="0.75"/>
  <text x="69" y="426.613" font-family="Georgia, Times New Roman, serif" font-size="10" fill="#000000" text-anchor="end">-1</text>
  <line x1="72" y1="336.057" x2="77" y2="336.057" stroke="#000000" stroke-width="0.75"/>
  <text x="69" y="340.057" font-family="Georgia, Times New Roman, serif" font-size="10" fill="#000000" text-anchor="end">-0.5</text>
  <line x1="72" y1="249.5" x2="77" y2="249.5" stroke="#000000" stroke-width="0.75"/>
  <text x="69" y="253.5" font-family="Georgia, Times New Roman, serif" font-size="10" fill="#000000" text-anchor="end">0</text>
  <line x1="72" y1="162.943" x2="77" y2="162.943" stroke="#000000" stroke-width="0.75"/>
  <text x="69" y="166.943" font-family="Georgia, Times New Roman, serif" font-size="10" fill="#000000" text-anchor="end">0.5</text>
  <line x1="72" y1="76.3868" x2="77" y2="76.3868" stroke="#000000" stroke-width="0.75"/>
  <text x="69" y="80.3868" font-family="Georgia, Times New Roman, serif" font-size="10" fill="#000000" text-anchor="end">1</text>
  <text x="368.5" y="56" font-family="Georgia, Times New Roman, serif" font-size="16" fill="#000000" text-anchor="middle">Print Theme</text>
  <text x="368.5" y="475" font-family="Georgia, Times New Roman, serif" font-size="12" fill="#000000" text-anchor="middle">x</text>
  <text x="12" y="249.5" font-family="Georgia, Times New Roman, serif" font-size="12" fill="#000000" text-anchor="middle" transform="rotate(-90,12,249.5)">y</text>
  <rect x="675" y="68" width="12" height="12" fill="#000000" rx="2"/>
  <text x="693" y="78" font-family="Georgia, Times New Roman, serif" font-size="10" fill="#000000" text-anchor="start">sin(x)</text>
  <rect x="675" y="90" width="12" height="12" fill="#333333" rx="2"/>
  <text x="693" y="100" font-family="Georgia, Times New Roman, serif" font-size="10" fill="#000000" text-anchor="start">cos(x)</text>
</svg>