<?xml version="1.0" encoding="UTF-8"?>
<svg xmlns="http://www.w3.org/2000/svg" width="600" height="420" viewBox="0 0 600.0 420.0">
  <defs>
    <clipPath id="plot-clip">
      <rect x="50" y="102.2" width="530" height="247.8"/>
    </clipPath>
  </defs>
  <rect x="0" y="0" width="600" height="420" fill="#F2EDE4"/>
  <line x1="50" y1="342.987" x2="580" y2="342.987" stroke="#D8D2C6" stroke-width="1"/>
  <line x1="50" y1="304.025" x2="580" y2="304.025" stroke="#D8D2C6" stroke-width="1"/>
  <line x1="50" y1="265.062" x2="580" y2="265.062" stroke="#D8D2C6" stroke-width="1"/>
  <line x1="50" y1="226.1" x2="580" y2="226.1" stroke="#D8D2C6" stroke-width="1"/>
  <line x1="50" y1="187.138" x2="580" y2="187.138" stroke="#D8D2C6" stroke-width="1"/>
  <line x1="50" y1="148.175" x2="580" y2="148.175" stroke="#D8D2C6" stroke-width="1"/>
  <line x1="50" y1="109.213" x2="580" y2="109.213" stroke="#D8D2C6" stroke-width="1"/>
  <line x1="50" y1="350" x2="580" y2="350" stroke="#CCCCCC" stroke-width="1"/>
  <g clip-path="url(#plot-clip)">
    <rect x="58.8333" y="203.034" width="70.6667" height="139.952" fill="#388EC1"/>
    <rect x="147.167" y="144.591" width="70.6667" height="198.396" fill="#388EC1"/>
    <rect x="235.5" y="313.921" width="70.6667" height="29.0658" fill="#388EC1"/>
    <rect x="323.833" y="309.791" width="70.6667" height="33.1958" fill="#388EC1"/>
    <rect x="412.167" y="310.025" width="70.6667" height="32.9621" fill="#388EC1"/>
    <rect x="500.5" y="319.064" width="70.6667" height="23.9228" fill="#388EC1"/>
  </g>
  <line x1="94.1667" y1="350" x2="94.1667" y2="355" stroke="#CCCCCC" stroke-width="1"/>
  <text x="94.1667" y="368" font-family="Georgia, Times New Roman, serif" font-size="11" fill="#333333" text-anchor="middle">China</text>
  <line x1="182.5" y1="350" x2="182.5" y2="355" stroke="#CCCCCC" stroke-width="1"/>
  <text x="182.5" y="368" font-family="Georgia, Times New Roman, serif" font-size="11" fill="#333333" text-anchor="middle">United States</text>
  <line x1="270.833" y1="350" x2="270.833" y2="355" stroke="#CCCCCC" stroke-width="1"/>
  <text x="270.833" y="368" font-family="Georgia, Times New Roman, serif" font-size="11" fill="#333333" text-anchor="middle">India</text>
  <line x1="359.167" y1="350" x2="359.167" y2="355" stroke="#CCCCCC" stroke-width="1"/>
  <text x="359.167" y="368" font-family="Georgia, Times New Roman, serif" font-size="11" fill="#333333" text-anchor="middle">Germany</text>
  <line x1="447.5" y1="350" x2="447.5" y2="355" stroke="#CCCCCC" stroke-width="1"/>
  <text x="447.5" y="368" font-family="Georgia, Times New Roman, serif" font-size="11" fill="#333333" text-anchor="middle">Japan</text>
  <line x1="535.833" y1="350" x2="535.833" y2="355" stroke="#CCCCCC" stroke-width="1"/>
  <text x="535.833" y="368" font-family="Georgia, Times New Roman, serif" font-size="11" fill="#333333" text-anchor="middle">UK</text>
  <text x="42" y="346.987" font-family="Georgia, Times New Roman, serif" font-size="11" fill="#333333" text-anchor="end">0</text>
  <text x="42" y="308.025" font-family="Georgia, Times New Roman, serif" font-size="11" fill="#333333" text-anchor="end">5</text>
  <text x="42" y="269.062" font-family="Georgia, Times New Roman, serif" font-size="11" fill="#333333" text-anchor="end">10</text>
  <text x="42" y="230.1" font-family="Georgia, Times New Roman, serif" font-size="11" fill="#333333" text-anchor="end">15</text>
  <text x="42" y="191.138" font-family="Georgia, Times New Roman, serif" font-size="11" fill="#333333" text-anchor="end">20</text>
  <text x="42" y="152.175" font-family="Georgia, Times New Roman, serif" font-size="11" fill="#333333" text-anchor="end">25</text>
  <text x="42" y="113.213" font-family="Georgia, Times New Roman, serif" font-size="11" fill="#333333" text-anchor="end">30</text>
  <text x="50" y="52" font-family="Georgia, Times New Roman, serif" font-size="22" fill="#333333" text-anchor="start" font-weight="bold">The world's largest economies</text>
  <text x="50" y="76" font-family="Georgia, Times New Roman, serif" font-size="14" fill="#555555" text-anchor="start">GDP in 2023, trillions of dollars</text>
  <text x="12" y="98.2" font-family="Georgia, Times New Roman, serif" font-size="12" fill="#333333" text-anchor="start">$, trillions</text>
  <text x="50" y="410" font-family="Georgia, Times New Roman, serif" font-size="10" fill="#666666" text-anchor="start">Source: World Bank</text>
</svg>