<?xml version="1.0" encoding="UTF-8"?>
<svg xmlns="http://www.w3.org/2000/svg" width="800" height="500" viewBox="0 0 800.0 500.0">
  <defs>
    <clipPath id="plot-clip">
      <rect x="77" y="66" width="583" height="367"/>
    </clipPath>
  </defs>
  <rect x="0" y="0" width="800" height="500" fill="#FFFFFF"/>
  <line x1="77" y1="422.613" x2="660" y2="422.613" stroke="#EEEEEE" stroke-width="1"/>
  <line x1="77" y1="373.152" x2="660" y2="373.152" stroke="#EEEEEE" stroke-width="1"/>
  <line x1="77" y1="323.691" x2="660" y2="323.691" stroke="#EEEEEE" stroke-width="1"/>
  <line x1="77" y1="274.23" x2="660" y2="274.23" stroke="#EEEEEE" stroke-width="1"/>
  <line x1="77" y1="224.77" x2="660" y2="224.77" stroke="#EEEEEE" stroke-width="1"/>
  <line x1="77" y1="175.309" x2="660" y2="175.309" stroke="#EEEEEE" stroke-width="1"/>
  <line x1="77" y1="125.848" x2="660" y2="125.848" stroke="#EEEEEE" stroke-width="1"/>
  <line x1="77" y1="76.3868" x2="660" y2="76.3868" stroke="#EEEEEE" stroke-width="1"/>
  <line x1="77" y1="433" x2="660" y2="433" stroke="#333333" stroke-width="1"/>
  <g clip-path="url(#plot-clip)">
    <circle cx="394.2" cy="245.712" r="4" fill="#4E79A7"/>
    <circle cx="391.483" cy="233.714" r="4" fill="#C56A00"/>
    <circle cx="397.29" cy="274.912" r="4" fill="#4E79A7"/>
    <circle cx="473.973" cy="294.764" r="4" fill="#E15759"/>
    <circle cx="395.756" cy="242.644" r="4" fill="#E15759"/>
    <circle cx="266.607" cy="153.282" r="4" fill="#4E79A7"/>
    <circle cx="439.119" cy="220.925" r="4" fill="#4E79A7"/>
    <circle cx="382.58" cy="222.425" r="4" fill="#C56A00"/>
    <circle cx="387.33" cy="217.896" r="4" fill="#4E79A7"/>
    <circle cx="418.712" cy="236.01" r="4" fill="#4E79A7"/>
    <circle cx="429.688" cy="218.866" r="4" fill="#E15759"/>
    <circle cx="517.493" cy="267.817" r="4" fill="#C56A00"/>
    <circle cx="469.697" cy="259.072" r="4" fill="#C56A00"/>
    <circle cx="418.205" cy="264.91" r="4" fill="#E15759"/>
    <circle cx="338.173" cy="177.263" r="4" fill="#E15759"/>
    <circle cx="312.118" cy="177.06" r="4" fill="#4E79A7"/>
    <circle cx="431.012" cy="216.016" r="4" fill="#4E79A7"/>
    <circle cx="531.402" cy="297.655" r="4" fill="#C56A00"/>
    <circle cx="411.713" cy="188.339" r="4" fill="#C56A00"/>
    <circle cx="397.761" cy="238.488" r="4" fill="#C56A00"/>
    <circle cx="457.925" cy="220.515" r="4" fill="#E15759"/>
    <circle cx="270.737" cy="162.797" r="4" fill="#C56A00"/>
    <circle cx="378.342" cy="232.602" r="4" fill="#E15759"/>
    <circle cx="454.02" cy="285.852" r="4" fill="#4E79A7"/>
    <circle cx="490.135" cy="279.868" r="4" fill="#C56A00"/>
    <circle cx="385.098" cy="188.037" r="4" fill="#4E79A7"/>
    <circle cx="443.294" cy="232.354" r="4" fill="#E15759"/>
    <circle cx="431.189" cy="229.411" r="4" fill="#4E79A7"/>
    <circle cx="481.548" cy="330.565" r="4" fill="#4E79A7"/>
    <circle cx="302.825" cy="164.221" r="4" fill="#C56A00"/>
    <circle cx="461.364" cy="247.897" r="4" fill="#C56A00"/>
    <circle cx="264.988" cy="176.348" r="4" fill="#4E79A7"/>
    <circle cx="160.762" cy="125.776" r="4" fill="#4E79A7"/>
    <circle cx="350.565" cy="205.902" r="4" fill="#E15759"/>
    <circle cx="321.438" cy="148.52" r="4" fill="#C56A00"/>
    <circle cx="490.381" cy="302.35" r="4" fill="#E15759"/>
    <circle cx="470.416" cy="276.783" r="4" fill="#C56A00"/>
    <circle cx="292.844" cy="143.099" r="4" fill="#4E79A7"/>
    <circle cx="487.68" cy="285.93" r="4" fill="#E15759"/>
    <circle cx="313.292" cy="196.083" r="4" fill="#E15759"/>
    <circle cx="399.654" cy="228.149" r="4" fill="#E15759"/>
    <circle cx="380.075" cy="251.404" r="4" fill="#E15759"/>
    <circle cx="418.574" cy="234.655" r="4" fill="#E15759"/>
    <circle cx="484.971" cy="303.447" r="4" fill="#4E79A7"/>
    <circle cx="467.979" cy="243.084" r="4" fill="#C56A00"/>
    <circle cx="440.775" cy="251.196" r="4" fill="#4E79A7"/>
    <circle cx="469.067" cy="209.053" r="4" fill="#C56A00"/>
    <circle cx="452.901" cy="250.436" r="4" fill="#4E79A7"/>
    <circle cx="348.67" cy="171.117" r="4" fill="#4E79A7"/>
    <circle cx="340.148" cy="232.829" r="4" fill="#E15759"/>
    <circle cx="363.474" cy="215.367" r="4" fill="#4E79A7"/>
    <circle cx="454.865" cy="250.379" r="4" fill="#E15759"/>
    <circle cx="384.203" cy="179.613" r="4" fill="#C56A00"/>
    <circle cx="628.014" cy="387.139" r="4" fill="#C56A00"/>
    <circle cx="330.538" cy="171.261" r="4" fill="#E15759"/>
    <circle cx="304.178" cy="167.86" r="4" fill="#E15759"/>
    <circle cx="480.242" cy="233.225" r="4" fill="#C56A00"/>
    <circle cx="541.846" cy="284.557" r="4" fill="#E15759"/>
    <circle cx="455.465" cy="257.386" r="4" fill="#4E79A7"/>
    <circle cx="486.591" cy="287.249" r="4" fill="#4E79A7"/>
    <circle cx="542.27" cy="333.256" r="4" fill="#E15759"/>
    <circle cx="398.92" cy="225.364" r="4" fill="#C56A00"/>
    <circle cx="273.621" cy="171.837" r="4" fill="#C56A00"/>
    <circle cx="357.618" cy="159.435" r="4" fill="#E15759"/>
    <circle cx="497.63" cy="295.019" r="4" fill="#4E79A7"/>
    <circle cx="271.667" cy="158.189" r="4" fill="#C56A00"/>
    <circle cx="410.947" cy="275.056" r="4" fill="#C56A00"/>
    <circle cx="431.662" cy="256.466" r="4" fill="#E15759"/>
    <circle cx="378.03" cy="213.218" r="4" fill="#4E79A7"/>
    <circle cx="476.014" cy="248.645" r="4" fill="#E15759"/>
    <circle cx="462.545" cy="226.426" r="4" fill="#4E79A7"/>
    <circle cx="626.661" cy="345.98" r="4" fill="#4E79A7"/>
    <circle cx="466.24" cy="291.729" r="4" fill="#C56A00"/>
    <circle cx="350.328" cy="194.403" r="4" fill="#C56A00"/>
    <circle cx="354.816" cy="195.201" r="4" fill="#4E79A7"/>
    <circle cx="329.379" cy="183.017" r="4" fill="#4E79A7"/>
    <circle cx="497.572" cy="297.196" r="4" fill="#E15759"/>
    <circle cx="354.341" cy="179.718" r="4" fill="#4E79A7"/>
    <circle cx="401.161" cy="229.152" r="4" fill="#C56A00"/>
    <circle cx="478.434" cy="252.933" r="4" fill="#C56A00"/>
  </g>
  <line x1="93.5" y1="433" x2="93.5" y2="438" stroke="#333333" stroke-width="1"/>
  <text x="93.5" y="451" font-family="Inter, Helvetica Neue, Arial, sans-serif" font-size="10" fill="#333333" text-anchor="middle">0</text>
  <line x1="172.071" y1="433" x2="172.071" y2="438" stroke="#333333" stroke-width="1"/>
  <text x="172.071" y="451" font-family="Inter, Helvetica Neue, Arial, sans-serif" font-size="10" fill="#333333" text-anchor="middle">0.5</text>
  <line x1="250.643" y1="433" x2="250.643" y2="438" stroke="#333333" stroke-width="1"/>
  <text x="250.643" y="451" font-family="Inter, Helvetica Neue, Arial, sans-serif" font-size="10" fill="#333333" text-anchor="middle">1</text>
  <line x1="329.214" y1="433" x2="329.214" y2="438" stroke="#333333" stroke-width="1"/>
  <text x="329.214" y="451" font-family="Inter, Helvetica Neue, Arial, sans-serif" font-size="10" fill="#333333" text-anchor="middle">1.5</text>
  <line x1="407.786" y1="433" x2="407.786" y2="438" stroke="#333333" stroke-width="1"/>
  <text x="407.786" y="451" font-family="Inter, Helvetica Neue, Arial, sans-serif" font-size="10" fill="#333333" text-anchor="middle">2</text>
  <line x1="486.357" y1="433" x2="486.357" y2="438" stroke="#333333" stroke-width="1"/>
  <text x="486.357" y="451" font-family="Inter, Helvetica Neue, Arial, sans-serif" font-size="10" fill="#333333" text-anchor="middle">2.5</text>
  <line x1="564.929" y1="433" x2="564.929" y2="438" stroke="#333333" stroke-width="1"/>
  <text x="564.929" y="451" font-family="Inter, Helvetica Neue, Arial, sans-serif" font-size="10" fill="#333333" text-anchor="middle">3</text>
  <line x1="643.5" y1="433" x2="643.5" y2="438" stroke="#333333" stroke-width="1"/>
  <text x="643.5" y="451" font-family="Inter, Helvetica Neue, Arial, sans-serif" font-size="10" fill="#333333" text-anchor="middle">3.5</text>
  <line x1="72" y1="422.613" x2="77" y2="422.613" stroke="#333333" stroke-width="1"/>
  <text x="69" y="426.613" font-family="Inter, Helvetica Neue, Arial, sans-serif" font-size="10" fill="#333333" text-anchor="end">10</text>
  <line x1="72" y1="373.152" x2="77" y2="373.152" stroke="#333333" stroke-width="1"/>
  <text x="69" y="377.152" font-family="Inter, Helvetica Neue, Arial, sans-serif" font-size="10" fill="#333333" text-anchor="end">15</text>
  <line x1="72" y1="323.691" x2="77" y2="323.691" stroke="#333333" stroke-width="1"/>
  <text x="69" y="327.691" font-family="Inter, Helvetica Neue, Arial, sans-serif" font-size="10" fill="#333333" text-anchor="end">20</text>
  <line x1="72" y1="274.23" x2="77" y2="274.23" stroke="#333333" stroke-width="1"/>
  <text x="69" y="278.23" font-family="Inter, Helvetica Neue, Arial, sans-serif" font-size="10" fill="#333333" text-anchor="end">25</text>
  <line x1="72" y1="224.77" x2="77" y2="224.77" stroke="#333333" stroke-width="1"/>
  <text x="69" y="228.77" font-family="Inter, Helvetica Neue, Arial, sans-serif" font-size="10" fill="#333333" text-anchor="end">30</text>
  <line x1="72" y1="175.309" x2="77" y2="175.309" stroke="#333333" stroke-width="1"/>
  <text x="69" y="179.309" font-family="Inter, Helvetica Neue, Arial, sans-serif" font-size="10" fill="#333333" text-anchor="end">35</text>
  <line x1="72" y1="125.848" x2="77" y2="125.848" stroke="#333333" stroke-width="1"/>
  <text x="69" y="129.848" font-family="Inter, Helvetica Neue, Arial, sans-serif" font-size="10" fill="#333333" text-anchor="end">40</text>
  <line x1="72" y1="76.3868" x2="77" y2="76.3868" stroke="#333333" stroke-width="1"/>
  <text x="69" y="80.3868" font-family="Inter, Helvetica Neue, Arial, sans-serif" font-size="10" fill="#333333" text-anchor="end">45</text>
  <text x="368.5" y="56" font-family="Inter, Helvetica Neue, Arial, sans-serif" font-size="16" fill="#333333" text-anchor="middle">Fuel Efficiency by Vehicle Weight</text>
  <text x="368.5" y="475" font-family="Inter, Helvetica Neue, Arial, sans-serif" font-size="12" fill="#333333" text-anchor="middle">Weight (1000 lbs)</text>
  <text x="12" y="249.5" font-family="Inter, Helvetica Neue, Arial, sans-serif" font-size="12" fill="#333333" text-anchor="middle" transform="rotate(-90,12,249.5)">Miles per Gallon</text>
  <rect x="675" y="68" width="12" height="12" fill="#4E79A7" rx="2"/>
  <text x="693" y="78" font-family="Inter, Helvetica Neue, Arial, sans-serif" font-size="10" fill="#333333" text-anchor="start">USA</text>
  <rect x="675" y="90" width="12" height="12" fill="#C56A00" rx="2"/>
  <text x="693" y="100" font-family="Inter, Helvetica Neue, Arial, sans-serif" font-size="10" fill="#333333" text-anchor="start">Europe</text>
  <rect x="675" y="112" width="12" height="12" fill="#E15759" rx="2"/>
  <text x="693" y="122" font-family="Inter, Helvetica Neue, Arial, sans-serif" font-size="10" fill="#333333" text-anchor="start">Japan</text>
</svg>