<?xml version="1.0" encoding="UTF-8"?>
<svg xmlns="http://www.w3.org/2000/svg" width="600" height="420" viewBox="0 0 600.0 420.0">
  <defs>
    <clipPath id="plot-clip">
      <rect x="50" y="102.2" width="530" height="259.8"/>
    </clipPath>
  </defs>
  <rect x="0" y="0" width="600" height="420" fill="#F2EDE4"/>
  <line x1="50" y1="354.647" x2="580" y2="354.647" stroke="#D8D2C6" stroke-width="1"/>
  <line x1="50" y1="313.798" x2="580" y2="313.798" stroke="#D8D2C6" stroke-width="1"/>
  <line x1="50" y1="272.949" x2="580" y2="272.949" stroke="#D8D2C6" stroke-width="1"/>
  <line x1="50" y1="232.1" x2="580" y2="232.1" stroke="#D8D2C6" stroke-width="1"/>
  <line x1="50" y1="191.251" x2="580" y2="191.251" stroke="#D8D2C6" stroke-width="1"/>
  <line x1="50" y1="150.402" x2="580" y2="150.402" stroke="#D8D2C6" stroke-width="1"/>
  <line x1="50" y1="109.553" x2="580" y2="109.553" stroke="#D8D2C6" stroke-width="1"/>
  <line x1="50" y1="362" x2="580" y2="362" stroke="#CCCCCC" stroke-width="1"/>
  <g clip-path="url(#plot-clip)">
    <rect x="58.8333" y="207.917" width="70.6667" height="146.73" fill="#388EC1"/>
    <rect x="147.167" y="146.644" width="70.6667" height="208.003" fill="#388EC1"/>
    <rect x="235.5" y="324.174" width="70.6667" height="30.4734" fill="#388EC1"/>
    <rect x="323.833" y="319.844" width="70.6667" height="34.8034" fill="#388EC1"/>
    <rect x="412.167" y="320.089" width="70.6667" height="34.5583" fill="#388EC1"/>
    <rect x="500.5" y="329.566" width="70.6667" height="25.0813" fill="#388EC1"/>
  </g>
  <line x1="94.1667" y1="362" x2="94.1667" y2="367" stroke="#CCCCCC" stroke-width="1"/>
  <text x="94.1667" y="380" font-family="Georgia, Times New Roman, serif" font-size="11" fill="#333333" text-anchor="middle">China</text>
  <line x1="182.5" y1="362" x2="182.5" y2="367" stroke="#CCCCCC" stroke-width="1"/>
  <text x="182.5" y="380" font-family="Georgia, Times New Roman, serif" font-size="11" fill="#333333" text-anchor="middle">United States</text>
  <line x1="270.833" y1="362" x2="270.833" y2="367" stroke="#CCCCCC" stroke-width="1"/>
  <text x="270.833" y="380" font-family="Georgia, Times New Roman, serif" font-size="11" fill="#333333" text-anchor="middle">India</text>
  <line x1="359.167" y1="362" x2="359.167" y2="367" stroke="#CCCCCC" stroke-width="1"/>
  <text x="359.167" y="380" font-family="Georgia, Times New Roman, serif" font-size="11" fill="#333333" text-anchor="middle">Germany</text>
  <line x1="447.5" y1="362" x2="447.5" y2="367" stroke="#CCCCCC" stroke-width="1"/>
  <text x="447.5" y="380" font-family="Georgia, Times New Roman, serif" font-size="11" fill="#333333" text-anchor="middle">Japan</text>
  <line x1="535.833" y1="362" x2="535.833" y2="367" stroke="#CCCCCC" stroke-width="1"/>
  <text x="535.833" y="380" font-family="Georgia, Times New Roman, serif" font-size="11" fill="#333333" text-anchor="middle">UK</text>
  <line x1="45" y1="354.647" x2="50" y2="354.647" stroke="#CCCCCC" stroke-width="1"/>
  <text x="42" y="358.647" font-family="Georgia, Times New Roman, serif" font-size="11" fill="#333333" text-anchor="end">0</text>
  <line x1="45" y1="313.798" x2="50" y2="313.798" stroke="#CCCCCC" stroke-width="1"/>
  <text x="42" y="317.798" font-family="Georgia, Times New Roman, serif" font-size="11" fill="#333333" text-anchor="end">5</text>
  <line x1="45" y1="272.949" x2="50" y2="272.949" stroke="#CCCCCC" stroke-width="1"/>
  <text x="42" y="276.949" font-family="Georgia, Times New Roman, serif" font-size="11" fill="#333333" text-anchor="end">10</text>
  <line x1="45" y1="232.1" x2="50" y2="232.1" stroke="#CCCCCC" stroke-width="1"/>
  <text x="42" y="236.1" font-family="Georgia, Times New Roman, serif" font-size="11" fill="#333333" text-anchor="end">15</text>
  <line x1="45" y1="191.251" x2="50" y2="191.251" stroke="#CCCCCC" stroke-width="1"/>
  <text x="42" y="195.251" font-family="Georgia, Times New Roman, serif" font-size="11" fill="#333333" text-anchor="end">20</text>
  <line x1="45" y1="150.402" x2="50" y2="150.402" stroke="#CCCCCC" stroke-width="1"/>
  <text x="42" y="154.402" font-family="Georgia, Times New Roman, serif" font-size="11" fill="#333333" text-anchor="end">25</text>
  <line x1="45" y1="109.553" x2="50" y2="109.553" stroke="#CCCCCC" stroke-width="1"/>
  <text x="42" y="113.553" font-family="Georgia, Times New Roman, serif" font-size="11" fill="#333333" text-anchor="end">30</text>
  <text x="50" y="52" font-family="Georgia, Times New Roman, serif" font-size="22" fill="#333333" text-anchor="start" font-weight="bold">The world's largest economies</text>
  <text x="50" y="76" font-family="Georgia, Times New Roman, serif" font-size="14" fill="#555555" text-anchor="start">GDP in 2023, trillions of dollars</text>
  <text x="50" y="98.2" font-family="Georgia, Times New Roman, serif" font-size="12" fill="#333333" text-anchor="start">$, trillions</text>
  <text x="50" y="390" font-family="Georgia, Times New Roman, serif" font-size="10" fill="#666666" text-anchor="start">Source: World Bank</text>
</svg>