<?xml version="1.0" encoding="UTF-8"?>
<svg xmlns="http://www.w3.org/2000/svg" width="800" height="500" viewBox="0 0 800.0 500.0">
  <defs>
    <clipPath id="plot-clip">
      <rect x="77" y="66" width="703" height="367"/>
    </clipPath>
  </defs>
  <rect x="0" y="0" width="800" height="500" fill="#FFFFFF"/>
  <line x1="77" y1="422.613" x2="780" y2="422.613" stroke="#EEEEEE" stroke-width="1"/>
  <line x1="77" y1="353.368" x2="780" y2="353.368" stroke="#EEEEEE" stroke-width="1"/>
  <line x1="77" y1="284.123" x2="780" y2="284.123" stroke="#EEEEEE" stroke-width="1"/>
  <line x1="77" y1="214.877" x2="780" y2="214.877" stroke="#EEEEEE" stroke-width="1"/>
  <line x1="77" y1="145.632" x2="780" y2="145.632" stroke="#EEEEEE" stroke-width="1"/>
  <line x1="77" y1="76.3868" x2="780" y2="76.3868" stroke="#EEEEEE" stroke-width="1"/>
  <line x1="77" y1="433" x2="780" y2="433" stroke="#333333" stroke-width="1"/>
  <g clip-path="url(#plot-clip)">
    <circle cx="96.8962" cy="422.613" r="4" fill="#4E79A7"/>
    <circle cx="163.217" cy="419.151" r="4" fill="#4E79A7"/>
    <circle cx="229.538" cy="408.764" r="4" fill="#4E79A7"/>
    <circle cx="295.858" cy="391.453" r="4" fill="#4E79A7"/>
    <circle cx="362.179" cy="367.217" r="4" fill="#4E79A7"/>
    <circle cx="428.5" cy="336.057" r="4" fill="#4E79A7"/>
    <circle cx="494.821" cy="297.972" r="4" fill="#4E79A7"/>
    <circle cx="561.142" cy="252.962" r="4" fill="#4E79A7"/>
    <circle cx="627.462" cy="201.028" r="4" fill="#4E79A7"/>
    <circle cx="693.783" cy="142.17" r="4" fill="#4E79A7"/>
    <circle cx="760.104" cy="76.3868" r="4" fill="#4E79A7"/>
  </g>
  <line x1="96.8962" y1="433" x2="96.8962" y2="438" stroke="#333333" stroke-width="1"/>
  <text x="96.8962" y="451" font-family="Inter, Helvetica Neue, Arial, sans-serif" font-size="10" fill="#333333" text-anchor="middle">0</text>
  <line x1="229.538" y1="433" x2="229.538" y2="438" stroke="#333333" stroke-width="1"/>
  <text x="229.538" y="451" font-family="Inter, Helvetica Neue, Arial, sans-serif" font-size="10" fill="#333333" text-anchor="middle">2</text>
  <line x1="362.179" y1="433" x2="362.179" y2="438" stroke="#333333" stroke-width="1"/>
  <text x="362.179" y="451" font-family="Inter, Helvetica Neue, Arial, sans-serif" font-size="10" fill="#333333" text-anchor="middle">4</text>
  <line x1="494.821" y1="433" x2="494.821" y2="438" stroke="#333333" stroke-width="1"/>
  <text x="494.821" y="451" font-family="Inter, Helvetica Neue, Arial, sans-serif" font-size="10" fill="#333333" text-anchor="middle">6</text>
  <line x1="627.462" y1="433" x2="627.462" y2="438" stroke="#333333" stroke-width="1"/>
  <text x="627.462" y="451" font-family="Inter, Helvetica Neue, Arial, sans-serif" font-size="10" fill="#333333" text-anchor="middle">8</text>
  <line x1="760.104" y1="433" x2="760.104" y2="438" stroke="#333333" stroke-width="1"/>
  <text x="760.104" y="451" font-family="Inter, Helvetica Neue, Arial, sans-serif" font-size="10" fill="#333333" text-anchor="middle">10</text>
  <line x1="72" y1="422.613" x2="77" y2="422.613" stroke="#333333" stroke-width="1"/>
  <text x="69" y="426.613" font-family="Inter, Helvetica Neue, Arial, sans-serif" font-size="10" fill="#333333" text-anchor="end">0</text>
  <line x1="72" y1="353.368" x2="77" y2="353.368" stroke="#333333" stroke-width="1"/>
  <text x="69" y="357.368" font-family="Inter, Helvetica Neue, Arial, sans-serif" font-size="10" fill="#333333" text-anchor="end">20</text>
  <line x1="72" y1="284.123" x2="77" y2="284.123" stroke="#333333" stroke-width="1"/>
  <text x="69" y="288.123" font-family="Inter, Helvetica Neue, Arial, sans-serif" font-size="10" fill="#333333" text-anchor="end">40</text>
  <line x1="72" y1="214.877" x2="77" y2="214.877" stroke="#333333" stroke-width="1"/>
  <text x="69" y="218.877" font-family="Inter, Helvetica Neue, Arial, sans-serif" font-size="10" fill="#333333" text-anchor="end">60</text>
  <line x1="72" y1="145.632" x2="77" y2="145.632" stroke="#333333" stroke-width="1"/>
  <text x="69" y="149.632" font-family="Inter, Helvetica Neue, Arial, sans-serif" font-size="10" fill="#333333" text-anchor="end">80</text>
  <line x1="72" y1="76.3868" x2="77" y2="76.3868" stroke="#333333" stroke-width="1"/>
  <text x="69" y="80.3868" font-family="Inter, Helvetica Neue, Arial, sans-serif" font-size="10" fill="#333333" text-anchor="end">100</text>
  <text x="428.5" y="56" font-family="Inter, Helvetica Neue, Arial, sans-serif" font-size="16" fill="#333333" text-anchor="middle">x squared</text>
  <text x="428.5" y="475" font-family="Inter, Helvetica Neue, Arial, sans-serif" font-size="12" fill="#333333" text-anchor="middle">x</text>
  <text x="12" y="249.5" font-family="Inter, Helvetica Neue, Arial, sans-serif" font-size="12" fill="#333333" text-anchor="middle" transform="rotate(-90,12,249.5)">x^2</text>
</svg>