<?xml version="1.0" encoding="UTF-8"?>
<svg xmlns="http://www.w3.org/2000/svg" width="800" height="500" viewBox="0 0 800.0 500.0">
  <defs>
    <clipPath id="plot-clip">
      <rect x="79" y="80" width="581" height="341"/>
    </clipPath>
  </defs>
  <rect x="0" y="0" width="800" height="500" fill="#FFFFFF"/>
  <line x1="79" y1="421" x2="660" y2="421" stroke="#EEEEEE" stroke-width="1"/>
  <line x1="79" y1="335.75" x2="660" y2="335.75" stroke="#EEEEEE" stroke-width="1"/>
  <line x1="79" y1="250.5" x2="660" y2="250.5" stroke="#EEEEEE" stroke-width="1"/>
  <line x1="79" y1="165.25" x2="660" y2="165.25" stroke="#EEEEEE" stroke-width="1"/>
  <line x1="79" y1="80" x2="660" y2="80" stroke="#EEEEEE" stroke-width="1"/>
  <line x1="79" y1="421" x2="660" y2="421" stroke="#333333" stroke-width="1"/>
  <g clip-path="url(#plot-clip)">
    <polyline points="79,250.5 86.2625,233.478 93.525,216.627 100.787,200.114 108.05,184.104 115.312,168.758 122.575,154.228 129.838,140.661 137.1,128.191 144.363,116.943 151.625,107.029 158.887,98.5491 166.15,91.5873 173.413,86.2133 180.675,82.4808 187.938,80.4271 195.2,80.0727 202.462,81.4211 209.725,84.459 216.987,89.1558 224.25,95.4648 231.513,103.323 238.775,112.651 246.037,123.357 253.3,135.334 260.562,148.46 267.825,162.607 275.087,177.632 282.35,193.385 289.612,209.708 296.875,226.439 304.138,243.41 311.4,260.453 318.663,277.396 325.925,294.07 333.188,310.309 340.45,325.95 347.713,340.837 354.975,354.822 362.238,367.764 369.5,379.535 376.762,390.016 384.025,399.104 391.287,406.706 398.55,412.748 405.812,417.169 413.075,419.924 420.338,420.987 427.6,420.346 434.863,418.008 442.125,413.997 449.387,408.351 456.65,401.129 463.912,392.402 471.175,382.256 478.438,370.795 485.7,358.131 492.963,344.392 500.225,329.715 507.488,314.246 514.75,298.14 522.013,281.559 529.275,264.667" fill="none" stroke="#4E79A7" stroke-width="2.5" stroke-linejoin="round" stroke-linecap="round"/>
    <polyline points="79,80 86.2625,80.8518 93.525,83.3986 100.787,87.6151 108.05,93.4591 115.312,100.872 122.575,109.78 129.838,120.094 137.1,131.712 144.363,144.516 151.625,158.378 158.887,173.162 166.15,188.718 173.413,204.891 180.675,221.521 187.938,238.439 195.2,255.479 202.462,272.468 209.725,289.238 216.987,305.621 224.25,321.453 231.513,336.576 238.775,350.839 246.037,364.1 253.3,376.226 260.562,387.095 267.825,396.6 275.087,404.644 282.35,411.149 289.612,416.048 296.875,419.294 304.138,420.853 311.4,420.709 318.663,418.865 325.925,415.339 333.188,410.166 340.45,403.397 347.713,395.101 354.975,385.36 362.238,374.271 369.5,361.946 376.762,348.507 384.025,334.089 391.287,318.836 398.55,302.9 405.812,286.441 413.075,269.622 420.338,252.612 427.6,235.581 434.863,218.7 442.125,202.136 449.387,186.055 456.65,170.618 463.912,155.979 471.175,142.285 478.438,129.672 485.7,118.266 492.963,108.181 500.225,99.5189 507.488,92.3649 514.75,86.791 522.013,82.8527 529.275,80.5896" fill="none" stroke="#C56A00" stroke-width="2.5" stroke-linejoin="round" stroke-linecap="round"/>
  </g>
  <line x1="79" y1="421" x2="79" y2="426" stroke="#333333" stroke-width="1"/>
  <text x="79" y="439" font-family="Inter, Helvetica Neue, Arial, sans-serif" font-size="12" fill="#333333" text-anchor="middle">0</text>
  <line x1="224.25" y1="421" x2="224.25" y2="426" stroke="#333333" stroke-width="1"/>
  <text x="224.25" y="439" font-family="Inter, Helvetica Neue, Arial, sans-serif" font-size="12" fill="#333333" text-anchor="middle">2</text>
  <line x1="369.5" y1="421" x2="369.5" y2="426" stroke="#333333" stroke-width="1"/>
  <text x="369.5" y="439" font-family="Inter, Helvetica Neue, Arial, sans-serif" font-size="12" fill="#333333" text-anchor="middle">4</text>
  <line x1="514.75" y1="421" x2="514.75" y2="426" stroke="#333333" stroke-width="1"/>
  <text x="514.75" y="439" font-family="Inter, Helvetica Neue, Arial, sans-serif" font-size="12" fill="#333333" text-anchor="middle">6</text>
  <line x1="660" y1="421" x2="660" y2="426" stroke="#333333" stroke-width="1"/>
  <text x="660" y="439" font-family="Inter, Helvetica Neue, Arial, sans-serif" font-size="12" fill="#333333" text-anchor="middle">8</text>
  <line x1="74" y1="421" x2="79" y2="421" stroke="#333333" stroke-width="1"/>
  <text x="71" y="425" font-family="Inter, Helvetica Neue, Arial, sans-serif" font-size="12" fill="#333333" text-anchor="end">-1</text>
  <line x1="74" y1="335.75" x2="79" y2="335.75" stroke="#333333" stroke-width="1"/>
  <text x="71" y="339.75" font-family="Inter, Helvetica Neue, Arial, sans-serif" font-size="12" fill="#333333" text-anchor="end">-0.5</text>
  <line x1="74" y1="250.5" x2="79" y2="250.5" stroke="#333333" stroke-width="1"/>
  <text x="71" y="254.5" font-family="Inter, Helvetica Neue, Arial, sans-serif" font-size="12" fill="#333333" text-anchor="end">0</text>
  <line x1="74" y1="165.25" x2="79" y2="165.25" stroke="#333333" stroke-width="1"/>
  <text x="71" y="169.25" font-family="Inter, Helvetica Neue, Arial, sans-serif" font-size="12" fill="#333333" text-anchor="end">0.5</text>
  <line x1="74" y1="80" x2="79" y2="80" stroke="#333333" stroke-width="1"/>
  <text x="71" y="84" font-family="Inter, Helvetica Neue, Arial, sans-serif" font-size="12" fill="#333333" text-anchor="end">1</text>
  <text x="369.5" y="70" font-family="Inter, Helvetica Neue, Arial, sans-serif" font-size="20" fill="#333333" text-anchor="middle">Theme: bluesky</text>
  <text x="369.5" y="470" font-family="Inter, Helvetica Neue, Arial, sans-serif" font-size="14" fill="#333333" text-anchor="middle">x</text>
  <text x="14" y="250.5" font-family="Inter, Helvetica Neue, Arial, sans-serif" font-size="14" fill="#333333" text-anchor="middle" transform="rotate(-90,14.0,250.5)">f(x)</text>
  <rect x="675" y="82" width="12" height="12" fill="#4E79A7" rx="2"/>
  <text x="693" y="92" font-family="Inter, Helvetica Neue, Arial, sans-serif" font-size="12" fill="#333333" text-anchor="start">sin(x)</text>
  <rect x="675" y="104" width="12" height="12" fill="#C56A00" rx="2"/>
  <text x="693" y="114" font-family="Inter, Helvetica Neue, Arial, sans-serif" font-size="12" fill="#333333" text-anchor="start">cos(x)</text>
</svg>