<?xml version="1.0" encoding="UTF-8"?>
<svg xmlns="http://www.w3.org/2000/svg" width="800" height="500" viewBox="0 0 800.0 500.0">
  <defs>
    <clipPath id="plot-clip">
      <rect x="55" y="109" width="720" height="315"/>
    </clipPath>
  </defs>
  <rect x="0" y="0" width="800" height="500" fill="#FFFFFF"/>
  <line x1="55" y1="415.085" x2="775" y2="415.085" stroke="#EEEEEE" stroke-width="1"/>
  <line x1="55" y1="355.651" x2="775" y2="355.651" stroke="#EEEEEE" stroke-width="1"/>
  <line x1="55" y1="296.217" x2="775" y2="296.217" stroke="#EEEEEE" stroke-width="1"/>
  <line x1="55" y1="236.783" x2="775" y2="236.783" stroke="#EEEEEE" stroke-width="1"/>
  <line x1="55" y1="177.349" x2="775" y2="177.349" stroke="#EEEEEE" stroke-width="1"/>
  <line x1="55" y1="117.915" x2="775" y2="117.915" stroke="#EEEEEE" stroke-width="1"/>
  <line x1="55" y1="424" x2="775" y2="424" stroke="#CCCCCC" stroke-width="1"/>
  <g clip-path="url(#plot-clip)">
    <polyline points="75.3774,415.085 245.189,296.217 415,355.651 584.811,117.915 754.623,236.783" fill="none" stroke="#4E79A7" stroke-width="3" stroke-linejoin="round" stroke-linecap="round"/>
  </g>
  <line x1="75.3774" y1="424" x2="75.3774" y2="429" stroke="#CCCCCC" stroke-width="1"/>
  <text x="75.3774" y="442" font-family="Inter, Helvetica Neue, Arial, sans-serif" font-size="13" fill="#222222" text-anchor="middle">1</text>
  <line x1="245.189" y1="424" x2="245.189" y2="429" stroke="#CCCCCC" stroke-width="1"/>
  <text x="245.189" y="442" font-family="Inter, Helvetica Neue, Arial, sans-serif" font-size="13" fill="#222222" text-anchor="middle">2</text>
  <line x1="415" y1="424" x2="415" y2="429" stroke="#CCCCCC" stroke-width="1"/>
  <text x="415" y="442" font-family="Inter, Helvetica Neue, Arial, sans-serif" font-size="13" fill="#222222" text-anchor="middle">3</text>
  <line x1="584.811" y1="424" x2="584.811" y2="429" stroke="#CCCCCC" stroke-width="1"/>
  <text x="584.811" y="442" font-family="Inter, Helvetica Neue, Arial, sans-serif" font-size="13" fill="#222222" text-anchor="middle">4</text>
  <line x1="754.623" y1="424" x2="754.623" y2="429" stroke="#CCCCCC" stroke-width="1"/>
  <text x="754.623" y="442" font-family="Inter, Helvetica Neue, Arial, sans-serif" font-size="13" fill="#222222" text-anchor="middle">5</text>
  <line x1="50" y1="415.085" x2="55" y2="415.085" stroke="#CCCCCC" stroke-width="1"/>
  <text x="47" y="419.085" font-family="Inter, Helvetica Neue, Arial, sans-serif" font-size="13" fill="#222222" text-anchor="end">2</text>
  <line x1="50" y1="355.651" x2="55" y2="355.651" stroke="#CCCCCC" stroke-width="1"/>
  <text x="47" y="359.651" font-family="Inter, Helvetica Neue, Arial, sans-serif" font-size="13" fill="#222222" text-anchor="end">3</text>
  <line x1="50" y1="296.217" x2="55" y2="296.217" stroke="#CCCCCC" stroke-width="1"/>
  <text x="47" y="300.217" font-family="Inter, Helvetica Neue, Arial, sans-serif" font-size="13" fill="#222222" text-anchor="end">4</text>
  <line x1="50" y1="236.783" x2="55" y2="236.783" stroke="#CCCCCC" stroke-width="1"/>
  <text x="47" y="240.783" font-family="Inter, Helvetica Neue, Arial, sans-serif" font-size="13" fill="#222222" text-anchor="end">5</text>
  <line x1="50" y1="177.349" x2="55" y2="177.349" stroke="#CCCCCC" stroke-width="1"/>
  <text x="47" y="181.349" font-family="Inter, Helvetica Neue, Arial, sans-serif" font-size="13" fill="#222222" text-anchor="end">6</text>
  <line x1="50" y1="117.915" x2="55" y2="117.915" stroke="#CCCCCC" stroke-width="1"/>
  <text x="47" y="121.915" font-family="Inter, Helvetica Neue, Arial, sans-serif" font-size="13" fill="#222222" text-anchor="end">7</text>
  <text x="55" y="79" font-family="Inter, Helvetica Neue, Arial, sans-serif" font-size="24" fill="#222222" text-anchor="start" font-weight="bold">Bluesky Theme</text>
  <text x="415" y="472.5" font-family="Inter, Helvetica Neue, Arial, sans-serif" font-size="16" fill="#222222" text-anchor="middle">x</text>
  <text x="55" y="105" font-family="Inter, Helvetica Neue, Arial, sans-serif" font-size="16" fill="#222222" text-anchor="start">y</text>
</svg>