<?xml version="1.0" encoding="UTF-8"?>
<svg xmlns="http://www.w3.org/2000/svg" width="800" height="500" viewBox="0 0 800.0 500.0">
  <defs>
    <clipPath id="plot-clip">
      <rect x="79.4" y="66" width="580.6" height="367"/>
    </clipPath>
  </defs>
  <rect x="0" y="0" width="800" height="500" fill="#FFFFFF"/>
  <line x1="79.4" y1="422.613" x2="660" y2="422.613" stroke="#EEEEEE" stroke-width="1"/>
  <line x1="79.4" y1="336.057" x2="660" y2="336.057" stroke="#EEEEEE" stroke-width="1"/>
  <line x1="79.4" y1="249.5" x2="660" y2="249.5" stroke="#EEEEEE" stroke-width="1"/>
  <line x1="79.4" y1="162.943" x2="660" y2="162.943" stroke="#EEEEEE" stroke-width="1"/>
  <line x1="79.4" y1="76.3868" x2="660" y2="76.3868" stroke="#EEEEEE" stroke-width="1"/>
  <line x1="79.4" y1="433" x2="660" y2="433" stroke="#333333" stroke-width="1"/>
  <g clip-path="url(#plot-clip)">
    <polyline points="141.477,299.53 187.121,266.984 232.766,283.95 278.411,249.5 324.055,227.515 369.7,202.586 415.345,203.798 460.989,180.255 506.634,180.947 552.279,170.733 597.923,156.019 643.568,119.319" fill="none" stroke="#4E79A7" stroke-width="2" stroke-linejoin="round" stroke-linecap="round"/>
    <polyline points="141.477,355.099 187.121,355.272 232.766,320.476 278.411,350.252 324.055,338.307 369.7,336.403 415.345,336.576 460.989,305.069 506.634,308.358 552.279,333.287 597.923,317.707 643.568,303.858" fill="none" stroke="#C56A00" stroke-width="2" stroke-linejoin="round" stroke-linecap="round"/>
    <polyline points="141.477,405.821 187.121,419.324 232.766,420.017 278.411,407.725 324.055,380.027 369.7,371.718 415.345,358.388 460.989,361.331 506.634,357.35 552.279,357.003 597.923,323.939 643.568,314.937" fill="none" stroke="#E15759" stroke-width="2" stroke-linejoin="round" stroke-linecap="round"/>
  </g>
  <line x1="95.8321" y1="433" x2="95.8321" y2="438" stroke="#333333" stroke-width="1"/>
  <text x="95.8321" y="451" font-family="Inter, Helvetica Neue, Arial, sans-serif" font-size="10" fill="#333333" text-anchor="middle">0</text>
  <line x1="187.121" y1="433" x2="187.121" y2="438" stroke="#333333" stroke-width="1"/>
  <text x="187.121" y="451" font-family="Inter, Helvetica Neue, Arial, sans-serif" font-size="10" fill="#333333" text-anchor="middle">2</text>
  <line x1="278.411" y1="433" x2="278.411" y2="438" stroke="#333333" stroke-width="1"/>
  <text x="278.411" y="451" font-family="Inter, Helvetica Neue, Arial, sans-serif" font-size="10" fill="#333333" text-anchor="middle">4</text>
  <line x1="369.7" y1="433" x2="369.7" y2="438" stroke="#333333" stroke-width="1"/>
  <text x="369.7" y="451" font-family="Inter, Helvetica Neue, Arial, sans-serif" font-size="10" fill="#333333" text-anchor="middle">6</text>
  <line x1="460.989" y1="433" x2="460.989" y2="438" stroke="#333333" stroke-width="1"/>
  <text x="460.989" y="451" font-family="Inter, Helvetica Neue, Arial, sans-serif" font-size="10" fill="#333333" text-anchor="middle">8</text>
  <line x1="552.279" y1="433" x2="552.279" y2="438" stroke="#333333" stroke-width="1"/>
  <text x="552.279" y="451" font-family="Inter, Helvetica Neue, Arial, sans-serif" font-size="10" fill="#333333" text-anchor="middle">10</text>
  <line x1="643.568" y1="433" x2="643.568" y2="438" stroke="#333333" stroke-width="1"/>
  <text x="643.568" y="451" font-family="Inter, Helvetica Neue, Arial, sans-serif" font-size="10" fill="#333333" text-anchor="middle">12</text>
  <line x1="74.4" y1="422.613" x2="79.4" y2="422.613" stroke="#333333" stroke-width="1"/>
  <text x="71.4" y="426.613" font-family="Inter, Helvetica Neue, Arial, sans-serif" font-size="10" fill="#333333" text-anchor="end">50</text>
  <line x1="74.4" y1="336.057" x2="79.4" y2="336.057" stroke="#333333" stroke-width="1"/>
  <text x="71.4" y="340.057" font-family="Inter, Helvetica Neue, Arial, sans-serif" font-size="10" fill="#333333" text-anchor="end">100</text>
  <line x1="74.4" y1="249.5" x2="79.4" y2="249.5" stroke="#333333" stroke-width="1"/>
  <text x="71.4" y="253.5" font-family="Inter, Helvetica Neue, Arial, sans-serif" font-size="10" fill="#333333" text-anchor="end">150</text>
  <line x1="74.4" y1="162.943" x2="79.4" y2="162.943" stroke="#333333" stroke-width="1"/>
  <text x="71.4" y="166.943" font-family="Inter, Helvetica Neue, Arial, sans-serif" font-size="10" fill="#333333" text-anchor="end">200</text>
  <line x1="74.4" y1="76.3868" x2="79.4" y2="76.3868" stroke="#333333" stroke-width="1"/>
  <text x="71.4" y="80.3868" font-family="Inter, Helvetica Neue, Arial, sans-serif" font-size="10" fill="#333333" text-anchor="end">250</text>
  <text x="369.7" y="56" font-family="Inter, Helvetica Neue, Arial, sans-serif" font-size="16" fill="#333333" text-anchor="middle">Monthly Revenue by Product Line</text>
  <text x="369.7" y="475" font-family="Inter, Helvetica Neue, Arial, sans-serif" font-size="12" fill="#333333" text-anchor="middle">Month</text>
  <text x="14.4" y="249.5" font-family="Inter, Helvetica Neue, Arial, sans-serif" font-size="12" fill="#333333" text-anchor="middle" transform="rotate(-90,14.399999999999999,249.5)">Revenue ($K)</text>
  <rect x="675" y="68" width="12" height="12" fill="#4E79A7" rx="2"/>
  <text x="693" y="78" font-family="Inter, Helvetica Neue, Arial, sans-serif" font-size="10" fill="#333333" text-anchor="start">SaaS</text>
  <rect x="675" y="90" width="12" height="12" fill="#C56A00" rx="2"/>
  <text x="693" y="100" font-family="Inter, Helvetica Neue, Arial, sans-serif" font-size="10" fill="#333333" text-anchor="start">Hardware</text>
  <rect x="675" y="112" width="12" height="12" fill="#E15759" rx="2"/>
  <text x="693" y="122" font-family="Inter, Helvetica Neue, Arial, sans-serif" font-size="10" fill="#333333" text-anchor="start">Services</text>
</svg>