<?xml version="1.0" encoding="UTF-8"?>
<svg xmlns="http://www.w3.org/2000/svg" width="800" height="500" viewBox="0 0 800.0 500.0">
  <defs>
    <clipPath id="plot-clip">
      <rect x="78" y="68" width="582" height="364"/>
    </clipPath>
  </defs>
  <rect x="0" y="0" width="800" height="500" fill="#FFFFFF"/>
  <line x1="78" y1="432" x2="660" y2="432" stroke="#EEEEEE" stroke-width="1"/>
  <line x1="78" y1="341" x2="660" y2="341" stroke="#EEEEEE" stroke-width="1"/>
  <line x1="78" y1="250" x2="660" y2="250" stroke="#EEEEEE" stroke-width="1"/>
  <line x1="78" y1="159" x2="660" y2="159" stroke="#EEEEEE" stroke-width="1"/>
  <line x1="78" y1="68" x2="660" y2="68" stroke="#EEEEEE" stroke-width="1"/>
  <line x1="78" y1="432" x2="660" y2="432" stroke="#333333" stroke-width="1"/>
  <g clip-path="url(#plot-clip)">
    <polyline points="78,250 85.275,231.83 92.55,213.842 99.825,196.215 107.1,179.126 114.375,162.745 121.65,147.235 128.925,132.752 136.2,119.441 143.475,107.435 150.75,96.8523 158.025,87.8003 165.3,80.3689 172.575,74.6324 179.85,70.6481 187.125,68.4559 194.4,68.0776 201.675,69.517 208.95,72.7597 216.225,77.7734 223.5,84.5079 230.775,92.8959 238.05,102.854 245.325,114.282 252.6,127.066 259.875,141.078 267.15,156.179 274.425,172.217 281.7,189.032 288.975,206.457 296.25,224.316 303.525,242.432 310.8,260.624 318.075,278.71 325.35,296.508 332.625,313.843 339.9,330.539 347.175,346.43 354.45,361.358 361.725,375.173 369,387.738 376.275,398.926 383.55,408.627 390.825,416.742 398.1,423.192 405.375,427.91 412.65,430.852 419.925,431.986 427.2,431.302 434.475,428.806 441.75,424.524 449.025,418.498 456.3,410.789 463.575,401.473 470.85,390.643 478.125,378.408 485.4,364.891 492.675,350.225 499.95,334.558 507.225,318.046 514.5,300.854 521.775,283.154 529.05,265.122" fill="none" stroke="#4E79A7" stroke-width="2.5" stroke-linejoin="round" stroke-linecap="round"/>
    <polyline points="78,68 85.275,68.9092 92.55,71.6279 99.825,76.1288 107.1,82.3669 114.375,90.28 121.65,99.7889 128.925,110.799 136.2,123.199 143.475,136.867 150.75,151.665 158.025,167.446 165.3,184.051 172.575,201.315 179.85,219.066 187.125,237.126 194.4,255.314 201.675,273.45 208.95,291.351 216.225,308.839 223.5,325.739 230.775,341.882 238.05,357.107 245.325,371.262 252.6,384.206 259.875,395.808 267.15,405.954 274.425,414.541 281.7,421.484 288.975,426.714 296.25,430.179 303.525,431.843 310.8,431.69 318.075,429.721 325.35,425.957 332.625,420.435 339.9,413.21 347.175,404.354 354.45,393.956 361.725,382.12 369,368.963 376.275,354.618 383.55,339.227 390.825,322.945 398.1,305.935 405.375,288.365 412.65,270.412 419.925,252.255 427.2,234.075 434.475,216.055 441.75,198.373 449.025,181.208 456.3,164.73 463.575,149.104 470.85,134.486 478.125,121.022 485.4,108.847 492.675,98.0823 499.95,88.8354 507.225,81.1989 514.5,75.249 521.775,71.0451 529.05,68.6293" fill="none" stroke="#C56A00" stroke-width="2.5" stroke-linejoin="round" stroke-linecap="round"/>
  </g>
  <line x1="78" y1="432" x2="78" y2="437" stroke="#333333" stroke-width="1"/>
  <text x="78" y="450" font-family="Inter, Helvetica Neue, Arial, sans-serif" font-size="11" fill="#333333" text-anchor="middle">0</text>
  <line x1="223.5" y1="432" x2="223.5" y2="437" stroke="#333333" stroke-width="1"/>
  <text x="223.5" y="450" font-family="Inter, Helvetica Neue, Arial, sans-serif" font-size="11" fill="#333333" text-anchor="middle">2</text>
  <line x1="369" y1="432" x2="369" y2="437" stroke="#333333" stroke-width="1"/>
  <text x="369" y="450" font-family="Inter, Helvetica Neue, Arial, sans-serif" font-size="11" fill="#333333" text-anchor="middle">4</text>
  <line x1="514.5" y1="432" x2="514.5" y2="437" stroke="#333333" stroke-width="1"/>
  <text x="514.5" y="450" font-family="Inter, Helvetica Neue, Arial, sans-serif" font-size="11" fill="#333333" text-anchor="middle">6</text>
  <line x1="660" y1="432" x2="660" y2="437" stroke="#333333" stroke-width="1"/>
  <text x="660" y="450" font-family="Inter, Helvetica Neue, Arial, sans-serif" font-size="11" fill="#333333" text-anchor="middle">8</text>
  <line x1="73" y1="432" x2="78" y2="432" stroke="#333333" stroke-width="1"/>
  <text x="70" y="436" font-family="Inter, Helvetica Neue, Arial, sans-serif" font-size="11" fill="#333333" text-anchor="end">-1</text>
  <line x1="73" y1="341" x2="78" y2="341" stroke="#333333" stroke-width="1"/>
  <text x="70" y="345" font-family="Inter, Helvetica Neue, Arial, sans-serif" font-size="11" fill="#333333" text-anchor="end">-0.5</text>
  <line x1="73" y1="250" x2="78" y2="250" stroke="#333333" stroke-width="1"/>
  <text x="70" y="254" font-family="Inter, Helvetica Neue, Arial, sans-serif" font-size="11" fill="#333333" text-anchor="end">0</text>
  <line x1="73" y1="159" x2="78" y2="159" stroke="#333333" stroke-width="1"/>
  <text x="70" y="163" font-family="Inter, Helvetica Neue, Arial, sans-serif" font-size="11" fill="#333333" text-anchor="end">0.5</text>
  <line x1="73" y1="68" x2="78" y2="68" stroke="#333333" stroke-width="1"/>
  <text x="70" y="72" font-family="Inter, Helvetica Neue, Arial, sans-serif" font-size="11" fill="#333333" text-anchor="end">1</text>
  <text x="369" y="58" font-family="Inter, Helvetica Neue, Arial, sans-serif" font-size="18" fill="#333333" text-anchor="middle">Theme: substack</text>
  <text x="369" y="475" font-family="Inter, Helvetica Neue, Arial, sans-serif" font-size="13" fill="#333333" text-anchor="middle">x</text>
  <text x="13" y="250" font-family="Inter, Helvetica Neue, Arial, sans-serif" font-size="13" fill="#333333" text-anchor="middle" transform="rotate(-90,13.0,250.0)">f(x)</text>
  <rect x="675" y="70" width="12" height="12" fill="#4E79A7" rx="2"/>
  <text x="693" y="80" font-family="Inter, Helvetica Neue, Arial, sans-serif" font-size="11" fill="#333333" text-anchor="start">sin(x)</text>
  <rect x="675" y="92" width="12" height="12" fill="#C56A00" rx="2"/>
  <text x="693" y="102" font-family="Inter, Helvetica Neue, Arial, sans-serif" font-size="11" fill="#333333" text-anchor="start">cos(x)</text>
</svg>