<?xml version="1.0" encoding="UTF-8"?>
<svg xmlns="http://www.w3.org/2000/svg" width="800" height="500" viewBox="0 0 800.0 500.0">
  <defs>
    <clipPath id="plot-clip">
      <rect x="77" y="66" width="583" height="367"/>
    </clipPath>
  </defs>
  <rect x="0" y="0" width="800" height="500" fill="#FFFFFF"/>
  <line x1="77" y1="422.613" x2="660" y2="422.613" stroke="#EEEEEE" stroke-width="1"/>
  <line x1="77" y1="336.057" x2="660" y2="336.057" stroke="#EEEEEE" stroke-width="1"/>
  <line x1="77" y1="249.5" x2="660" y2="249.5" stroke="#EEEEEE" stroke-width="1"/>
  <line x1="77" y1="162.943" x2="660" y2="162.943" stroke="#EEEEEE" stroke-width="1"/>
  <line x1="77" y1="76.3868" x2="660" y2="76.3868" stroke="#EEEEEE" stroke-width="1"/>
  <line x1="77" y1="433" x2="660" y2="433" stroke="#333333" stroke-width="1"/>
  <g clip-path="url(#plot-clip)">
    <polyline points="139.333,299.53 185.167,266.984 231,283.95 276.833,249.5 322.667,227.515 368.5,202.586 414.333,203.798 460.167,180.255 506,180.947 551.833,170.733 597.667,156.019 643.5,119.319" fill="none" stroke="#4E79A7" stroke-width="2" stroke-linejoin="round" stroke-linecap="round"/>
    <polyline points="139.333,355.099 185.167,355.272 231,320.476 276.833,350.252 322.667,338.307 368.5,336.403 414.333,336.576 460.167,305.069 506,308.358 551.833,333.287 597.667,317.707 643.5,303.858" fill="none" stroke="#C56A00" stroke-width="2" stroke-linejoin="round" stroke-linecap="round"/>
    <polyline points="139.333,405.821 185.167,419.324 231,420.017 276.833,407.725 322.667,380.027 368.5,371.718 414.333,358.388 460.167,361.331 506,357.35 551.833,357.003 597.667,323.939 643.5,314.937" fill="none" stroke="#E15759" stroke-width="2" stroke-linejoin="round" stroke-linecap="round"/>
  </g>
  <line x1="93.5" y1="433" x2="93.5" y2="438" stroke="#333333" stroke-width="1"/>
  <text x="93.5" y="451" font-family="Inter, Helvetica Neue, Arial, sans-serif" font-size="10" fill="#333333" text-anchor="middle">0</text>
  <line x1="185.167" y1="433" x2="185.167" y2="438" stroke="#333333" stroke-width="1"/>
  <text x="185.167" y="451" font-family="Inter, Helvetica Neue, Arial, sans-serif" font-size="10" fill="#333333" text-anchor="middle">2</text>
  <line x1="276.833" y1="433" x2="276.833" y2="438" stroke="#333333" stroke-width="1"/>
  <text x="276.833" y="451" font-family="Inter, Helvetica Neue, Arial, sans-serif" font-size="10" fill="#333333" text-anchor="middle">4</text>
  <line x1="368.5" y1="433" x2="368.5" y2="438" stroke="#333333" stroke-width="1"/>
  <text x="368.5" y="451" font-family="Inter, Helvetica Neue, Arial, sans-serif" font-size="10" fill="#333333" text-anchor="middle">6</text>
  <line x1="460.167" y1="433" x2="460.167" y2="438" stroke="#333333" stroke-width="1"/>
  <text x="460.167" y="451" font-family="Inter, Helvetica Neue, Arial, sans-serif" font-size="10" fill="#333333" text-anchor="middle">8</text>
  <line x1="551.833" y1="433" x2="551.833" y2="438" stroke="#333333" stroke-width="1"/>
  <text x="551.833" y="451" font-family="Inter, Helvetica Neue, Arial, sans-serif" font-size="10" fill="#333333" text-anchor="middle">10</text>
  <line x1="643.5" y1="433" x2="643.5" y2="438" stroke="#333333" stroke-width="1"/>
  <text x="643.5" y="451" font-family="Inter, Helvetica Neue, Arial, sans-serif" font-size="10" fill="#333333" text-anchor="middle">12</text>
  <line x1="72" y1="422.613" x2="77" y2="422.613" stroke="#333333" stroke-width="1"/>
  <text x="69" y="426.613" font-family="Inter, Helvetica Neue, Arial, sans-serif" font-size="10" fill="#333333" text-anchor="end">50</text>
  <line x1="72" y1="336.057" x2="77" y2="336.057" stroke="#333333" stroke-width="1"/>
  <text x="69" y="340.057" font-family="Inter, Helvetica Neue, Arial, sans-serif" font-size="10" fill="#333333" text-anchor="end">100</text>
  <line x1="72" y1="249.5" x2="77" y2="249.5" stroke="#333333" stroke-width="1"/>
  <text x="69" y="253.5" font-family="Inter, Helvetica Neue, Arial, sans-serif" font-size="10" fill="#333333" text-anchor="end">150</text>
  <line x1="72" y1="162.943" x2="77" y2="162.943" stroke="#333333" stroke-width="1"/>
  <text x="69" y="166.943" font-family="Inter, Helvetica Neue, Arial, sans-serif" font-size="10" fill="#333333" text-anchor="end">200</text>
  <line x1="72" y1="76.3868" x2="77" y2="76.3868" stroke="#333333" stroke-width="1"/>
  <text x="69" y="80.3868" font-family="Inter, Helvetica Neue, Arial, sans-serif" font-size="10" fill="#333333" text-anchor="end">250</text>
  <text x="368.5" y="56" font-family="Inter, Helvetica Neue, Arial, sans-serif" font-size="16" fill="#333333" text-anchor="middle">Monthly Revenue by Product Line</text>
  <text x="368.5" y="475" font-family="Inter, Helvetica Neue, Arial, sans-serif" font-size="12" fill="#333333" text-anchor="middle">Month</text>
  <text x="12" y="249.5" font-family="Inter, Helvetica Neue, Arial, sans-serif" font-size="12" fill="#333333" text-anchor="middle" transform="rotate(-90,12,249.5)">Revenue ($K)</text>
  <rect x="675" y="68" width="12" height="12" fill="#4E79A7" rx="2"/>
  <text x="693" y="78" font-family="Inter, Helvetica Neue, Arial, sans-serif" font-size="10" fill="#333333" text-anchor="start">SaaS</text>
  <rect x="675" y="90" width="12" height="12" fill="#C56A00" rx="2"/>
  <text x="693" y="100" font-family="Inter, Helvetica Neue, Arial, sans-serif" font-size="10" fill="#333333" text-anchor="start">Hardware</text>
  <rect x="675" y="112" width="12" height="12" fill="#E15759" rx="2"/>
  <text x="693" y="122" font-family="Inter, Helvetica Neue, Arial, sans-serif" font-size="10" fill="#333333" text-anchor="start">Services</text>
</svg>